<svg width="946" height="350" viewBox="0 0 946 350" fill="none" xmlns="http://www.w3.org/2000/svg">
<path fill-rule="evenodd" clip-rule="evenodd" d="M50 0L0 0L0 250H50L50 150H100V250H150V100L100 100H50L50 0ZM200 100H250V200L300 200V100H350V350H300H0L0 300H300V250L250 250H200V100ZM350 0L100 0V50L350 50V0Z" fill="white"/>
<path d="M855.703 149.932V6.94622L871.58 1.98486L900.653 1.98486C912.891 1.98486 923.277 6.35085 931.81 15.0828C940.476 23.881 944.809 34.4321 944.809 46.7362C944.809 59.1727 940.509 69.7238 931.91 78.3896C927.941 82.4249 923.575 85.534 918.812 87.717L946 142.986L930.024 149.932L902.737 91.4876C902.075 91.4876 901.381 91.4876 900.653 91.4876H871.58V142.986L855.703 149.932ZM871.58 17.8612V75.6113H900.951C908.823 75.6113 915.57 72.7999 921.193 67.177C926.816 61.5541 929.628 54.7406 929.628 46.7362C929.628 38.8642 926.816 32.0837 921.193 26.3947C915.57 20.7057 908.823 17.8612 900.951 17.8612H871.58Z" fill="white"/>
<path d="M765.804 82.9537V132.071H836.453L829.507 147.947H749.927V8.83114L765.804 1.88525L823.554 1.98448L816.608 17.8608L765.804 17.8608V67.0774H823.554L816.608 82.9537H765.804Z" fill="white"/>
<path d="M643.953 17.8612V75.6113H673.324C681.196 75.6113 687.943 72.7999 693.566 67.177C699.189 61.5541 702.001 54.7406 702.001 46.7362C702.001 38.8642 699.189 32.0837 693.566 26.3947C687.943 20.7057 681.196 17.8612 673.324 17.8612H643.953ZM628.076 149.932V6.94622L643.953 1.98486L673.026 1.98486C685.264 1.98486 695.65 6.35085 704.184 15.0828C712.849 23.881 717.182 34.4321 717.182 46.7362C717.182 59.1727 712.882 69.7238 704.283 78.3896C695.617 87.1216 685.198 91.4876 673.026 91.4876H643.953V142.986L628.076 149.932Z" fill="white"/>
<path d="M550.58 149.932V104.486C541.583 102.965 533.678 98.8632 526.865 92.1819C518.133 83.5161 513.767 73.0972 513.767 60.9254V6.94589L529.643 0V61.2231C529.709 69.1612 532.554 75.9087 538.177 81.4654C543.866 87.0882 550.646 89.8997 558.518 89.8997C566.456 89.8997 573.27 87.0882 578.959 81.4654C584.582 75.9087 587.393 69.2605 587.393 61.5207V61.2231V6.94589L603.27 0V60.9254C603.27 73.0972 598.904 83.5161 590.172 92.1819C583.358 98.8632 575.453 102.965 566.456 104.486V142.986L550.58 149.932Z" fill="white"/>
<path d="M399.656 149.932V6.94589L415.532 0V67.0775H473.282V6.94589L489.159 0V142.986L473.282 149.932V82.9538H415.532V142.986L399.656 149.932Z" fill="white"/>
<path d="M871.877 217.234V332.834H900.852H900.951C908.757 332.834 915.537 330.022 921.292 324.399C926.981 318.843 929.826 312.095 929.826 304.157V245.811C929.826 237.939 926.981 231.192 921.292 225.569C915.603 219.946 908.823 217.135 900.951 217.135H900.852L871.877 217.234ZM900.852 348.015H856.001V208.899L871.877 201.953H900.852H900.951C913.321 201.953 923.872 206.286 932.604 214.952C941.336 223.552 945.702 233.937 945.702 246.109V303.859C945.702 316.031 941.336 326.45 932.604 335.116C923.872 343.715 913.321 348.015 900.951 348.015H900.852Z" fill="white"/>
<path d="M743.478 207.014L759.354 200.068V332.139H830.004L823.058 348.015H743.478V207.014Z" fill="white"/>
<path d="M651.693 283.022V332.139H722.342L715.396 348.015H635.816V208.899L651.693 201.953L709.443 202.052L702.497 217.929H651.693V267.145H709.443L702.497 283.022H651.693Z" fill="white"/>
<path d="M522.201 202.053H601.781L594.835 217.929H566.457V332.139H601.781L594.835 348.016H515.255L522.201 332.139H550.58V217.929H515.255L522.201 202.053Z" fill="white"/>
<path d="M436.469 350V304.554C427.472 303.032 419.567 298.931 412.754 292.25C404.022 283.584 399.656 273.165 399.656 260.993V207.014L415.532 200.068V261.291C415.598 269.229 418.443 275.977 424.066 281.533C429.755 287.156 436.535 289.968 444.407 289.968C452.345 289.968 459.159 287.156 464.848 281.533C470.471 275.977 473.282 269.328 473.282 261.589V261.291V207.014L489.159 200.068V260.993C489.159 273.165 484.793 283.584 476.061 292.25C469.247 298.931 461.342 303.032 452.345 304.554V343.054L436.469 350Z" fill="white"/>
</svg>
