<svg width="131" height="25" viewBox="0 0 131 25" fill="none" xmlns="http://www.w3.org/2000/svg">
  <path
    d="M87.0351 18.2508C86.2015 18.2508 85.4713 18.0405 84.8447 17.6198C84.2181 17.199 83.7285 16.6269 83.376 15.9033C83.0292 15.1797 82.8557 14.3635 82.8557 13.4548C82.8557 12.5293 83.032 11.7075 83.3844 10.9895C83.7425 10.2659 84.2432 9.69653 84.8867 9.28144C85.5301 8.86635 86.2854 8.6588 87.1526 8.6588C88.0142 8.6588 88.7387 8.86915 89.3262 9.28986C89.9137 9.71056 90.3585 10.2827 90.6606 11.0063C90.9627 11.7299 91.1138 12.5461 91.1138 13.4548C91.1138 14.3635 90.9599 15.1797 90.6522 15.9033C90.3501 16.6269 89.8969 17.199 89.2926 17.6198C88.6884 18.0405 87.9359 18.2508 87.0351 18.2508ZM87.4044 16.2146C87.9135 16.2146 88.3191 16.0996 88.6212 15.8696C88.929 15.6396 89.15 15.3171 89.2842 14.902C89.4185 14.4869 89.4857 14.0045 89.4857 13.4548C89.4857 12.9051 89.4185 12.4227 89.2842 12.0076C89.15 11.5925 88.9346 11.27 88.638 11.04C88.3471 10.81 87.9638 10.695 87.4883 10.695C86.9791 10.695 86.5595 10.8212 86.2294 11.0736C85.9049 11.3204 85.6643 11.6542 85.5077 12.0749C85.351 12.49 85.2727 12.95 85.2727 13.4548C85.2727 13.9653 85.3482 14.4308 85.4993 14.8515C85.6504 15.2666 85.8826 15.5976 86.1959 15.8444C86.5092 16.0912 86.912 16.2146 87.4044 16.2146ZM89.4857 17.9984V11.772H89.2003V5.88217H91.4998V17.9984H89.4857Z"
    fill="white"/>
  <path
    d="M79.7006 17.9984V13.7072C79.7006 13.4997 79.6894 13.236 79.667 12.9163C79.6447 12.591 79.5747 12.2656 79.4572 11.9403C79.3397 11.6149 79.1467 11.3429 78.8782 11.1241C78.6152 10.9053 78.2403 10.796 77.7536 10.796C77.5578 10.796 77.348 10.8268 77.1242 10.8885C76.9004 10.9502 76.6906 11.0708 76.4947 11.2503C76.2989 11.4242 76.1367 11.6822 76.008 12.0244C75.8849 12.3666 75.8234 12.8209 75.8234 13.3875L74.5142 12.7648C74.5142 12.0468 74.6596 11.3737 74.9506 10.7455C75.2415 10.1172 75.6779 9.60958 76.2598 9.22254C76.8472 8.83549 77.5857 8.64197 78.4753 8.64197C79.1859 8.64197 79.7649 8.76257 80.2125 9.00377C80.6601 9.24497 81.007 9.55068 81.2532 9.9209C81.505 10.2911 81.684 10.6782 81.7903 11.082C81.8966 11.4803 81.9609 11.8449 81.9833 12.1759C82.0057 12.5068 82.0169 12.748 82.0169 12.8995V17.9984H79.7006ZM73.5071 17.9984V8.91122H75.538V11.9234H75.8234V17.9984H73.5071Z"
    fill="white"/>
  <path
    d="M68.4423 18.2508C67.5136 18.2508 66.6939 18.0517 65.9834 17.6534C65.2784 17.2495 64.7245 16.697 64.3217 15.9959C63.9244 15.2891 63.7258 14.4813 63.7258 13.5726C63.7258 12.5798 63.9217 11.7159 64.3133 10.9811C64.7049 10.2463 65.2448 9.67691 65.933 9.27304C66.6212 8.86355 67.4129 8.65881 68.308 8.65881C69.2592 8.65881 70.0676 8.88319 70.7334 9.33194C71.3992 9.78068 71.8916 10.4117 72.2105 11.2251C72.5294 12.0385 72.6413 12.9948 72.5462 14.0943H70.2886V13.2529C70.2886 12.3273 70.1404 11.6626 69.8438 11.2587C69.5529 10.8493 69.0745 10.6445 68.4087 10.6445C67.6311 10.6445 67.0576 10.8829 66.6883 11.3597C66.3247 11.8309 66.1428 12.5293 66.1428 13.4548C66.1428 14.3018 66.3247 14.9581 66.6883 15.4237C67.0576 15.8837 67.5975 16.1136 68.308 16.1136C68.7556 16.1136 69.1389 16.0155 69.4578 15.8192C69.7767 15.6228 70.0201 15.3396 70.1879 14.9693L72.4706 15.6256C72.1293 16.4558 71.5894 17.1009 70.8509 17.5609C70.118 18.0208 69.3151 18.2508 68.4423 18.2508ZM65.4379 14.0943V12.3946H71.4468V14.0943H65.4379Z"
    fill="white"/>
  <path d="M55.9878 17.9984V5.88217H58.2705V15.8612H63.4738V17.9984H55.9878Z" fill="white"/>
  <path
    d="M50.0469 18.2508C49.1349 18.2508 48.3348 18.0461 47.6467 17.6366C46.9585 17.2271 46.4214 16.6634 46.0353 15.9454C45.6549 15.2218 45.4647 14.3916 45.4647 13.4548C45.4647 12.5068 45.6605 11.6738 46.0521 10.9558C46.4438 10.2322 46.9837 9.6685 47.6718 9.26462C48.36 8.86075 49.1517 8.65881 50.0469 8.65881C50.9588 8.65881 51.7589 8.86355 52.4471 9.27304C53.1408 9.68252 53.6807 10.2491 54.0668 10.9727C54.4528 11.6907 54.6459 12.5181 54.6459 13.4548C54.6459 14.3972 54.45 15.2302 54.0584 15.9538C53.6723 16.6718 53.1324 17.2355 52.4387 17.645C51.7505 18.0489 50.9532 18.2508 50.0469 18.2508ZM50.0469 16.1136C50.7798 16.1136 51.3253 15.8668 51.6834 15.3732C52.047 14.874 52.2289 14.2345 52.2289 13.4548C52.2289 12.6471 52.0442 12.002 51.675 11.5196C51.3113 11.0372 50.7686 10.796 50.0469 10.796C49.5489 10.796 49.1405 10.9082 48.8216 11.1325C48.5027 11.3569 48.2649 11.6682 48.1082 12.0665C47.9572 12.4648 47.8816 12.9275 47.8816 13.4548C47.8816 14.2682 48.0635 14.9161 48.4271 15.3985C48.7964 15.8753 49.3363 16.1136 50.0469 16.1136Z"
    fill="white"/>
  <path
    d="M39.8864 17.9984V8.91121H41.9005V11.1325L41.6823 10.8464C41.7998 10.5323 41.9565 10.2462 42.1523 9.98821C42.3481 9.73018 42.5887 9.51702 42.874 9.34874C43.0922 9.21412 43.33 9.11034 43.5874 9.03742C43.8447 8.95889 44.1105 8.91121 44.3847 8.89438C44.6588 8.87195 44.933 8.87755 45.2071 8.91121V11.0484C44.9553 10.9698 44.6616 10.9446 44.3259 10.9726C43.9958 10.9951 43.6965 11.0708 43.4279 11.1998C43.1594 11.3232 42.9328 11.4887 42.7482 11.6963C42.5635 11.8982 42.4236 12.1394 42.3285 12.4199C42.2334 12.6947 42.1859 13.006 42.1859 13.3538V17.9984H39.8864Z"
    fill="white"/>
  <path
    d="M34.5589 18.2508C33.6302 18.2508 32.8105 18.0517 32.1 17.6534C31.395 17.2495 30.8411 16.697 30.4383 15.9959C30.0411 15.2891 29.8425 14.4813 29.8425 13.5726C29.8425 12.5798 30.0383 11.7159 30.4299 10.9811C30.8216 10.2463 31.3615 9.67691 32.0496 9.27304C32.7378 8.86355 33.5295 8.65881 34.4247 8.65881C35.3758 8.65881 36.1843 8.88319 36.85 9.33194C37.5158 9.78068 38.0082 10.4117 38.3271 11.2251C38.646 12.0385 38.7579 12.9948 38.6628 14.0943H36.4053V13.2529C36.4053 12.3273 36.257 11.6626 35.9605 11.2587C35.6695 10.8493 35.1912 10.6445 34.5254 10.6445C33.7477 10.6445 33.1742 10.8829 32.8049 11.3597C32.4413 11.8309 32.2594 12.5293 32.2594 13.4548C32.2594 14.3018 32.4413 14.9581 32.8049 15.4237C33.1742 15.8837 33.7141 16.1136 34.4247 16.1136C34.8723 16.1136 35.2555 16.0155 35.5744 15.8192C35.8933 15.6228 36.1367 15.3396 36.3045 14.9693L38.5873 15.6256C38.246 16.4558 37.7061 17.1009 36.9675 17.5609C36.2346 18.0208 35.4317 18.2508 34.5589 18.2508ZM31.5545 14.0943V12.3946H37.5634V14.0943H31.5545Z"
    fill="white"/>
  <path
    d="M19.2734 17.9984V17.7123L25.0137 8.01934H19.7769V5.88217H29.0085V6.16825L23.3017 15.8444H28.8406V17.9984H19.2734Z"
    fill="white"/>
  <path fill-rule="evenodd" clip-rule="evenodd"
        d="M4.02027 15.4571L10.1557 6.67213C10.6999 5.89285 11.7712 5.70346 12.5485 6.24912C13.3258 6.79478 13.5147 7.86886 12.9704 8.64814L6.83502 17.4331C6.29077 18.2124 5.21946 18.4018 4.44219 17.8561C3.66492 17.3104 3.47602 16.2364 4.02027 15.4571ZM13.7984 4.45954C15.5614 5.69726 15.9899 8.13358 14.7554 9.90122L8.61998 18.6862C7.38546 20.4538 4.95543 20.8834 3.19235 19.6457C1.42927 18.408 1.00079 15.9716 2.23531 14.204L8.37073 5.41906C9.60525 3.65142 12.0353 3.22183 13.7984 4.45954Z"
        fill="white"/>
  <path
    d="M103.07 18.3046C101.86 18.3046 100.816 18.0414 99.9364 17.515C99.0628 16.9886 98.388 16.2522 97.912 15.3058C97.4416 14.3594 97.2064 13.259 97.2064 12.0046C97.2064 10.7502 97.4416 9.64981 97.912 8.70341C98.388 7.75701 99.0628 7.02061 99.9364 6.49421C100.816 5.96781 101.86 5.70461 103.07 5.70461C104.279 5.70461 105.321 5.96781 106.194 6.49421C107.074 7.02061 107.748 7.75701 108.219 8.70341C108.695 9.64981 108.933 10.7502 108.933 12.0046C108.933 13.259 108.695 14.3594 108.219 15.3058C107.748 16.2522 107.074 16.9886 106.194 17.515C105.321 18.0414 104.279 18.3046 103.07 18.3046ZM103.07 16.1542C103.837 16.1654 104.475 16.0002 104.985 15.6586C105.494 15.317 105.875 14.8326 106.127 14.2054C106.385 13.5782 106.514 12.8446 106.514 12.0046C106.514 11.1646 106.385 10.4366 106.127 9.82061C105.875 9.20461 105.494 8.72581 104.985 8.38421C104.475 8.04261 103.837 7.86621 103.07 7.85501C102.302 7.84381 101.664 8.00901 101.154 8.35061C100.645 8.69221 100.261 9.17661 100.004 9.80381C99.7516 10.431 99.6256 11.1646 99.6256 12.0046C99.6256 12.8446 99.7516 13.5726 100.004 14.1886C100.261 14.8046 100.645 15.2834 101.154 15.625C101.664 15.9666 102.302 16.143 103.07 16.1542ZM116.792 18.0526V13.7686C116.792 13.5614 116.781 13.2982 116.759 12.979C116.736 12.6542 116.666 12.3294 116.549 12.0046C116.431 11.6798 116.238 11.4082 115.969 11.1898C115.706 10.9714 115.33 10.8622 114.843 10.8622C114.647 10.8622 114.437 10.893 114.213 10.9546C113.989 11.0162 113.779 11.1366 113.583 11.3158C113.387 11.4894 113.225 11.747 113.096 12.0886C112.973 12.4302 112.911 12.8838 112.911 13.4494L111.601 12.8278C111.601 12.111 111.746 11.439 112.038 10.8118C112.329 10.1846 112.766 9.67781 113.348 9.29141C113.936 8.90501 114.675 8.71181 115.566 8.71181C116.277 8.71181 116.857 8.83221 117.305 9.07301C117.753 9.31381 118.1 9.61901 118.346 9.98861C118.598 10.3582 118.777 10.7446 118.884 11.1478C118.99 11.5454 119.055 11.9094 119.077 12.2398C119.099 12.5702 119.111 12.811 119.111 12.9622V18.0526H116.792ZM110.593 18.0526V8.98061H112.626V11.9878H112.911V18.0526H110.593ZM125.343 18.3046C124.413 18.3046 123.593 18.1058 122.882 17.7082C122.176 17.305 121.622 16.7534 121.219 16.0534C120.821 15.3478 120.622 14.5414 120.622 13.6342C120.622 12.643 120.818 11.7806 121.21 11.047C121.602 10.3134 122.143 9.74501 122.831 9.34181C123.52 8.93301 124.313 8.72861 125.209 8.72861C126.161 8.72861 126.97 8.95261 127.636 9.40061C128.303 9.84861 128.795 10.4786 129.115 11.2906C129.434 12.1026 129.546 13.0574 129.451 14.155H127.191V13.315C127.191 12.391 127.043 11.7274 126.746 11.3242C126.455 10.9154 125.976 10.711 125.309 10.711C124.531 10.711 123.957 10.949 123.587 11.425C123.223 11.8954 123.041 12.5926 123.041 13.5166C123.041 14.3622 123.223 15.0174 123.587 15.4822C123.957 15.9414 124.497 16.171 125.209 16.171C125.657 16.171 126.04 16.073 126.359 15.877C126.679 15.681 126.922 15.3982 127.09 15.0286L129.375 15.6838C129.033 16.5126 128.493 17.1566 127.754 17.6158C127.02 18.075 126.217 18.3046 125.343 18.3046ZM122.336 14.155V12.4582H128.35V14.155H122.336Z"
    fill="white"/>
</svg>
