<svg width="131" height="25" viewBox="0 0 131 25" fill="none" xmlns="http://www.w3.org/2000/svg">
  <path
    d="M87.0353 18.2508C86.2017 18.2508 85.4716 18.0405 84.8449 17.6198C84.2183 17.1991 83.7288 16.6269 83.3763 15.9033C83.0294 15.1797 82.856 14.3635 82.856 13.4548C82.856 12.5293 83.0322 11.7075 83.3847 10.9895C83.7427 10.2659 84.2435 9.69653 84.8869 9.28144C85.5303 8.86635 86.2856 8.6588 87.1528 8.6588C88.0144 8.6588 88.739 8.86915 89.3264 9.28986C89.9139 9.71056 90.3587 10.2827 90.6608 11.0063C90.9629 11.7299 91.114 12.5461 91.114 13.4548C91.114 14.3635 90.9601 15.1797 90.6524 15.9033C90.3503 16.6269 89.8971 17.1991 89.2929 17.6198C88.6886 18.0405 87.9361 18.2508 87.0353 18.2508ZM87.4046 16.2146C87.9137 16.2146 88.3194 16.0996 88.6215 15.8696C88.9292 15.6396 89.1502 15.3171 89.2845 14.902C89.4188 14.4869 89.4859 14.0045 89.4859 13.4548C89.4859 12.9051 89.4188 12.4227 89.2845 12.0076C89.1502 11.5925 88.9348 11.27 88.6383 11.04C88.3473 10.81 87.9641 10.695 87.4885 10.695C86.9794 10.695 86.5598 10.8212 86.2297 11.0736C85.9052 11.3204 85.6646 11.6542 85.5079 12.0749C85.3513 12.49 85.2729 12.95 85.2729 13.4548C85.2729 13.9653 85.3485 14.4308 85.4995 14.8515C85.6506 15.2666 85.8828 15.5976 86.1961 15.8444C86.5094 16.0912 86.9122 16.2146 87.4046 16.2146ZM89.4859 17.9984V11.772H89.2006V5.88217H91.5001V17.9984H89.4859Z"
    fill="#121217"/>
  <path
    d="M79.7009 17.9984V13.7072C79.7009 13.4997 79.6897 13.236 79.6673 12.9163C79.6449 12.591 79.575 12.2656 79.4575 11.9403C79.34 11.6149 79.147 11.3429 78.8784 11.1241C78.6155 10.9053 78.2406 10.796 77.7538 10.796C77.558 10.796 77.3482 10.8268 77.1244 10.8885C76.9006 10.9502 76.6908 11.0708 76.495 11.2503C76.2992 11.4242 76.1369 11.6822 76.0082 12.0244C75.8852 12.3666 75.8236 12.8209 75.8236 13.3875L74.5144 12.7648C74.5144 12.0468 74.6599 11.3737 74.9508 10.7455C75.2417 10.1172 75.6781 9.60958 76.26 9.22254C76.8475 8.83549 77.586 8.64197 78.4756 8.64197C79.1861 8.64197 79.7652 8.76257 80.2128 9.00377C80.6604 9.24497 81.0073 9.55068 81.2534 9.9209C81.5052 10.2911 81.6842 10.6782 81.7905 11.082C81.8969 11.4803 81.9612 11.8449 81.9836 12.1759C82.006 12.5068 82.0171 12.748 82.0171 12.8995V17.9984H79.7009ZM73.5073 17.9984V8.91122H75.5383V11.9234H75.8236V17.9984H73.5073Z"
    fill="#121217"/>
  <path
    d="M68.4421 18.2508C67.5133 18.2508 66.6937 18.0517 65.9831 17.6534C65.2782 17.2495 64.7243 16.697 64.3214 15.9959C63.9242 15.2891 63.7256 14.4813 63.7256 13.5726C63.7256 12.5798 63.9214 11.7159 64.313 10.9811C64.7047 10.2463 65.2446 9.67691 65.9328 9.27304C66.6209 8.86355 67.4126 8.65881 68.3078 8.65881C69.2589 8.65881 70.0674 8.88319 70.7332 9.33194C71.399 9.78068 71.8913 10.4117 72.2102 11.2251C72.5291 12.0385 72.641 12.9948 72.5459 14.0943H70.2884V13.2529C70.2884 12.3273 70.1401 11.6626 69.8436 11.2588C69.5527 10.8493 69.0743 10.6445 68.4085 10.6445C67.6308 10.6445 67.0573 10.8829 66.6881 11.3597C66.3244 11.8309 66.1426 12.5293 66.1426 13.4548C66.1426 14.3018 66.3244 14.9581 66.6881 15.4237C67.0573 15.8837 67.5972 16.1136 68.3078 16.1136C68.7554 16.1136 69.1386 16.0155 69.4575 15.8192C69.7765 15.6228 70.0198 15.3396 70.1877 14.9693L72.4704 15.6256C72.1291 16.4558 71.5892 17.1009 70.8507 17.5609C70.1177 18.0208 69.3149 18.2508 68.4421 18.2508ZM65.4376 14.0943V12.3946H71.4465V14.0943H65.4376Z"
    fill="#121217"/>
  <path d="M55.9878 17.9984V5.88217H58.2705V15.8612H63.4737V17.9984H55.9878Z" fill="#121217"/>
  <path
    d="M50.0471 18.2508C49.1351 18.2508 48.335 18.0461 47.6468 17.6366C46.9587 17.2271 46.4216 16.6634 46.0355 15.9454C45.6551 15.2218 45.4648 14.3916 45.4648 13.4548C45.4648 12.5068 45.6607 11.6738 46.0523 10.9558C46.4439 10.2322 46.9839 9.6685 47.672 9.26462C48.3602 8.86075 49.1519 8.65881 50.0471 8.65881C50.959 8.65881 51.7591 8.86355 52.4473 9.27304C53.141 9.68252 53.6809 10.2491 54.067 10.9727C54.453 11.6907 54.646 12.5181 54.646 13.4548C54.646 14.3972 54.4502 15.2302 54.0586 15.9538C53.6725 16.6718 53.1326 17.2355 52.4389 17.645C51.7507 18.0489 50.9534 18.2508 50.0471 18.2508ZM50.0471 16.1136C50.78 16.1136 51.3255 15.8668 51.6836 15.3732C52.0472 14.874 52.2291 14.2345 52.2291 13.4548C52.2291 12.6471 52.0444 12.002 51.6752 11.5196C51.3115 11.0372 50.7688 10.796 50.0471 10.796C49.5491 10.796 49.1407 10.9082 48.8218 11.1325C48.5029 11.3569 48.2651 11.6682 48.1084 12.0665C47.9574 12.4648 47.8818 12.9275 47.8818 13.4548C47.8818 14.2682 48.0637 14.9161 48.4273 15.3985C48.7966 15.8753 49.3365 16.1136 50.0471 16.1136Z"
    fill="#121217"/>
  <path
    d="M39.8862 17.9984V8.91121H41.9004V11.1325L41.6822 10.8464C41.7997 10.5323 41.9563 10.2462 42.1522 9.98821C42.348 9.73018 42.5886 9.51702 42.8739 9.34874C43.0921 9.21412 43.3299 9.11034 43.5872 9.03742C43.8446 8.95889 44.1104 8.91121 44.3845 8.89438C44.6587 8.87195 44.9328 8.87755 45.207 8.91121V11.0484C44.9552 10.9698 44.6615 10.9446 44.3258 10.9726C43.9957 10.9951 43.6963 11.0708 43.4278 11.1998C43.1592 11.3232 42.9326 11.4887 42.748 11.6963C42.5634 11.8982 42.4235 12.1394 42.3284 12.4199C42.2333 12.6947 42.1857 13.006 42.1857 13.3538V17.9984H39.8862Z"
    fill="#121217"/>
  <path
    d="M34.5588 18.2508C33.63 18.2508 32.8104 18.0517 32.0998 17.6534C31.3949 17.2495 30.841 16.697 30.4381 15.9959C30.0409 15.2891 29.8423 14.4813 29.8423 13.5726C29.8423 12.5798 30.0381 11.7159 30.4297 10.9811C30.8214 10.2463 31.3613 9.67691 32.0495 9.27304C32.7376 8.86355 33.5293 8.65881 34.4245 8.65881C35.3756 8.65881 36.1841 8.88319 36.8499 9.33194C37.5157 9.78068 38.008 10.4117 38.3269 11.2251C38.6458 12.0385 38.7577 12.9948 38.6626 14.0943H36.4051V13.2529C36.4051 12.3273 36.2568 11.6626 35.9603 11.2588C35.6694 10.8493 35.191 10.6445 34.5252 10.6445C33.7475 10.6445 33.174 10.8829 32.8048 11.3597C32.4411 11.8309 32.2593 12.5293 32.2593 13.4548C32.2593 14.3018 32.4411 14.9581 32.8048 15.4237C33.174 15.8837 33.7139 16.1136 34.4245 16.1136C34.8721 16.1136 35.2553 16.0155 35.5742 15.8192C35.8932 15.6228 36.1365 15.3396 36.3044 14.9693L38.5871 15.6256C38.2458 16.4558 37.7059 17.1009 36.9674 17.5609C36.2344 18.0208 35.4316 18.2508 34.5588 18.2508ZM31.5543 14.0943V12.3946H37.5632V14.0943H31.5543Z"
    fill="#121217"/>
  <path
    d="M19.2734 17.9984V17.7123L25.0138 8.01934H19.777V5.88217H29.0085V6.16825L23.3018 15.8444H28.8407V17.9984H19.2734Z"
    fill="#121217"/>
  <path fill-rule="evenodd" clip-rule="evenodd"
        d="M4.0203 15.4571L10.1557 6.67213C10.7 5.89285 11.7713 5.70346 12.5485 6.24912C13.3258 6.79478 13.5147 7.86886 12.9705 8.64814L6.83505 17.4331C6.2908 18.2124 5.21949 18.4018 4.44222 17.8561C3.66495 17.3104 3.47605 16.2364 4.0203 15.4571ZM13.7984 4.45954C15.5615 5.69726 15.9899 8.13358 14.7554 9.90122L8.62001 18.6862C7.38549 20.4538 4.95546 20.8834 3.19238 19.6457C1.4293 18.408 1.00082 15.9716 2.23534 14.204L8.37076 5.41906C9.60528 3.65142 12.0353 3.22183 13.7984 4.45954Z"
        fill="#121217"/>
  <path
    d="M103.07 18.3046C101.86 18.3046 100.816 18.0414 99.9366 17.515C99.063 16.9886 98.3882 16.2522 97.9122 15.3058C97.4418 14.3594 97.2066 13.259 97.2066 12.0046C97.2066 10.7502 97.4418 9.64981 97.9122 8.70341C98.3882 7.75701 99.063 7.02061 99.9366 6.49421C100.816 5.96781 101.86 5.70461 103.07 5.70461C104.279 5.70461 105.321 5.96781 106.195 6.49421C107.074 7.02061 107.749 7.75701 108.219 8.70341C108.695 9.64981 108.933 10.7502 108.933 12.0046C108.933 13.259 108.695 14.3594 108.219 15.3058C107.749 16.2522 107.074 16.9886 106.195 17.515C105.321 18.0414 104.279 18.3046 103.07 18.3046ZM103.07 16.1542C103.837 16.1654 104.475 16.0002 104.985 15.6586C105.495 15.317 105.875 14.8326 106.127 14.2054C106.385 13.5782 106.514 12.8446 106.514 12.0046C106.514 11.1646 106.385 10.4366 106.127 9.82061C105.875 9.20461 105.495 8.72581 104.985 8.38421C104.475 8.04261 103.837 7.86621 103.07 7.85501C102.303 7.84381 101.664 8.00901 101.155 8.35061C100.645 8.69221 100.261 9.17661 100.004 9.80381C99.7518 10.431 99.6258 11.1646 99.6258 12.0046C99.6258 12.8446 99.7518 13.5726 100.004 14.1886C100.261 14.8046 100.645 15.2834 101.155 15.625C101.664 15.9666 102.303 16.143 103.07 16.1542ZM116.792 18.0526V13.7686C116.792 13.5614 116.781 13.2982 116.759 12.979C116.736 12.6542 116.666 12.3294 116.549 12.0046C116.431 11.6798 116.238 11.4082 115.969 11.1898C115.706 10.9714 115.331 10.8622 114.843 10.8622C114.647 10.8622 114.437 10.893 114.213 10.9546C113.989 11.0162 113.779 11.1366 113.583 11.3158C113.387 11.4894 113.225 11.747 113.096 12.0886C112.973 12.4302 112.911 12.8838 112.911 13.4494L111.601 12.8278C111.601 12.111 111.747 11.439 112.038 10.8118C112.329 10.1846 112.766 9.67781 113.348 9.29141C113.936 8.90501 114.675 8.71181 115.566 8.71181C116.277 8.71181 116.857 8.83221 117.305 9.07301C117.753 9.31381 118.1 9.61901 118.346 9.98861C118.598 10.3582 118.777 10.7446 118.884 11.1478C118.99 11.5454 119.055 11.9094 119.077 12.2398C119.099 12.5702 119.111 12.811 119.111 12.9622V18.0526H116.792ZM110.593 18.0526V8.98061H112.626V11.9878H112.911V18.0526H110.593ZM125.343 18.3046C124.413 18.3046 123.593 18.1058 122.882 17.7082C122.176 17.305 121.622 16.7534 121.219 16.0534C120.821 15.3478 120.622 14.5414 120.622 13.6342C120.622 12.643 120.818 11.7806 121.21 11.047C121.602 10.3134 122.143 9.74501 122.831 9.34181C123.52 8.93301 124.313 8.72861 125.209 8.72861C126.161 8.72861 126.97 8.95261 127.636 9.40061C128.303 9.84861 128.796 10.4786 129.115 11.2906C129.434 12.1026 129.546 13.0574 129.451 14.155H127.191V13.315C127.191 12.391 127.043 11.7274 126.746 11.3242C126.455 10.9154 125.976 10.711 125.309 10.711C124.531 10.711 123.957 10.949 123.587 11.425C123.223 11.8954 123.041 12.5926 123.041 13.5166C123.041 14.3622 123.223 15.0174 123.587 15.4822C123.957 15.9414 124.497 16.171 125.209 16.171C125.657 16.171 126.04 16.073 126.359 15.877C126.679 15.681 126.922 15.3982 127.09 15.0286L129.375 15.6838C129.034 16.5126 128.493 17.1566 127.754 17.6158C127.02 18.075 126.217 18.3046 125.343 18.3046ZM122.336 14.155V12.4582H128.35V14.155H122.336Z"
    fill="#121217"/>
</svg>
