<svg width="24" height="24" viewBox="0 0 24 24" fill="none" xmlns="http://www.w3.org/2000/svg">
  <rect width="24" height="24" rx="12" fill="#282833"/>
  <path fill-rule="evenodd" clip-rule="evenodd"
        d="M8.61437 14.5782L13.2608 7.94235C13.673 7.3537 14.4843 7.21064 15.073 7.62282C15.6616 8.03499 15.8047 8.84631 15.3925 9.43496L10.746 16.0708C10.3339 16.6595 9.52254 16.8025 8.9339 16.3903C8.34525 15.9782 8.20219 15.1668 8.61437 14.5782ZM16.0195 6.27103C17.3547 7.20596 17.6792 9.04627 16.7443 10.3815L12.0978 17.0173C11.1629 18.3526 9.32258 18.6771 7.98737 17.7421C6.65215 16.8072 6.32766 14.9669 7.26258 13.6317L11.9091 6.99582C12.844 5.6606 14.6843 5.3361 16.0195 6.27103Z"
        fill="#F7F7F8"/>
</svg>
