<svg width="20" height="20" viewBox="0 0 20 20" fill="none" xmlns="http://www.w3.org/2000/svg">
  <path
    d="M17.8507 13.8333C17.5264 13.5 17.119 13.3333 16.645 13.3333H10.9953C10.8823 13.3333 10.7701 13.3142 10.6635 13.2767L9.48049 12.8606C9.26752 12.7857 9.15547 12.5524 9.2301 12.3393C9.30637 12.1216 9.54744 12.01 9.76282 12.0926L10.6516 12.4336C10.7659 12.4775 10.8873 12.5 11.0098 12.5H13.1527C13.4437 12.5 13.6766 12.3833 13.8678 12.1916C14.0591 12 14.1505 11.7666 14.1505 11.5083C14.1505 11.0583 13.9343 10.75 13.502 10.575L7.45696 8.33331H6.83554C6.28326 8.33331 5.83554 8.78103 5.83554 9.33331V15.0257C5.83554 15.4969 6.16447 15.9041 6.62511 16.0033L11.3858 17.028C11.5542 17.0643 11.7291 17.0564 11.8936 17.0052L17.644 15.2145C18.0554 15.0864 18.3694 14.6894 18.1829 14.301C18.103 14.1345 17.9918 13.9784 17.8507 13.8333ZM4.17255 9.33331C4.17255 8.78103 3.72483 8.33331 3.17255 8.33331H1.83325C1.28097 8.33331 0.833252 8.78103 0.833252 9.33331V16.5C0.833252 17.0523 1.28097 17.5 1.83325 17.5H3.17255C3.72483 17.5 4.17255 17.0523 4.17255 16.5V9.33331Z"
    fill="#8D8D8D"/>
  <path
    d="M17.4999 5.83333C17.4999 7.67333 16.0066 9.16667 14.1666 9.16667C12.3266 9.16667 10.8333 7.67333 10.8333 5.83333C10.8333 3.99333 12.3266 2.5 14.1666 2.5C16.0066 2.5 17.4999 3.99333 17.4999 5.83333Z"
    fill="#8D8D8D"/>
</svg>
