<svg width="20" height="20" viewBox="0 0 20 20" fill="none" xmlns="http://www.w3.org/2000/svg">
  <path
    d="M8.56419 13.7625C8.56836 13.6708 8.72003 13.6342 8.76419 13.7142C8.97586 14.0892 9.33586 14.64 9.74503 14.8908C10.1534 15.1408 10.8075 15.2125 11.2375 15.2308C11.3292 15.235 11.3659 15.3858 11.2859 15.4308C10.9109 15.6425 10.36 16.0025 10.1092 16.4108C9.85919 16.8192 9.78753 17.4742 9.76919 17.9042C9.76503 17.9958 9.61336 18.0317 9.56919 17.9517C9.35753 17.5767 8.99753 17.0267 8.58919 16.7758C8.18086 16.525 7.52586 16.4542 7.09586 16.4358C7.00419 16.4317 6.96836 16.28 7.04836 16.2358C7.42336 16.0242 7.97336 15.6642 8.22419 15.255C8.47503 14.8467 8.54586 14.1917 8.56419 13.7625ZM15.41 12.9292C15.4034 12.8375 15.2434 12.7992 15.1959 12.8775C15.0525 13.1133 14.845 13.3967 14.615 13.5383C14.385 13.68 14.0375 13.735 13.7625 13.7567C13.6709 13.7633 13.6334 13.9233 13.7109 13.9708C13.9467 14.1142 14.2309 14.3208 14.3717 14.5517C14.5134 14.7817 14.5692 15.1292 14.59 15.4042C14.5975 15.4958 14.7567 15.5333 14.805 15.455C14.9484 15.22 15.155 14.9358 15.3859 14.795C15.6159 14.6533 15.9625 14.5975 16.2375 14.5767C16.3292 14.5692 16.3675 14.41 16.2892 14.3617C16.0534 14.2183 15.7692 14.0117 15.6284 13.7808C15.4867 13.5508 15.4317 13.2042 15.41 12.9292ZM12.2534 3.335L12.0517 3.08C11.2709 2.09417 10.8809 1.60084 10.4267 1.67334C9.97253 1.74667 9.75503 2.33667 9.32086 3.5175L9.20919 3.8225C9.08503 4.15834 9.02336 4.32584 8.90586 4.44917C8.78669 4.5725 8.62586 4.63667 8.30253 4.76584L8.00836 4.88334L7.80169 4.96667C6.80169 5.36667 6.29836 5.59417 6.23419 6.03584C6.16586 6.50667 6.64253 6.91 7.59586 7.71584L7.84253 7.92417C8.11336 8.15334 8.24919 8.26834 8.32586 8.42417C8.40419 8.58 8.41503 8.76 8.43753 9.12L8.45753 9.4475C8.53503 10.7142 8.57419 11.3475 8.98586 11.5658C9.39753 11.7842 9.90919 11.4433 10.9325 10.7608L11.1975 10.5842C11.4892 10.39 11.6342 10.2925 11.8 10.2667C11.9667 10.24 12.135 10.2867 12.4717 10.38L12.7784 10.465C13.9634 10.7933 14.5559 10.9575 14.8784 10.6217C15.2017 10.2858 15.0417 9.67167 14.72 8.44417L14.6375 8.12667C14.5459 7.7775 14.5009 7.60334 14.5259 7.43084C14.5509 7.25834 14.6442 7.10667 14.83 6.80417L14.9992 6.52917C15.6542 5.46584 15.9817 4.93417 15.7692 4.5075C15.5575 4.0825 14.9467 4.04334 13.7242 3.9675L13.4084 3.9475C13.0609 3.92584 12.8875 3.915 12.7367 3.835C12.5867 3.755 12.475 3.615 12.2534 3.335ZM7.36253 11.105C5.58169 11.975 4.09919 13.3533 3.54003 15C2.91336 11.0775 3.78336 8.54417 5.17753 6.96917C5.29753 7.215 5.45419 7.41834 5.59419 7.5775C5.88586 7.9075 6.30419 8.26084 6.72919 8.62L7.03503 8.87834L7.17669 8.99917C7.18086 9.0525 7.18503 9.11584 7.18919 9.19667L7.21419 9.60084C7.24753 10.1467 7.28086 10.6792 7.36253 11.105Z"
    fill="#8D8D8D"/>
</svg>
