<svg width="20" height="20" viewBox="0 0 20 20" fill="none" xmlns="http://www.w3.org/2000/svg">
  <path
    d="M9.58341 15H10.4167M1.66675 10V7.08333C1.66675 5.91333 1.66675 5.3275 1.94758 4.9075C2.06921 4.72544 2.22552 4.56913 2.40758 4.4475C2.82758 4.16667 3.41341 4.16667 4.58341 4.16667M18.3334 10V7.08333C18.3334 5.91333 18.3334 5.3275 18.0526 4.9075C17.931 4.72544 17.7746 4.56913 17.5926 4.4475C17.1726 4.16667 16.5867 4.16667 15.4167 4.16667"
    stroke="#8D8D8D" stroke-width="1.5" stroke-linecap="round" stroke-linejoin="round"/>
  <path
    d="M4.96692 18.1928C4.7793 18.2862 4.68466 18.3333 4.58341 18.3333C4.48217 18.3333 4.38753 18.2862 4.19991 18.1928L4.19758 18.1917L2.67675 17.435L2.67358 17.4334C2.00236 17.0986 1.66675 16.9312 1.66675 16.6667V13.3333C1.66675 13.0687 2.00236 12.9013 2.67358 12.5666L2.67675 12.565L4.19758 11.8083L4.19991 11.8072C4.38753 11.7138 4.48217 11.6667 4.58341 11.6667C4.68468 11.6667 4.77782 11.713 4.96247 11.8049L4.96925 11.8083L6.49008 12.565C7.16341 12.9 7.50008 13.0683 7.50008 13.3333V16.6667C7.50008 16.9312 7.16447 17.0986 6.49325 17.4334L6.49008 17.435L4.96925 18.1917L4.96692 18.1928Z"
    fill="#8D8D8D"/>
  <path
    d="M15.8002 18.1929C15.6126 18.2863 15.5179 18.3334 15.4167 18.3334C15.3154 18.3334 15.2208 18.2863 15.0332 18.1929L15.0308 18.1917L13.51 17.4351L13.5068 17.4335C12.8356 17.0987 12.5 16.9313 12.5 16.6667V13.3334C12.5 13.0688 12.8356 12.9014 13.5068 12.5667L13.51 12.5651L15.0308 11.8084L15.0332 11.8073C15.2208 11.7139 15.3154 11.6667 15.4167 11.6667C15.5179 11.6667 15.6111 11.7131 15.7957 11.805L15.8025 11.8084L17.3233 12.5651C17.9967 12.9001 18.3333 13.0684 18.3333 13.3334V16.6667C18.3333 16.9313 17.9977 17.0987 17.3265 17.4335L17.3233 17.4351L15.8025 18.1917L15.8002 18.1929Z"
    fill="#8D8D8D"/>
  <path
    d="M10.3002 7.52616C10.1126 7.61956 10.0179 7.66667 9.91667 7.66667C9.81542 7.66667 9.72078 7.61956 9.53316 7.52616L9.53083 7.525L8.01 6.76833L8.00684 6.76675C7.33561 6.43197 7 6.26458 7 6V2.66667C7 2.40208 7.33561 2.23469 8.00683 1.89991L8.01 1.89833L9.53083 1.14167L9.53316 1.14051C9.72078 1.04711 9.81542 1 9.91667 1C10.0179 1 10.1111 1.04637 10.2957 1.13829L10.3025 1.14167L11.8233 1.89833C12.4967 2.23333 12.8333 2.40167 12.8333 2.66667V6C12.8333 6.26458 12.4977 6.43197 11.8265 6.76675L11.8233 6.76833L10.3025 7.525L10.3002 7.52616Z"
    fill="#8D8D8D"/>
</svg>
