<svg width="20" height="20" viewBox="0 0 20 20" fill="none" xmlns="http://www.w3.org/2000/svg">
  <path
    d="M10.0001 1.66666C5.39758 1.66666 1.66675 5.39749 1.66675 9.99999C1.66675 14.6025 5.39758 18.3333 10.0001 18.3333C14.6026 18.3333 18.3334 14.6025 18.3334 9.99999C18.3334 5.39749 14.6026 1.66666 10.0001 1.66666ZM14.1667 10.3333C14.1667 10.6095 13.9429 10.8333 13.6667 10.8333H11.3334C11.0573 10.8333 10.8334 11.0572 10.8334 11.3333V13.6667C10.8334 13.9428 10.6096 14.1667 10.3334 14.1667H9.66675C9.3906 14.1667 9.16675 13.9428 9.16675 13.6667V11.3333C9.16675 11.0572 8.94289 10.8333 8.66675 10.8333H6.33341C6.05727 10.8333 5.83341 10.6095 5.83341 10.3333V9.66666C5.83341 9.39051 6.05727 9.16666 6.33341 9.16666H8.66675C8.94289 9.16666 9.16675 8.9428 9.16675 8.66666V6.33332C9.16675 6.05718 9.39061 5.83332 9.66675 5.83332H10.3334C10.6096 5.83332 10.8334 6.05718 10.8334 6.33332V8.66666C10.8334 8.9428 11.0573 9.16666 11.3334 9.16666H13.6667C13.9429 9.16666 14.1667 9.39051 14.1667 9.66666V10.3333Z"
    fill="#8D8D8D"/>
</svg>
