<svg width="20" height="20" viewBox="0 0 20 20" fill="none" xmlns="http://www.w3.org/2000/svg">
  <rect x="2" y="2" width="16" height="16" rx="8" fill="#8D8D8D"/>
  <path fill-rule="evenodd" clip-rule="evenodd"
        d="M7.43889 11.753L10.8555 6.87364C11.1585 6.44081 11.7551 6.33562 12.1879 6.63869C12.6208 6.94176 12.726 7.53833 12.4229 7.97117L9.00632 12.8505C8.70324 13.2834 8.10667 13.3886 7.67384 13.0855C7.24101 12.7824 7.13582 12.1859 7.43889 11.753ZM12.8839 5.64471C13.8657 6.33217 14.1043 7.68537 13.4169 8.66716L10.0003 13.5465C9.31283 14.5283 7.95964 14.7669 6.97785 14.0795C5.99606 13.392 5.75746 12.0388 6.44491 11.057L9.86149 6.17765C10.5489 5.19586 11.9021 4.95726 12.8839 5.64471Z"
        fill="#121217"/>
</svg>
