<svg width="20" height="20" viewBox="0 0 20 20" fill="none" xmlns="http://www.w3.org/2000/svg">
  <path
    d="M5.63616 10.7272H2.72704C2.29067 10.7272 1.99976 11.0181 1.99976 11.4545V17.2727C1.99976 17.7091 2.29067 18 2.72704 18H5.63616C6.07252 18 6.36344 17.7091 6.36344 17.2727V11.4545C6.36344 11.0181 6.07252 10.7272 5.63616 10.7272ZM17.2726 7.81809H14.3635C13.9271 7.81809 13.6362 8.109 13.6362 8.54537V17.2727C13.6362 17.7091 13.9271 18 14.3635 18H17.2726C17.709 18 17.9999 17.7091 17.9999 17.2727V8.54537C17.9999 8.109 17.709 7.81809 17.2726 7.81809ZM11.4544 1.99985H8.54528C8.10891 1.99985 7.818 2.29076 7.818 2.72713V17.2727C7.818 17.7091 8.10891 18 8.54528 18H11.4544C11.8908 18 12.1817 17.7091 12.1817 17.2727V2.72713C12.1817 2.29076 11.8908 1.99985 11.4544 1.99985Z"
    fill="#8D8D8D"/>
</svg>
