<svg width="20" height="20" viewBox="0 0 20 20" fill="none" xmlns="http://www.w3.org/2000/svg">
  <path
    d="M18.3334 6.80168V6.86251C18.3334 7.57918 18.3334 7.93835 18.1609 8.23168C17.9884 8.52501 17.6742 8.69918 17.0476 9.04835L16.3867 9.41501C16.8417 7.87501 16.9942 6.22001 17.0501 4.80501L17.0584 4.62085L17.0601 4.57751C17.6026 4.76585 17.9076 4.90668 18.0976 5.17001C18.3334 5.49751 18.3334 5.93251 18.3334 6.80168ZM1.66675 6.80168V6.86251C1.66675 7.57918 1.66675 7.93835 1.83925 8.23168C2.01175 8.52501 2.32591 8.69918 2.95258 9.04835L3.61425 9.41501C3.15841 7.87501 3.00591 6.22001 2.95008 4.80501L2.94175 4.62085L2.94091 4.57751C2.39758 4.76585 2.09258 4.90668 1.90258 5.17001C1.66675 5.49751 1.66675 5.93335 1.66675 6.80168Z"
    fill="#8D8D8D"/>
  <path fill-rule="evenodd" clip-rule="evenodd"
        d="M9.9999 1.66667C11.4866 1.66667 12.7107 1.7975 13.6474 1.95584C14.5966 2.11584 15.0707 2.19584 15.4674 2.68417C15.8641 3.1725 15.8424 3.7 15.8007 4.755C15.6574 8.37917 14.8757 12.905 10.6249 13.305V16.25H11.8166C12.0091 16.2501 12.1957 16.3169 12.3446 16.4391C12.4935 16.5612 12.5955 16.7312 12.6332 16.92L12.7916 17.7083H14.9999C15.1657 17.7083 15.3246 17.7742 15.4418 17.8914C15.559 18.0086 15.6249 18.1676 15.6249 18.3333C15.6249 18.4991 15.559 18.6581 15.4418 18.7753C15.3246 18.8925 15.1657 18.9583 14.9999 18.9583H4.9999C4.83414 18.9583 4.67516 18.8925 4.55795 18.7753C4.44074 18.6581 4.3749 18.4991 4.3749 18.3333C4.3749 18.1676 4.44074 18.0086 4.55795 17.8914C4.67516 17.7742 4.83414 17.7083 4.9999 17.7083H7.20823L7.36656 16.92C7.40431 16.7312 7.50629 16.5612 7.65518 16.4391C7.80406 16.3169 7.99065 16.2501 8.18323 16.25H9.3749V13.305C5.1249 12.905 4.34323 8.37834 4.1999 4.755C4.1574 3.7 4.13656 3.17167 4.53323 2.68417C4.92906 2.19584 5.40323 2.11584 6.3524 1.95584C7.55808 1.75823 8.77814 1.66151 9.9999 1.66667ZM10.7932 5.16584L10.7116 5.01917C10.3949 4.45 10.2366 4.16667 9.9999 4.16667C9.76323 4.16667 9.6049 4.45 9.28823 5.01917L9.20656 5.16584C9.11656 5.3275 9.07156 5.4075 9.00156 5.46084C8.93073 5.51417 8.84323 5.53417 8.66823 5.57334L8.5099 5.61C7.8949 5.74917 7.5874 5.81834 7.51406 6.05334C7.44073 6.28917 7.65073 6.53417 8.0699 7.02417L8.17823 7.15084C8.2974 7.29 8.3574 7.35917 8.38406 7.44584C8.41073 7.5325 8.40156 7.625 8.38406 7.81084L8.3674 7.98C8.30406 8.63417 8.2724 8.96167 8.46323 9.10667C8.6549 9.25167 8.94323 9.11917 9.51906 8.85417L9.6674 8.78584C9.83156 8.71084 9.91323 8.67334 9.9999 8.67334C10.0866 8.67334 10.1682 8.71084 10.3324 8.78584L10.4807 8.85417C11.0566 9.12 11.3449 9.25167 11.5366 9.10667C11.7282 8.96167 11.6957 8.63417 11.6324 7.98L11.6157 7.81084C11.5982 7.625 11.5891 7.5325 11.6157 7.44584C11.6424 7.36 11.7024 7.29 11.8216 7.15084L11.9299 7.02417C12.3491 6.53417 12.5591 6.28917 12.4857 6.05334C12.4124 5.81834 12.1049 5.74917 11.4899 5.61L11.3316 5.57334C11.1566 5.53417 11.0691 5.515 10.9982 5.46084C10.9282 5.4075 10.8832 5.3275 10.7932 5.16584Z"
        fill="#8D8D8D"/>
</svg>
