<svg width="20" height="20" viewBox="0 0 20 20" fill="none" xmlns="http://www.w3.org/2000/svg">
  <path
    d="M16.6666 15C16.6666 16.8417 13.6816 18.3334 9.99992 18.3334C6.31825 18.3334 3.33325 16.8417 3.33325 15V11.645C3.75159 12.1592 4.34575 12.5859 5.00659 12.9159C6.31659 13.5709 8.08325 13.9584 9.99992 13.9584C11.9166 13.9584 13.6833 13.5709 14.9933 12.9167C15.6541 12.5859 16.2483 12.1584 16.6666 11.645V15Z"
    fill="#8D8D8D"/>
  <path
    d="M9.99992 8.95835C11.9166 8.95835 13.6833 8.57085 14.9933 7.91669C15.6541 7.58585 16.2483 7.15835 16.6666 6.64502V10C16.6666 10.4167 15.1783 11.3259 14.4341 11.7984C13.3316 12.3492 11.7649 12.7084 9.99992 12.7084C8.23492 12.7084 6.66825 12.35 5.56575 11.7984C4.58325 11.3067 3.33325 10.4167 3.33325 10V6.64502C3.75159 7.15919 4.34575 7.58585 5.00659 7.91585C6.31659 8.57085 8.08325 8.95835 9.99992 8.95835Z"
    fill="#8D8D8D"/>
  <path
    d="M14.4342 6.79835C13.3317 7.34919 11.765 7.70835 10 7.70835C8.23502 7.70835 6.66835 7.35002 5.56585 6.79835C5.13668 6.63002 4.17168 6.09585 3.50168 5.23252C3.44512 5.16001 3.40396 5.0767 3.38075 4.98771C3.35753 4.89872 3.35275 4.80593 3.36668 4.71502C3.38585 4.59169 3.41252 4.46419 3.44668 4.38502C4.02335 2.83835 6.73835 1.66669 10 1.66669C13.2617 1.66669 15.9767 2.83835 16.5534 4.38502C16.5875 4.46419 16.6142 4.59169 16.6334 4.71502C16.6473 4.80593 16.6425 4.89872 16.6193 4.98771C16.5961 5.0767 16.5549 5.16001 16.4984 5.23252C15.8284 6.09585 14.8634 6.63002 14.4342 6.79835Z"
    fill="#8D8D8D"/>
</svg>
