<svg width="96" height="20" viewBox="0 0 96 20" fill="none" xmlns="http://www.w3.org/2000/svg">
  <path
    d="M87.0351 16.1982C86.2015 16.1982 85.4713 15.9879 84.8447 15.5672C84.2181 15.1465 83.7285 14.5743 83.376 13.8507C83.0291 13.1271 82.8557 12.3109 82.8557 11.4022C82.8557 10.4767 83.032 9.65491 83.3844 8.93691C83.7425 8.2133 84.2432 7.64395 84.8867 7.22886C85.5301 6.81377 86.2854 6.60622 87.1526 6.60622C88.0142 6.60622 88.7387 6.81657 89.3262 7.23727C89.9137 7.65798 90.3585 8.23013 90.6606 8.95374C90.9627 9.67734 91.1138 10.4935 91.1138 11.4022C91.1138 12.3109 90.9599 13.1271 90.6522 13.8507C90.3501 14.5743 89.8969 15.1465 89.2926 15.5672C88.6884 15.9879 87.9359 16.1982 87.0351 16.1982ZM87.4044 14.162C87.9135 14.162 88.3191 14.047 88.6212 13.817C88.929 13.5871 89.15 13.2645 89.2842 12.8494C89.4185 12.4343 89.4856 11.9519 89.4856 11.4022C89.4856 10.8525 89.4185 10.3701 89.2842 9.95501C89.15 9.53992 88.9346 9.21738 88.638 8.98739C88.3471 8.75741 87.9638 8.64242 87.4883 8.64242C86.9791 8.64242 86.5595 8.76863 86.2294 9.02105C85.9049 9.26786 85.6643 9.60162 85.5077 10.0223C85.351 10.4374 85.2727 10.8974 85.2727 11.4022C85.2727 11.9127 85.3482 12.3783 85.4993 12.799C85.6504 13.214 85.8825 13.545 86.1959 13.7918C86.5092 14.0386 86.912 14.162 87.4044 14.162ZM89.4856 15.9458V9.71941H89.2003V3.82959H91.4998V15.9458H89.4856Z"
    fill="white"/>
  <path
    d="M79.7006 15.9458V11.6546C79.7006 11.4471 79.6894 11.1834 79.667 10.8637C79.6447 10.5383 79.5747 10.213 79.4572 9.88766C79.3397 9.56231 79.1467 9.29026 78.8782 9.0715C78.6152 8.85273 78.2404 8.74335 77.7536 8.74335C77.5578 8.74335 77.348 8.7742 77.1242 8.8359C76.9004 8.89761 76.6906 9.01821 76.4947 9.19771C76.2989 9.3716 76.1367 9.62963 76.008 9.9718C75.8849 10.314 75.8234 10.7683 75.8234 11.3349L74.5142 10.7122C74.5142 9.99424 74.6596 9.32111 74.9506 8.69286C75.2415 8.06462 75.6779 7.55697 76.2598 7.16992C76.8472 6.78288 77.5857 6.58936 78.4753 6.58936C79.1859 6.58936 79.765 6.70996 80.2125 6.95116C80.6601 7.19236 81.007 7.49807 81.2532 7.86829C81.505 8.23851 81.684 8.62555 81.7903 9.02943C81.8966 9.42769 81.9609 9.7923 81.9833 10.1233C82.0057 10.4542 82.0169 10.6954 82.0169 10.8469V15.9458H79.7006ZM73.5071 15.9458V6.85861H75.538V9.87083H75.8234V15.9458H73.5071Z"
    fill="white"/>
  <path
    d="M68.4423 16.1982C67.5136 16.1982 66.6939 15.9991 65.9834 15.6008C65.2784 15.1969 64.7245 14.6444 64.3217 13.9432C63.9244 13.2365 63.7258 12.4287 63.7258 11.52C63.7258 10.5271 63.9217 9.6633 64.3133 8.92847C64.7049 8.19365 65.2448 7.6243 65.933 7.22043C66.6212 6.81094 67.4129 6.6062 68.308 6.6062C69.2592 6.6062 70.0676 6.83058 70.7334 7.27932C71.3992 7.72807 71.8916 8.35912 72.2105 9.17248C72.5294 9.98584 72.6413 10.9422 72.5462 12.0417H70.2886V11.2003C70.2886 10.2747 70.1404 9.61001 69.8438 9.20614C69.5529 8.79665 69.0745 8.59191 68.4087 8.59191C67.6311 8.59191 67.0576 8.83031 66.6883 9.30711C66.3247 9.77829 66.1428 10.4767 66.1428 11.4022C66.1428 12.2492 66.3247 12.9055 66.6883 13.3711C67.0576 13.8311 67.5975 14.061 68.308 14.061C68.7556 14.061 69.1389 13.9629 69.4578 13.7665C69.7767 13.5702 70.0201 13.2869 70.1879 12.9167L72.4706 13.573C72.1293 14.4032 71.5894 15.0483 70.8509 15.5083C70.118 15.9682 69.3151 16.1982 68.4423 16.1982ZM65.4379 12.0417V10.342H71.4468V12.0417H65.4379Z"
    fill="white"/>
  <path d="M55.9878 15.9458V3.82959H58.2705V13.8086H63.4737V15.9458H55.9878Z" fill="white"/>
  <path
    d="M50.0468 16.1982C49.1348 16.1982 48.3348 15.9935 47.6466 15.584C46.9584 15.1745 46.4213 14.6108 46.0353 13.8928C45.6548 13.1691 45.4646 12.339 45.4646 11.4022C45.4646 10.4542 45.6604 9.62123 46.0521 8.90323C46.4437 8.17963 46.9836 7.61589 47.6718 7.21201C48.36 6.80814 49.1516 6.6062 50.0468 6.6062C50.9588 6.6062 51.7588 6.81094 52.447 7.22043C53.1408 7.62991 53.6807 8.19645 54.0667 8.92006C54.4528 9.63806 54.6458 10.4654 54.6458 11.4022C54.6458 12.3446 54.45 13.1776 54.0583 13.9012C53.6723 14.6192 53.1324 15.1829 52.4386 15.5924C51.7504 15.9963 50.9532 16.1982 50.0468 16.1982ZM50.0468 14.061C50.7797 14.061 51.3252 13.8142 51.6833 13.3206C52.047 12.8214 52.2288 12.1819 52.2288 11.4022C52.2288 10.5945 52.0442 9.94938 51.6749 9.46697C51.3113 8.98457 50.7685 8.74337 50.0468 8.74337C49.5489 8.74337 49.1404 8.85555 48.8215 9.07993C48.5026 9.3043 48.2648 9.61562 48.1082 10.0139C47.9571 10.4121 47.8816 10.8749 47.8816 11.4022C47.8816 12.2156 48.0634 12.8634 48.4271 13.3458C48.7964 13.8226 49.3363 14.061 50.0468 14.061Z"
    fill="white"/>
  <path
    d="M39.8865 15.9458V6.85866H41.9006V9.07996L41.6824 8.79389C41.7999 8.47976 41.9566 8.19369 42.1524 7.93566C42.3482 7.67763 42.5888 7.46447 42.8741 7.29619C43.0923 7.16157 43.3301 7.05779 43.5875 6.98487C43.8449 6.90634 44.1106 6.85866 44.3848 6.84183C44.6589 6.81939 44.9331 6.825 45.2072 6.85866V8.99582C44.9554 8.91729 44.6617 8.89205 44.326 8.9201C43.9959 8.94254 43.6966 9.01826 43.428 9.14728C43.1595 9.27068 42.9329 9.43616 42.7483 9.64371C42.5636 9.84564 42.4238 10.0868 42.3286 10.3673C42.2335 10.6422 42.186 10.9535 42.186 11.3013V15.9458H39.8865Z"
    fill="white"/>
  <path
    d="M34.559 16.1982C33.6303 16.1982 32.8106 15.9991 32.1001 15.6008C31.3951 15.1969 30.8412 14.6444 30.4384 13.9432C30.0411 13.2365 29.8425 12.4287 29.8425 11.52C29.8425 10.5271 30.0384 9.6633 30.43 8.92847C30.8216 8.19365 31.3615 7.6243 32.0497 7.22043C32.7379 6.81094 33.5296 6.6062 34.4247 6.6062C35.3759 6.6062 36.1843 6.83058 36.8501 7.27932C37.5159 7.72807 38.0083 8.35912 38.3272 9.17248C38.6461 9.98584 38.758 10.9422 38.6629 12.0417H36.4053V11.2003C36.4053 10.2747 36.2571 9.61001 35.9605 9.20614C35.6696 8.79665 35.1912 8.59191 34.5254 8.59191C33.7478 8.59191 33.1743 8.83031 32.805 9.30711C32.4414 9.77829 32.2595 10.4767 32.2595 11.4022C32.2595 12.2492 32.4414 12.9055 32.805 13.3711C33.1743 13.8311 33.7142 14.061 34.4247 14.061C34.8723 14.061 35.2556 13.9629 35.5745 13.7665C35.8934 13.5702 36.1368 13.2869 36.3046 12.9167L38.5873 13.573C38.246 14.4032 37.7061 15.0483 36.9676 15.5083C36.2347 15.9682 35.4318 16.1982 34.559 16.1982ZM31.5546 12.0417V10.342H37.5635V12.0417H31.5546Z"
    fill="white"/>
  <path
    d="M19.2734 15.9458V15.6597L25.0138 5.96675H19.777V3.82959H29.0085V4.11567L23.3018 13.7918H28.8407V15.9458H19.2734Z"
    fill="white"/>
  <path fill-rule="evenodd" clip-rule="evenodd"
        d="M4.0203 13.4044L10.1557 4.61946C10.7 3.84017 11.7713 3.65079 12.5485 4.19645C13.3258 4.7421 13.5147 5.81619 12.9705 6.59547L6.83505 15.3804C6.2908 16.1597 5.21949 16.3491 4.44222 15.8034C3.66495 15.2578 3.47605 14.1837 4.0203 13.4044ZM13.7984 2.40687C15.5615 3.64458 15.9899 6.08091 14.7554 7.84854L8.62001 16.6335C7.38549 18.4011 4.95546 18.8307 3.19238 17.593C1.4293 16.3553 1.00082 13.919 2.23534 12.1513L8.37076 3.36638C9.60528 1.59874 12.0353 1.16916 13.7984 2.40687Z"
        fill="white"/>
</svg>
