<svg width="416" height="173" viewBox="0 0 416 173" fill="none" xmlns="http://www.w3.org/2000/svg">
  <mask id="mask0_2016_23580" style="mask-type:alpha" maskUnits="userSpaceOnUse" x="0" y="0" width="416" height="173">
    <rect width="416" height="173" fill="url(#paint0_radial_2016_23580)"/>
  </mask>
  <g mask="url(#mask0_2016_23580)">
    <rect x="308.339" y="70.1179" width="36.0452" height="35.0567" rx="17.5284" fill="#3B3766"/>
    <path
      d="M331.72 85.1017C332.299 85.1017 332.769 84.6321 332.769 84.0529C332.769 83.4737 332.299 83.0042 331.72 83.0042C331.141 83.0042 330.671 83.4737 330.671 84.0529C330.671 84.6321 331.141 85.1017 331.72 85.1017Z"
      fill="white"/>
    <path
      d="M331.72 91.3943C332.299 91.3943 332.769 90.9247 332.769 90.3455C332.769 89.7663 332.299 89.2968 331.72 89.2968C331.141 89.2968 330.671 89.7663 330.671 90.3455C330.671 90.9247 331.141 91.3943 331.72 91.3943Z"
      fill="white"/>
    <path
      d="M334.447 88.2479C335.026 88.2479 335.496 87.7784 335.496 87.1992C335.496 86.6199 335.026 86.1504 334.447 86.1504C333.868 86.1504 333.398 86.6199 333.398 87.1992C333.398 87.7784 333.868 88.2479 334.447 88.2479Z"
      fill="white"/>
    <path
      d="M320.865 85.1017C321.444 85.1017 321.914 84.6321 321.914 84.0529C321.914 83.4737 321.444 83.0042 320.865 83.0042C320.286 83.0042 319.816 83.4737 319.816 84.0529C319.816 84.6321 320.286 85.1017 320.865 85.1017Z"
      fill="white"/>
    <path
      d="M320.865 91.3943C321.444 91.3943 321.914 90.9247 321.914 90.3455C321.914 89.7663 321.444 89.2968 320.865 89.2968C320.286 89.2968 319.816 89.7663 319.816 90.3455C319.816 90.9247 320.286 91.3943 320.865 91.3943Z"
      fill="white"/>
    <path
      d="M318.139 88.2479C318.718 88.2479 319.187 87.7784 319.187 87.1992C319.187 86.6199 318.718 86.1504 318.139 86.1504C317.559 86.1504 317.09 86.6199 317.09 87.1992C317.09 87.7784 317.559 88.2479 318.139 88.2479Z"
      fill="white"/>
    <path
      d="M330.409 81.1163C330.988 81.1163 331.458 80.6468 331.458 80.0676C331.458 79.4884 330.988 79.0188 330.409 79.0188C329.83 79.0188 329.36 79.4884 329.36 80.0676C329.36 80.6468 329.83 81.1163 330.409 81.1163Z"
      fill="white"/>
    <path
      d="M322.228 81.1163C322.808 81.1163 323.277 80.6468 323.277 80.0676C323.277 79.4884 322.808 79.0188 322.228 79.0188C321.649 79.0188 321.18 79.4884 321.18 80.0676C321.18 80.6468 321.649 81.1163 322.228 81.1163Z"
      fill="white"/>
    <path
      d="M326.371 81.9553C326.951 81.9553 327.42 81.4858 327.42 80.9066C327.42 80.3273 326.951 79.8578 326.371 79.8578C325.792 79.8578 325.323 80.3273 325.323 80.9066C325.323 81.4858 325.792 81.9553 326.371 81.9553Z"
      fill="white"/>
    <path
      d="M330.409 95.5895C330.988 95.5895 331.458 95.1199 331.458 94.5407C331.458 93.9615 330.988 93.4919 330.409 93.4919C329.83 93.4919 329.36 93.9615 329.36 94.5407C329.36 95.1199 329.83 95.5895 330.409 95.5895Z"
      fill="white"/>
    <path
      d="M322.228 95.5895C322.808 95.5895 323.277 95.1199 323.277 94.5407C323.277 93.9615 322.808 93.4919 322.228 93.4919C321.649 93.4919 321.18 93.9615 321.18 94.5407C321.18 95.1199 321.649 95.5895 322.228 95.5895Z"
      fill="white"/>
    <path
      d="M326.371 94.7504C326.951 94.7504 327.42 94.2808 327.42 93.7016C327.42 93.1224 326.951 92.6528 326.371 92.6528C325.792 92.6528 325.323 93.1224 325.323 93.7016C325.323 94.2808 325.792 94.7504 326.371 94.7504Z"
      fill="white"/>
    <path
      d="M328.154 85.3639C328.878 85.3639 329.465 84.7769 329.465 84.0529C329.465 83.3289 328.878 82.7419 328.154 82.7419C327.43 82.7419 326.844 83.3289 326.844 84.0529C326.844 84.7769 327.43 85.3639 328.154 85.3639Z"
      fill="white"/>
    <path
      d="M324.484 85.3639C325.208 85.3639 325.795 84.7769 325.795 84.0529C325.795 83.3289 325.208 82.7419 324.484 82.7419C323.76 82.7419 323.173 83.3289 323.173 84.0529C323.173 84.7769 323.76 85.3639 324.484 85.3639Z"
      fill="white"/>
    <path
      d="M329.99 88.5102C330.714 88.5102 331.301 87.9233 331.301 87.1993C331.301 86.4752 330.714 85.8883 329.99 85.8883C329.266 85.8883 328.679 86.4752 328.679 87.1993C328.679 87.9233 329.266 88.5102 329.99 88.5102Z"
      fill="white"/>
    <path
      d="M322.648 88.5102C323.372 88.5102 323.959 87.9233 323.959 87.1993C323.959 86.4752 323.372 85.8883 322.648 85.8883C321.924 85.8883 321.337 86.4752 321.337 87.1993C321.337 87.9233 321.924 88.5102 322.648 88.5102Z"
      fill="white"/>
    <path
      d="M324.484 91.6565C325.208 91.6565 325.795 91.0695 325.795 90.3455C325.795 89.6215 325.208 89.0345 324.484 89.0345C323.76 89.0345 323.173 89.6215 323.173 90.3455C323.173 91.0695 323.76 91.6565 324.484 91.6565Z"
      fill="white"/>
    <path
      d="M328.154 91.6565C328.878 91.6565 329.465 91.0695 329.465 90.3455C329.465 89.6215 328.878 89.0345 328.154 89.0345C327.43 89.0345 326.844 89.6215 326.844 90.3455C326.844 91.0695 327.43 91.6565 328.154 91.6565Z"
      fill="white"/>
    <path
      d="M326.318 78.1066C325.805 78.1066 325.396 77.6976 325.396 77.1837C325.396 76.6698 325.805 76.2607 326.318 76.2607C326.832 76.2607 327.241 76.6698 327.241 77.1837C327.241 77.6976 326.832 78.1066 326.318 78.1066Z"
      fill="white"/>
    <path
      d="M331.825 78.3896C331.384 78.3896 331.028 78.033 331.028 77.603C331.028 77.173 331.384 76.8164 331.814 76.8164C332.244 76.8164 332.611 77.173 332.611 77.603C332.611 78.033 332.265 78.3896 331.825 78.3896Z"
      fill="white"/>
    <path
      d="M320.813 78.3896C320.383 78.3896 320.026 78.033 320.026 77.603C320.026 77.173 320.372 76.8164 320.813 76.8164H320.823C321.253 76.8164 321.61 77.173 321.61 77.603C321.61 78.033 321.253 78.3896 320.813 78.3896Z"
      fill="white"/>
    <path
      d="M326.318 98.0855C325.805 98.0855 325.396 97.6764 325.396 97.1625C325.396 96.6486 325.805 96.2396 326.318 96.2396C326.832 96.2396 327.241 96.6486 327.241 97.1625C327.241 97.6764 326.832 98.0855 326.318 98.0855Z"
      fill="white"/>
    <path
      d="M331.825 97.5297C331.384 97.5297 331.028 97.1731 331.028 96.7431C331.028 96.3131 331.384 95.9565 331.814 95.9565C332.244 95.9565 332.611 96.3131 332.611 96.7431C332.611 97.1731 332.265 97.5297 331.825 97.5297Z"
      fill="white"/>
    <path
      d="M320.813 97.5297C320.383 97.5297 320.026 97.1731 320.026 96.7431C320.026 96.3131 320.372 95.9565 320.813 95.9565H320.823C321.253 95.9565 321.61 96.3131 321.61 96.7431C321.61 97.1731 321.253 97.5297 320.813 97.5297Z"
      fill="white"/>
    <path
      d="M315.359 88.1222C314.856 88.1222 314.436 87.7132 314.436 87.2098V87.1993C314.436 86.6959 314.845 86.2764 315.359 86.2764C315.873 86.2764 316.282 86.6854 316.282 87.1993C316.282 87.7132 315.862 88.1222 315.359 88.1222Z"
      fill="white"/>
    <path
      d="M317.666 93.2298C317.236 93.2298 316.88 92.8837 316.88 92.4432V92.4327C316.88 92.0027 317.236 91.6461 317.666 91.6461C318.096 91.6461 318.453 92.0027 318.453 92.4327C318.453 92.8627 318.096 93.2298 317.666 93.2298Z"
      fill="white"/>
    <path
      d="M317.666 82.7524C317.236 82.7524 316.88 82.3958 316.88 81.9658C316.88 81.5358 317.236 81.1792 317.666 81.1792C318.096 81.1792 318.453 81.5253 318.453 81.9553V81.9658C318.453 82.3958 318.096 82.7524 317.666 82.7524Z"
      fill="white"/>
    <path
      d="M337.331 88.1222C336.827 88.1222 336.408 87.7132 336.408 87.2098V87.1993C336.408 86.6959 336.817 86.2764 337.331 86.2764C337.845 86.2764 338.254 86.6854 338.254 87.1993C338.254 87.7132 337.834 88.1222 337.331 88.1222Z"
      fill="white"/>
    <path
      d="M335.023 93.2298C334.593 93.2298 334.237 92.8837 334.237 92.4432V92.4327C334.237 92.0027 334.593 91.6461 335.023 91.6461C335.453 91.6461 335.81 92.0027 335.81 92.4327C335.81 92.8627 335.453 93.2298 335.023 93.2298Z"
      fill="white"/>
    <path
      d="M335.023 82.7524C334.593 82.7524 334.237 82.3958 334.237 81.9658C334.237 81.5358 334.593 81.1792 335.023 81.1792C335.453 81.1792 335.81 81.5253 335.81 81.9658V81.9763C335.81 82.3958 335.453 82.7524 335.023 82.7524Z"
      fill="white"/>
    <rect x="293.057" y="132.145" width="36.0452" height="35.0567" rx="17.5284" fill="#3B3766"/>
    <path
      d="M311.037 138.739C305.247 138.739 300.549 143.437 300.549 149.226C300.549 155.016 305.247 159.714 311.037 159.714C316.826 159.714 321.524 155.016 321.524 149.226C321.524 143.437 316.826 138.739 311.037 138.739ZM315.043 153.757C314.948 154.261 314.518 154.617 314.015 154.617H308.205C307.513 154.617 307.009 153.946 307.198 153.285L308.079 150.191L306.286 150.548C306.233 150.558 306.181 150.558 306.128 150.558C305.761 150.558 305.436 150.296 305.363 149.929C305.279 149.499 305.551 149.09 305.981 149.006L308.572 148.492L309.946 143.699C310.009 143.479 310.219 143.322 310.449 143.322H311.876C312.568 143.322 313.071 143.972 312.893 144.643L312.043 147.8L314.068 147.391C314.487 147.307 314.907 147.58 314.99 148.01C315.074 148.44 314.802 148.849 314.372 148.933L311.582 149.489L311.005 151.639H314.183C314.833 151.639 315.326 152.226 315.211 152.876L315.043 153.757Z"
      fill="white"/>
    <rect x="351.488" y="108.773" width="36.0452" height="35.0567" rx="17.5284" fill="#3B3766"/>
    <path
      d="M370.255 128.495H370.496C370.842 128.495 371.136 128.18 371.136 127.792C371.136 127.299 371.02 127.237 370.685 127.121L370.255 126.974V128.495Z"
      fill="white"/>
    <path
      d="M369.468 115.364C363.679 115.364 358.98 120.063 358.98 125.852C358.98 131.641 363.679 136.34 369.468 136.34C375.257 136.34 379.956 131.641 379.956 125.852C379.956 120.063 375.257 115.364 369.468 115.364ZM364.833 130.488C365.137 130.792 365.137 131.295 364.833 131.599C364.675 131.757 364.476 131.83 364.277 131.83C364.077 131.83 363.878 131.757 363.721 131.599C362.19 130.068 361.34 128.023 361.34 125.852C361.34 123.681 362.19 121.636 363.721 120.105C364.025 119.801 364.528 119.801 364.833 120.105C365.137 120.409 365.137 120.912 364.833 121.217C363.595 122.454 362.913 124.101 362.913 125.852C362.913 127.604 363.595 129.25 364.833 130.488ZM371.199 125.621C372.205 125.978 372.698 126.681 372.698 127.782C372.698 129.04 371.713 130.058 370.485 130.058H370.244V130.246C370.244 130.676 369.888 131.033 369.458 131.033C369.028 131.033 368.671 130.676 368.671 130.246V130.058H368.64C367.308 130.058 366.217 128.935 366.217 127.562C366.217 127.132 366.574 126.775 367.004 126.775C367.434 126.775 367.79 127.132 367.79 127.562C367.79 128.075 368.168 128.485 368.64 128.485H368.671V126.408L367.727 126.072C366.72 125.716 366.227 125.013 366.227 123.912C366.227 122.653 367.213 121.636 368.44 121.636H368.682V121.447C368.682 121.017 369.038 120.661 369.468 120.661C369.898 120.661 370.255 121.017 370.255 121.447V121.636H370.286C371.618 121.636 372.709 122.758 372.709 124.132C372.709 124.562 372.352 124.919 371.922 124.919C371.492 124.919 371.136 124.562 371.136 124.132C371.136 123.618 370.758 123.209 370.286 123.209H370.255V125.286L371.199 125.621ZM375.215 131.599C375.058 131.757 374.859 131.83 374.66 131.83C374.46 131.83 374.261 131.757 374.104 131.599C373.8 131.295 373.8 130.792 374.104 130.488C375.341 129.25 376.023 127.604 376.023 125.852C376.023 124.101 375.341 122.454 374.104 121.217C373.8 120.912 373.8 120.409 374.104 120.105C374.408 119.801 374.911 119.801 375.215 120.105C376.747 121.636 377.596 123.681 377.596 125.852C377.596 128.023 376.747 130.068 375.215 131.599Z"
      fill="white"/>
    <path
      d="M367.811 123.923C367.811 124.415 367.926 124.478 368.262 124.594L368.692 124.741V123.209H368.451C368.094 123.209 367.811 123.534 367.811 123.923Z"
      fill="white"/>
    <rect x="351.488" y="22.4738" width="36.0452" height="35.0567" rx="17.5284" fill="#3B3766"/>
    <path
      d="M365.273 49.7786C365.252 49.7786 365.231 49.7786 365.221 49.7786C364.812 49.7472 364.486 49.4116 364.486 48.9921C364.486 48.3943 364.56 47.8384 364.717 47.3245L366.594 34.1939C366.657 33.7639 367.056 33.4702 367.486 33.5227C367.916 33.5856 368.22 33.9841 368.157 34.4141L366.668 44.8075C367.968 44.0209 369.384 44.0104 369.468 44.0104C373.369 44.0104 376.547 40.8326 376.547 36.9312C376.547 33.0297 373.369 29.852 369.468 29.852C365.567 29.852 362.389 33.0297 362.389 36.9312C362.389 38.0848 362.672 39.228 363.207 40.2348C363.406 40.6229 363.259 41.0948 362.882 41.2941C362.494 41.4933 362.022 41.3465 361.823 40.9689C361.172 39.7314 360.826 38.3365 360.826 36.9312C360.826 32.1593 364.707 28.2788 369.479 28.2788C374.25 28.2788 378.131 32.1593 378.131 36.9312C378.131 41.7031 374.25 45.5835 369.479 45.5835C369.384 45.5835 367.161 45.6255 366.364 47.4189C366.332 47.5028 366.29 47.5867 366.269 47.6706L366.07 49.0969C365.997 49.4955 365.661 49.7786 365.273 49.7786Z"
      fill="white"/>
    <path
      d="M371.565 50.0411C371.293 50.0411 371.02 49.9257 370.821 49.7369C370.632 49.5377 370.517 49.265 370.517 48.9923C370.517 48.856 370.548 48.7196 370.601 48.5938C370.653 48.4574 370.726 48.3526 370.821 48.2477C371.114 47.954 371.576 47.8596 371.964 48.0274C372.1 48.0799 372.205 48.1533 372.31 48.2477C372.404 48.3526 372.478 48.4574 372.53 48.5938C372.583 48.7196 372.614 48.856 372.614 48.9923C372.614 49.265 372.499 49.5377 372.31 49.7369C372.205 49.8313 372.1 49.9047 371.964 49.9572C371.838 50.0096 371.702 50.0411 371.565 50.0411Z"
      fill="white"/>
    <path opacity="0.15"
          d="M218.444 157C258.14 157 290.618 125.185 290.618 86.2992C290.618 47.4138 258.14 15.5984 218.444 15.5984C178.749 15.5984 146.271 47.4138 146.271 86.2992C146.271 125.185 178.749 157 218.444 157Z"
          fill="url(#paint1_linear_2016_23580)" stroke="#5A5596" stroke-linecap="round" stroke-linejoin="round"/>
    <path opacity="0.25"
          d="M218.845 142.074C249.94 142.074 275.381 117.152 275.381 86.6922C275.381 56.2319 249.94 31.3098 218.845 31.3098C187.75 31.3098 162.309 56.2319 162.309 86.6922C162.309 117.152 187.75 142.074 218.845 142.074Z"
          fill="url(#paint2_linear_2016_23580)" stroke="#5A5596" stroke-linecap="round" stroke-linejoin="round"/>
    <path opacity="0.25"
          d="M218.845 126.362C241.118 126.362 259.342 108.51 259.342 86.6914C259.342 64.8723 241.118 47.0204 218.845 47.0204C196.571 47.0204 178.347 64.8723 178.347 86.6914C178.347 108.51 196.571 126.362 218.845 126.362Z"
          fill="url(#paint3_linear_2016_23580)" stroke="#5A5596" stroke-linecap="round" stroke-linejoin="round"/>
    <g opacity="0.35" filter="url(#filter0_f_2016_23580)">
      <path
        d="M218.813 115.021C234.812 115.021 247.903 102.262 247.903 86.6675C247.903 71.0728 234.812 58.3135 218.813 58.3135C202.813 58.3135 189.722 71.0728 189.722 86.6675C189.722 102.262 202.813 115.021 218.813 115.021Z"
        fill="white"/>
    </g>
    <rect x="92.5916" y="69.2192" width="36.0452" height="35.0567" rx="17.5284" fill="#3B3766"/>
    <path
      d="M110.204 76.18L104.656 81.728C104.447 81.9377 104.447 82.2628 104.656 82.4726L106.009 83.8255C106.219 84.0353 106.544 84.0353 106.754 83.8255L110.204 80.3751C110.414 80.1653 110.739 80.1653 110.949 80.3751L114.399 83.8255C114.609 84.0353 114.934 84.0353 115.144 83.8255L116.497 82.4726C116.707 82.2628 116.707 81.9377 116.497 81.728L110.949 76.18C110.739 75.9807 110.404 75.9807 110.204 76.18Z"
      fill="white"/>
    <path
      d="M110.204 96.4213L104.656 90.8733C104.447 90.6635 104.447 90.3384 104.656 90.1286L106.009 88.7757C106.219 88.566 106.544 88.566 106.754 88.7757L110.204 92.2262C110.414 92.4359 110.739 92.4359 110.949 92.2262L114.399 88.7757C114.609 88.566 114.934 88.566 115.144 88.7757L116.497 90.1286C116.707 90.3384 116.707 90.6635 116.497 90.8733L110.949 96.4213C110.739 96.6205 110.404 96.6205 110.204 96.4213Z"
      fill="white"/>
    <path
      d="M119.066 84.308L120.681 85.9231C120.891 86.1329 120.891 86.458 120.681 86.6678L119.066 88.2829C118.857 88.4926 118.531 88.4926 118.322 88.2829L116.707 86.6678C116.497 86.458 116.497 86.1329 116.707 85.9231L118.322 84.308C118.531 84.1088 118.867 84.1088 119.066 84.308Z"
      fill="white"/>
    <path
      d="M102.811 84.308L104.426 85.9231C104.636 86.1329 104.636 86.458 104.426 86.6678L102.811 88.2829C102.601 88.4926 102.276 88.4926 102.066 88.2829L100.451 86.6678C100.241 86.458 100.241 86.1329 100.451 85.9231L102.066 84.308C102.276 84.1088 102.611 84.1088 102.811 84.308Z"
      fill="white"/>
    <path
      d="M110.938 84.0771L112.795 85.9334C113.004 86.1432 113.004 86.4683 112.795 86.6781L110.938 88.5344C110.728 88.7441 110.403 88.7441 110.194 88.5344L108.337 86.6781C108.127 86.4683 108.127 86.1432 108.337 85.9334L110.194 84.0771C110.403 83.8674 110.739 83.8674 110.938 84.0771Z"
      fill="white"/>
    <rect x="45.8462" y="22.4738" width="36.0452" height="35.0567" rx="17.5284" fill="#3B3766"/>
    <path
      d="M56.9673 29.0653H55.4885C54.5131 29.0653 54.0202 30.2504 54.7124 30.9426L60.7218 36.9521C62.4418 38.6721 65.2211 38.6721 66.9411 36.9521L72.9506 30.9426C73.6428 30.2504 73.1498 29.0653 72.1745 29.0653H70.6957C69.8252 29.0653 68.9862 29.4114 68.3674 30.0302L64.6128 33.7848C64.1828 34.2148 63.4906 34.2148 63.0607 33.7848L59.306 30.0302C58.6768 29.4114 57.8378 29.0653 56.9673 29.0653Z"
      fill="white"/>
    <path
      d="M56.9673 50.0094H55.4885C54.5131 50.0094 54.0202 48.8243 54.7124 48.1321L60.7218 42.1226C62.4418 40.4026 65.2211 40.4026 66.9411 42.1226L72.9506 48.1321C73.6428 48.8243 73.1498 50.0094 72.1745 50.0094H70.6957C69.8252 50.0094 68.9862 49.6633 68.3674 49.0445L64.6128 45.2899C64.1828 44.8599 63.4906 44.8599 63.0607 45.2899L59.306 49.0445C58.6768 49.6633 57.8378 50.0094 56.9673 50.0094Z"
      fill="white"/>
    <rect x="45.8462" y="107.874" width="36.0452" height="35.0567" rx="17.5284" fill="#3B3766"/>
    <path
      d="M73.6633 124.376L68.9439 121.649C68.7026 121.513 68.3985 121.513 68.1573 121.649L63.4378 124.376C63.4378 124.376 63.4378 124.387 63.4273 124.387L59.1064 126.883L55.1735 124.607V120.066L59.1064 117.79L63.0393 120.066V121.261C63.0393 121.691 63.3959 122.048 63.8259 122.048C64.2558 122.048 64.6124 121.691 64.6124 121.261V119.604C64.6124 119.321 64.4656 119.059 64.2139 118.922L59.4944 116.196C59.2532 116.059 58.9491 116.059 58.7078 116.196L53.9884 118.922C53.7471 119.059 53.5898 119.321 53.5898 119.604V125.058C53.5898 125.341 53.7367 125.603 53.9884 125.739L58.7078 128.466C58.8337 128.54 58.97 128.571 59.1064 128.571C59.2427 128.571 59.3791 128.54 59.5049 128.466L64.2244 125.739C64.2244 125.739 64.2244 125.729 64.2349 125.729L68.5558 123.233L72.4887 125.509V130.05L68.5558 132.326L64.6229 130.05V128.77C64.6229 128.34 64.2663 127.984 63.8363 127.984C63.4063 127.984 63.0498 128.34 63.0498 128.77V130.501C63.0498 130.784 63.1966 131.046 63.4483 131.183L68.1678 133.909C68.2936 133.983 68.43 134.014 68.5663 134.014C68.7026 134.014 68.839 133.983 68.9648 133.909L73.6843 131.183C73.9255 131.046 74.0828 130.784 74.0828 130.501V125.047C74.0514 124.775 73.9046 124.512 73.6633 124.376Z"
      fill="white"/>
    <path
      d="M55.9602 121.125V123.548C55.9602 123.925 56.1595 124.271 56.4846 124.46L58.5821 125.666C58.9073 125.855 59.3058 125.855 59.6309 125.666L61.7285 124.46C62.0536 124.271 62.2528 123.925 62.2528 123.548V121.125C62.2528 120.747 62.0536 120.401 61.7285 120.213L59.6309 119.006C59.3058 118.818 58.9073 118.818 58.5821 119.006L56.4846 120.213C56.1595 120.401 55.9602 120.747 55.9602 121.125Z"
      fill="white"/>
    <path
      d="M65.3992 126.579V129.001C65.3992 129.379 65.5984 129.725 65.9236 129.914L68.0211 131.12C68.3462 131.309 68.7448 131.309 69.0699 131.12L71.1674 129.914C71.4925 129.725 71.6918 129.379 71.6918 129.001V126.579C71.6918 126.201 71.4925 125.855 71.1674 125.666L69.0699 124.46C68.7448 124.271 68.3462 124.271 68.0211 124.46L65.9236 125.666C65.5984 125.855 65.3992 126.201 65.3992 126.579Z"
      fill="white"/>
    <rect x="107.874" y="7.19189" width="36.0452" height="35.0567" rx="17.5284" fill="#3B3766"/>
    <path
      d="M128.894 25.886H128.086H123.188V28.854H124.562H128.894C129.89 28.854 130.708 28.1828 130.708 27.3648C130.708 26.5467 129.89 25.886 128.894 25.886Z"
      fill="white"/>
    <path
      d="M125.779 14.6116C119.99 14.6116 115.292 19.3101 115.292 25.0993C115.292 30.8885 119.99 35.587 125.779 35.587C131.568 35.587 136.267 30.8885 136.267 25.0993C136.267 19.3101 131.568 14.6116 125.779 14.6116ZM128.894 30.4271H127.164V31.9163C127.164 32.3463 126.807 32.7029 126.377 32.7029C125.947 32.7029 125.59 32.3463 125.59 31.9163V30.4271H124.563H124.321V31.9163C124.321 32.3463 123.965 32.7029 123.535 32.7029C123.105 32.7029 122.748 32.3463 122.748 31.9163V30.4271H122.402H120.588C120.158 30.4271 119.801 30.0705 119.801 29.6405C119.801 29.2105 120.158 28.8539 120.588 28.8539H121.616V25.0993V21.3447H120.588C120.158 21.3447 119.801 20.9881 119.801 20.5581C119.801 20.1281 120.158 19.7715 120.588 19.7715H122.402H122.748V18.2823C122.748 17.8523 123.105 17.4957 123.535 17.4957C123.965 17.4957 124.321 17.8523 124.321 18.2823V19.7715H124.563H125.59V18.2823C125.59 17.8523 125.947 17.4957 126.377 17.4957C126.807 17.4957 127.164 17.8523 127.164 18.2823V19.7715H128.087C129.712 19.7715 131.149 21.1979 131.149 22.8339C131.149 23.5366 130.897 24.1764 130.499 24.7008C131.558 25.2147 132.282 26.2215 132.282 27.3856C132.282 29.0532 130.761 30.4271 128.894 30.4271Z"
      fill="white"/>
    <path
      d="M129.575 22.8237C129.575 22.1315 128.925 21.3345 128.086 21.3345H124.562H123.188V24.3025H128.086C128.904 24.313 129.575 23.6418 129.575 22.8237Z"
      fill="white"/>
    <rect x="293.057" y="7.19189" width="36.0452" height="35.0567" rx="17.5284" fill="#3B3766"/>
    <path
      d="M319.427 15.3586H304.219C303.894 15.3586 303.58 15.516 303.38 15.7782L301.807 17.8757C301.293 18.5679 301.786 19.5537 302.646 19.5537H317.854C318.179 19.5537 318.493 19.3964 318.693 19.1342L320.266 17.0367C320.78 16.3445 320.287 15.3586 319.427 15.3586Z"
      fill="white"/>
    <path
      d="M302.646 22.1758H317.854C318.179 22.1758 318.493 22.3331 318.693 22.5953L320.266 24.6928C320.78 25.385 320.287 26.3709 319.427 26.3709H304.219C303.894 26.3709 303.58 26.2136 303.38 25.9514L301.807 23.8538C301.293 23.1616 301.786 22.1758 302.646 22.1758Z"
      fill="white"/>
    <path
      d="M319.427 28.9927H304.219C303.894 28.9927 303.58 29.15 303.38 29.4122L301.807 31.5097C301.293 32.2019 301.786 33.1878 302.646 33.1878H317.854C318.179 33.1878 318.493 33.0304 318.693 32.7683L320.266 30.6707C320.78 29.9785 320.287 28.9927 319.427 28.9927Z"
      fill="white"/>
    <rect x="107.874" y="132.145" width="36.0452" height="35.0567" rx="17.5284" fill="#3B3766"/>
    <path
      d="M122.466 152.674L124.154 153.429C125.234 153.911 126.472 153.911 127.563 153.429L129.251 152.674C130.762 152.002 132.156 153.827 131.108 155.107L127.479 159.543C126.587 160.634 125.13 160.634 124.228 159.543L120.609 155.107C119.55 153.827 120.945 152.002 122.466 152.674Z"
      fill="white"/>
    <path
      d="M122.256 149.779C121.942 150.01 121.983 150.492 122.34 150.67L124.805 151.897C125.381 152.191 126.315 152.191 126.881 151.897L129.346 150.67C129.692 150.492 129.734 150.02 129.43 149.779L126.168 147.325C125.979 147.188 125.728 147.188 125.539 147.325L122.256 149.779Z"
      fill="white"/>
    <path
      d="M132.02 146.182L127.647 140.728C127.563 140.623 127.468 140.529 127.374 140.435C127.101 140.172 126.713 140.414 126.713 140.791V145.301C126.713 145.469 126.787 145.626 126.923 145.72L131.275 148.992L131.464 149.129C131.653 149.265 131.915 149.265 132.072 149.097C132.807 148.3 132.796 147.147 132.02 146.182Z"
      fill="white"/>
    <path
      d="M119.676 146.276L124.028 140.739C124.112 140.634 124.196 140.539 124.291 140.445C124.563 140.183 124.951 140.414 124.951 140.802V145.385C124.951 145.552 124.878 145.699 124.742 145.804L120.41 149.129L120.232 149.265C120.043 149.401 119.781 149.401 119.613 149.223C118.9 148.416 118.91 147.262 119.676 146.276Z"
      fill="white"/>
    <path fill-rule="evenodd" clip-rule="evenodd"
          d="M209.666 92.1793L221.365 75.4707C222.403 73.9886 224.446 73.6283 225.928 74.6662C227.41 75.704 227.771 77.7468 226.733 79.229L215.033 95.9375C213.996 97.4197 211.953 97.7799 210.471 96.7421C208.988 95.7043 208.628 93.6614 209.666 92.1793ZM228.312 71.2625C231.674 73.6165 232.491 78.2503 230.137 81.6123L218.437 98.3208C216.083 101.683 211.449 102.5 208.087 100.146C204.725 97.7917 203.908 93.1579 206.262 89.796L217.962 73.0874C220.316 69.7255 224.95 68.9084 228.312 71.2625Z"
          fill="white"/>
  </g>
  <defs>
    <filter id="filter0_f_2016_23580" x="132.278" y="0.869041" width="173.07" height="171.597"
            filterUnits="userSpaceOnUse" color-interpolation-filters="sRGB">
      <feFlood flood-opacity="0" result="BackgroundImageFix"/>
      <feBlend mode="normal" in="SourceGraphic" in2="BackgroundImageFix" result="shape"/>
      <feGaussianBlur stdDeviation="28.7222" result="effect1_foregroundBlur_2016_23580"/>
    </filter>
    <radialGradient id="paint0_radial_2016_23580" cx="0" cy="0" r="1" gradientUnits="userSpaceOnUse"
                    gradientTransform="translate(208 86.5) rotate(-180) scale(184.354 192.296)">
      <stop stop-color="white"/>
      <stop offset="0.924637" stop-color="white" stop-opacity="0.1"/>
    </radialGradient>
    <linearGradient id="paint1_linear_2016_23580" x1="218.444" y1="15.5984" x2="218.444" y2="157"
                    gradientUnits="userSpaceOnUse">
      <stop stop-color="#ABA4F6" stop-opacity="0.6"/>
      <stop offset="1" stop-color="#9392A4"/>
    </linearGradient>
    <linearGradient id="paint2_linear_2016_23580" x1="218.845" y1="31.3098" x2="218.845" y2="142.074"
                    gradientUnits="userSpaceOnUse">
      <stop stop-color="#ABA4F6" stop-opacity="0.6"/>
      <stop offset="1" stop-color="#9392A4"/>
    </linearGradient>
    <linearGradient id="paint3_linear_2016_23580" x1="218.845" y1="47.0204" x2="218.845" y2="126.362"
                    gradientUnits="userSpaceOnUse">
      <stop stop-color="#ABA4F6" stop-opacity="0.6"/>
      <stop offset="1" stop-color="#9392A4"/>
    </linearGradient>
  </defs>
</svg>
