<svg width="416" height="173" viewBox="0 0 416 173" fill="none" xmlns="http://www.w3.org/2000/svg">
  <g clip-path="url(#clip0_2016_23187)">
    <path d="M132.426 -0.560303H110.302V21.5637H132.426V-0.560303Z" fill="url(#paint0_linear_2016_23187)"
          fill-opacity="0.02"/>
    <path d="M110.856 128.865H88.7317V150.989H110.856V128.865Z" fill="url(#paint1_linear_2016_23187)"
          fill-opacity="0.02"/>
    <path d="M326.564 21.0107H304.44V43.1348H326.564V21.0107Z" fill="url(#paint2_linear_2016_23187)"
          fill-opacity="0.02"/>
    <path
      d="M45.8658 -43.4255H24.2949V-21.8546M45.8658 -43.4255V-21.8546M45.8658 -43.4255H67.4368M45.8658 -21.8546H24.2949M45.8658 -21.8546H67.4368M45.8658 -21.8546V-0.283701M24.2949 -21.8546V-0.283701M67.4368 -43.4255V-21.8546M67.4368 -43.4255H89.0077M67.4368 -21.8546H89.0077M67.4368 -21.8546V-0.283701M89.0077 -43.4255V-21.8546M89.0077 -43.4255H110.579M89.0077 -21.8546H110.579M89.0077 -21.8546V-0.283701M110.579 -43.4255V-21.8546M110.579 -43.4255H132.15M110.579 -21.8546H132.15M110.579 -21.8546V-0.283701M132.15 -43.4255V-21.8546M132.15 -43.4255H153.72M132.15 -21.8546H153.72M132.15 -21.8546V-0.283701M153.72 -43.4255V-21.8546M153.72 -43.4255H175.291M153.72 -21.8546H175.291M153.72 -21.8546V-0.283701M175.291 -43.4255V-21.8546M175.291 -43.4255H196.862M175.291 -21.8546H196.862M175.291 -21.8546V-0.283701M196.862 -43.4255V-21.8546M196.862 -43.4255H218.433M196.862 -21.8546H218.433M196.862 -21.8546V-0.283701M218.433 -43.4255V-21.8546M218.433 -43.4255H240.004M218.433 -21.8546H240.004M218.433 -21.8546V-0.283701M240.004 -43.4255V-21.8546M240.004 -43.4255H261.575M240.004 -21.8546H261.575M240.004 -21.8546V-0.283701M261.575 -43.4255V-21.8546M261.575 -43.4255H283.146M261.575 -21.8546H283.146M261.575 -21.8546V-0.283701M283.146 -43.4255V-21.8546M283.146 -43.4255H304.717M283.146 -21.8546H304.717M283.146 -21.8546V-0.283701M304.717 -43.4255V-21.8546M304.717 -43.4255H326.288M304.717 -21.8546H326.288M304.717 -21.8546V-0.283701M326.288 -43.4255V-21.8546M326.288 -43.4255H347.859M326.288 -21.8546H347.859M326.288 -21.8546V-0.283701M347.859 -43.4255V-21.8546M347.859 -43.4255H369.43M347.859 -21.8546H369.43M347.859 -21.8546V-0.283701M369.43 -43.4255V-21.8546M369.43 -43.4255H391.001V-21.8546M369.43 -21.8546H391.001M369.43 -21.8546V-0.283701M391.001 -21.8546V-0.283701M45.8658 -0.283701H24.2949M45.8658 -0.283701H67.4368M45.8658 -0.283701V21.2872M24.2949 -0.283701V21.2872M67.4368 -0.283701H89.0077M67.4368 -0.283701V21.2872M89.0077 -0.283701H110.579M89.0077 -0.283701V21.2872M110.579 -0.283701H132.15M110.579 -0.283701V21.2872M132.15 -0.283701H153.72M132.15 -0.283701V21.2872M153.72 -0.283701H175.291M153.72 -0.283701V21.2872M175.291 -0.283701H196.862M175.291 -0.283701V21.2872M196.862 -0.283701H218.433M196.862 -0.283701V21.2872M218.433 -0.283701H240.004M218.433 -0.283701V21.2872M240.004 -0.283701H261.575M240.004 -0.283701V21.2872M261.575 -0.283701H283.146M261.575 -0.283701V21.2872M283.146 -0.283701H304.717M283.146 -0.283701V21.2872M304.717 -0.283701H326.288M304.717 -0.283701V21.2872M326.288 -0.283701H347.859M326.288 -0.283701V21.2872M347.859 -0.283701H369.43M347.859 -0.283701V21.2872M369.43 -0.283701H391.001M369.43 -0.283701V21.2872M391.001 -0.283701V21.2872M45.8658 21.2872H24.2949M45.8658 21.2872H67.4368M45.8658 21.2872V42.8581M24.2949 21.2872V42.8581M67.4368 21.2872H89.0077M67.4368 21.2872V42.8581M89.0077 21.2872H110.579M89.0077 21.2872V42.8581M110.579 21.2872H132.15M110.579 21.2872V42.8581M132.15 21.2872H153.72M132.15 21.2872V42.8581M153.72 21.2872H175.291M153.72 21.2872V42.8581M175.291 21.2872H196.862M175.291 21.2872V42.8581M196.862 21.2872H218.433M196.862 21.2872V42.8581M218.433 21.2872H240.004M218.433 21.2872V42.8581M240.004 21.2872H261.575M240.004 21.2872V42.8581M261.575 21.2872H283.146M261.575 21.2872V42.8581M283.146 21.2872H304.717M283.146 21.2872V42.8581M304.717 21.2872H326.288M304.717 21.2872V42.8581M326.288 21.2872H347.859M326.288 21.2872V42.8581M347.859 21.2872H369.43M347.859 21.2872V42.8581M369.43 21.2872H391.001M369.43 21.2872V42.8581M391.001 21.2872V42.8581M45.8658 42.8581H24.2949M45.8658 42.8581H67.4368M45.8658 42.8581V64.4291M24.2949 42.8581V64.4291M67.4368 42.8581H89.0077M67.4368 42.8581V64.4291M89.0077 42.8581H110.579M89.0077 42.8581V64.4291M110.579 42.8581H132.15M110.579 42.8581V64.4291M132.15 42.8581H153.72M132.15 42.8581V64.4291M153.72 42.8581H175.291M153.72 42.8581V64.4291M175.291 42.8581H196.862M175.291 42.8581V64.4291M196.862 42.8581H218.433M196.862 42.8581V64.4291M218.433 42.8581H240.004M218.433 42.8581V64.4291M240.004 42.8581H261.575M240.004 42.8581V64.4291M261.575 42.8581H283.146M261.575 42.8581V64.4291M283.146 42.8581H304.717M283.146 42.8581V64.4291M304.717 42.8581H326.288M304.717 42.8581V64.4291M326.288 42.8581H347.859M326.288 42.8581V64.4291M347.859 42.8581H369.43M347.859 42.8581V64.4291M369.43 42.8581H391.001M369.43 42.8581V64.4291M391.001 42.8581V64.4291M45.8658 64.4291H24.2949M45.8658 64.4291H67.4368M45.8658 64.4291V86M24.2949 64.4291V86M67.4368 64.4291H89.0077M67.4368 64.4291V86M89.0077 64.4291H110.579M89.0077 64.4291V86M110.579 64.4291H132.15M110.579 64.4291V86M132.15 64.4291H153.72M132.15 64.4291V86M153.72 64.4291H175.291M153.72 64.4291V86M175.291 64.4291H196.862M175.291 64.4291V86M196.862 64.4291H218.433M196.862 64.4291V86M218.433 64.4291H240.004M218.433 64.4291V86M240.004 64.4291H261.575M240.004 64.4291V86M261.575 64.4291H283.146M261.575 64.4291V86M283.146 64.4291H304.717M283.146 64.4291V86M304.717 64.4291H326.288M304.717 64.4291V86M326.288 64.4291H347.859M326.288 64.4291V86M347.859 64.4291H369.43M347.859 64.4291V86M369.43 64.4291H391.001M369.43 64.4291V86M391.001 64.4291V86M45.8658 86H24.2949M45.8658 86H67.4368M45.8658 86V107.571M24.2949 86V107.571M67.4368 86H89.0077M67.4368 86V107.571M89.0077 86H110.579M89.0077 86V107.571M110.579 86H132.15M110.579 86V107.571M132.15 86H153.72M132.15 86V107.571M153.72 86H175.291M153.72 86V107.571M175.291 86H196.862M175.291 86V107.571M196.862 86H218.433M196.862 86V107.571M218.433 86H240.004M218.433 86V107.571M240.004 86H261.575M240.004 86V107.571M261.575 86H283.146M261.575 86V107.571M283.146 86H304.717M283.146 86V107.571M304.717 86H326.288M304.717 86V107.571M326.288 86H347.859M326.288 86V107.571M347.859 86H369.43M347.859 86V107.571M369.43 86H391.001M369.43 86V107.571M391.001 86V107.571M45.8658 107.571H24.2949M45.8658 107.571H67.4368M45.8658 107.571V129.142M24.2949 107.571V129.142M67.4368 107.571H89.0077M67.4368 107.571V129.142M89.0077 107.571H110.579M89.0077 107.571V129.142M110.579 107.571H132.15M110.579 107.571V129.142M132.15 107.571H153.72M132.15 107.571V129.142M153.72 107.571H175.291M153.72 107.571V129.142M175.291 107.571H196.862M175.291 107.571V129.142M196.862 107.571H218.433M196.862 107.571V129.142M218.433 107.571H240.004M218.433 107.571V129.142M240.004 107.571H261.575M240.004 107.571V129.142M261.575 107.571H283.146M261.575 107.571V129.142M283.146 107.571H304.717M283.146 107.571V129.142M304.717 107.571H326.288M304.717 107.571V129.142M326.288 107.571H347.859M326.288 107.571V129.142M347.859 107.571H369.43M347.859 107.571V129.142M369.43 107.571H391.001M369.43 107.571V129.142M391.001 107.571V129.142M45.8658 129.142H24.2949M45.8658 129.142H67.4368M45.8658 129.142V150.713M24.2949 129.142V150.713M67.4368 129.142H89.0077M67.4368 129.142V150.713M89.0077 129.142H110.579M89.0077 129.142V150.713M110.579 129.142H132.15M110.579 129.142V150.713M132.15 129.142H153.72M132.15 129.142V150.713M153.72 129.142H175.291M153.72 129.142V150.713M175.291 129.142H196.862M175.291 129.142V150.713M196.862 129.142H218.433M196.862 129.142V150.713M218.433 129.142H240.004M218.433 129.142V150.713M240.004 129.142H261.575M240.004 129.142V150.713M261.575 129.142H283.146M261.575 129.142V150.713M283.146 129.142H304.717M283.146 129.142V150.713M304.717 129.142H326.288M304.717 129.142V150.713M326.288 129.142H347.859M326.288 129.142V150.713M347.859 129.142H369.43M347.859 129.142V150.713M369.43 129.142H391.001M369.43 129.142V150.713M391.001 129.142V150.713M45.8658 150.713H24.2949M45.8658 150.713H67.4368M45.8658 150.713V172.284M24.2949 150.713V172.284M67.4368 150.713H89.0077M67.4368 150.713V172.284M89.0077 150.713H110.579M89.0077 150.713V172.284M110.579 150.713H132.15M110.579 150.713V172.284M132.15 150.713H153.72M132.15 150.713V172.284M153.72 150.713H175.291M153.72 150.713V172.284M175.291 150.713H196.862M175.291 150.713V172.284M196.862 150.713H218.433M196.862 150.713V172.284M218.433 150.713H240.004M218.433 150.713V172.284M240.004 150.713H261.575M240.004 150.713V172.284M261.575 150.713H283.146M261.575 150.713V172.284M283.146 150.713H304.717M283.146 150.713V172.284M304.717 150.713H326.288M304.717 150.713V172.284M326.288 150.713H347.859M326.288 150.713V172.284M347.859 150.713H369.43M347.859 150.713V172.284M369.43 150.713H391.001M369.43 150.713V172.284M391.001 150.713V172.284M45.8658 172.284H24.2949M45.8658 172.284H67.4368M45.8658 172.284V193.855M24.2949 172.284V193.855M67.4368 172.284H89.0077M67.4368 172.284V193.855M89.0077 172.284H110.579M89.0077 172.284V193.855M110.579 172.284H132.15M110.579 172.284V193.855M132.15 172.284H153.72M132.15 172.284V193.855M153.72 172.284H175.291M153.72 172.284V193.855M175.291 172.284H196.862M175.291 172.284V193.855M196.862 172.284H218.433M196.862 172.284V193.855M218.433 172.284H240.004M218.433 172.284V193.855M240.004 172.284H261.575M240.004 172.284V193.855M261.575 172.284H283.146M261.575 172.284V193.855M283.146 172.284H304.717M283.146 172.284V193.855M304.717 172.284H326.288M304.717 172.284V193.855M326.288 172.284H347.859M326.288 172.284V193.855M347.859 172.284H369.43M347.859 172.284V193.855M369.43 172.284H391.001M369.43 172.284V193.855M391.001 172.284V193.855M45.8658 193.855H24.2949M45.8658 193.855H67.4368M45.8658 193.855V215.425M24.2949 193.855V215.425H45.8658M67.4368 193.855H89.0077M67.4368 193.855V215.425M89.0077 193.855H110.579M89.0077 193.855V215.425M110.579 193.855H132.15M110.579 193.855V215.425M132.15 193.855H153.72M132.15 193.855V215.425M153.72 193.855H175.291M153.72 193.855V215.425M175.291 193.855H196.862M175.291 193.855V215.425M196.862 193.855H218.433M196.862 193.855V215.425M218.433 193.855H240.004M218.433 193.855V215.425M240.004 193.855H261.575M240.004 193.855V215.425M261.575 193.855H283.146M261.575 193.855V215.425M283.146 193.855H304.717M283.146 193.855V215.425M304.717 193.855H326.288M304.717 193.855V215.425M326.288 193.855H347.859M326.288 193.855V215.425M347.859 193.855H369.43M347.859 193.855V215.425M369.43 193.855H391.001M369.43 193.855V215.425M391.001 193.855V215.425H369.43M45.8658 215.425H67.4368M67.4368 215.425H89.0077M89.0077 215.425H110.579M110.579 215.425H132.15M132.15 215.425H153.72M153.72 215.425H175.291M175.291 215.425H196.862M196.862 215.425H218.433M218.433 215.425H240.004M240.004 215.425H261.575M261.575 215.425H283.146M283.146 215.425H304.717M304.717 215.425H326.288M326.288 215.425H347.859M347.859 215.425H369.43"
      stroke="url(#paint3_radial_2016_23187)" stroke-opacity="0.08" stroke-width="0.5531"/>
    <path
      d="M309.458 18.5579C309.263 18.7969 309.455 19.1302 309.76 19.0807C309.826 19.0693 309.883 19.0361 309.926 18.9845C310.121 18.7454 309.929 18.4122 309.624 18.4617C309.558 18.4731 309.501 18.5062 309.458 18.5579Z"
      fill="white" fill-opacity="0.1"/>
    <path
      d="M78.848 150.515C78.9743 150.234 78.703 149.962 78.4223 150.089C78.3615 150.117 78.3147 150.164 78.2866 150.225C78.1556 150.506 78.4316 150.778 78.7123 150.652C78.7732 150.623 78.8199 150.576 78.848 150.515Z"
      fill="white" fill-opacity="0.1"/>
    <path
      d="M349.452 57.0831C349.257 57.3223 349.449 57.6553 349.753 57.6056C349.819 57.5942 349.876 57.561 349.919 57.5093C350.118 57.2714 349.922 56.9371 349.618 56.9868C349.552 56.9983 349.495 57.0315 349.452 57.0831Z"
      fill="white" fill-opacity="0.1"/>
    <path
      d="M12.8337 21.4526C12.9646 21.1712 12.6886 20.8991 12.4079 21.0258C12.3471 21.0539 12.3003 21.1008 12.2722 21.1618C12.1459 21.4432 12.4173 21.7153 12.698 21.5887C12.7588 21.5605 12.8056 21.5136 12.8337 21.4526Z"
      fill="white" fill-opacity="0.1"/>
    <path
      d="M53.5446 14.228C53.6756 13.9473 53.3996 13.6712 53.1189 13.8022C53.058 13.8303 53.0113 13.8771 52.9832 13.9379C52.8569 14.2186 53.1282 14.49 53.4089 14.3636C53.4697 14.3356 53.5165 14.2888 53.5446 14.228Z"
      fill="white" fill-opacity="0.1"/>
    <path
      d="M58.7884 79.06C58.9148 78.7786 58.6434 78.5065 58.3627 78.6332C58.3019 78.6613 58.2551 78.7082 58.227 78.7692C58.096 79.0507 58.3721 79.3227 58.6528 79.1961C58.7136 79.1679 58.7604 79.121 58.7884 79.06Z"
      fill="white" fill-opacity="0.1"/>
    <path
      d="M350.334 131.296C350.139 131.535 350.331 131.868 350.635 131.818C350.701 131.807 350.758 131.773 350.801 131.722C351 131.484 350.804 131.15 350.5 131.199C350.434 131.211 350.377 131.244 350.334 131.296Z"
      fill="white" fill-opacity="0.1"/>
    <path
      d="M217.37 172.454C217.497 172.173 217.225 171.901 216.944 172.027C216.883 172.055 216.836 172.102 216.807 172.163C216.681 172.445 216.953 172.717 217.234 172.59C217.295 172.562 217.342 172.515 217.37 172.454Z"
      fill="white" fill-opacity="0.1"/>
    <path
      d="M221.328 0.039671C221.133 0.278753 221.325 0.611972 221.63 0.562479C221.696 0.551076 221.753 0.517906 221.796 0.466287C221.991 0.227205 221.799 -0.106012 221.494 -0.0565198C221.428 -0.0451169 221.371 -0.011948 221.328 0.039671Z"
      fill="white" fill-opacity="0.1"/>
    <path
      d="M132.36 148.034C132.491 147.753 132.215 147.481 131.934 147.607C131.873 147.635 131.827 147.682 131.799 147.743C131.672 148.025 131.944 148.297 132.224 148.17C132.285 148.142 132.332 148.095 132.36 148.034Z"
      fill="white" fill-opacity="0.1"/>
    <path
      d="M297.121 45.6302C296.922 45.8681 297.118 46.2024 297.422 46.1527C297.488 46.1412 297.545 46.108 297.588 46.0564C297.783 45.8172 297.591 45.4842 297.287 45.5339C297.221 45.5453 297.164 45.5785 297.121 45.6302Z"
      fill="white" fill-opacity="0.1"/>
    <path
      d="M382.052 8.06529C381.857 8.30446 382.049 8.63748 382.353 8.5878C382.419 8.57635 382.476 8.54315 382.519 8.49151C382.719 8.25355 382.522 7.91931 382.218 7.969C382.152 7.98044 382.095 8.01365 382.052 8.06529Z"
      fill="white" fill-opacity="0.8"/>
    <path
      d="M53.3274 115.245C53.4541 114.964 53.182 114.692 52.9006 114.819C52.8396 114.847 52.7927 114.894 52.7645 114.955C52.6379 115.236 52.9099 115.508 53.1914 115.382C53.2524 115.353 53.2993 115.306 53.3274 115.245Z"
      fill="white" fill-opacity="0.1"/>
    <path
      d="M364.974 97.7566C364.779 97.9957 364.972 98.3289 365.276 98.2794C365.342 98.268 365.4 98.2348 365.443 98.1832C365.638 97.9441 365.446 97.6109 365.141 97.6604C365.075 97.6718 365.017 97.705 364.974 97.7566Z"
      fill="white" fill-opacity="0.1"/>
    <path
      d="M32.2639 90.1089C32.3906 89.8274 32.1185 89.5553 31.8371 89.682C31.7761 89.7101 31.7292 89.7571 31.701 89.818C31.5744 90.0995 31.8465 90.3716 32.1279 90.2449C32.1889 90.2168 32.2358 90.1699 32.2639 90.1089Z"
      fill="white" fill-opacity="0.8"/>
    <path
      d="M378.814 127.488C378.619 127.727 378.811 128.061 379.116 128.011C379.182 128 379.24 127.967 379.283 127.915C379.478 127.676 379.286 127.343 378.981 127.392C378.915 127.403 378.857 127.437 378.814 127.488Z"
      fill="white" fill-opacity="0.8"/>
    <path
      d="M172.868 165.559C172.994 165.278 172.723 165.006 172.442 165.132C172.381 165.16 172.334 165.207 172.306 165.268C172.175 165.55 172.451 165.822 172.732 165.695C172.793 165.667 172.839 165.62 172.868 165.559Z"
      fill="white" fill-opacity="0.1"/>
    <path
      d="M262.53 18.218C262.335 18.4572 262.527 18.7902 262.831 18.7405C262.897 18.7291 262.954 18.6959 262.997 18.6442C263.196 18.4063 263 18.072 262.696 18.1217C262.63 18.1332 262.573 18.1664 262.53 18.218Z"
      fill="white" fill-opacity="0.1"/>
    <path
      d="M406.954 107.242C407.081 106.961 406.809 106.689 406.528 106.815C406.468 106.844 406.421 106.89 406.393 106.951C406.262 107.233 406.538 107.505 406.819 107.378C406.879 107.35 406.926 107.303 406.954 107.242Z"
      fill="white" fill-opacity="0.8"/>
    <path
      d="M21.3254 13.9616C21.1306 14.2008 21.3223 14.5338 21.6262 14.4842C21.6922 14.4727 21.7495 14.4395 21.7924 14.3879C21.9918 14.1499 21.7956 13.8157 21.4917 13.8654C21.4257 13.8768 21.3683 13.91 21.3254 13.9616Z"
      fill="white" fill-opacity="0.8"/>
    <path
      d="M49.0433 7.47215C49.1696 7.1907 48.8983 6.91863 48.6176 7.04528C48.5568 7.07343 48.51 7.12034 48.4819 7.18132C48.3509 7.46277 48.627 7.73484 48.9077 7.60819C48.9685 7.58004 49.0153 7.53313 49.0433 7.47215Z"
      fill="white" fill-opacity="0.1"/>
    <path
      d="M4.0769 35.6039C3.88204 35.843 4.07373 36.1761 4.37765 36.1264C4.44368 36.1149 4.50101 36.0817 4.54391 36.0301C4.74328 35.7921 4.54708 35.4579 4.24316 35.5076C4.17713 35.519 4.1198 35.5522 4.0769 35.6039Z"
      fill="white" fill-opacity="0.1"/>
    <path
      d="M127.518 128.234C127.645 127.953 127.372 127.681 127.091 127.807C127.03 127.836 126.983 127.882 126.955 127.943C126.828 128.225 127.1 128.497 127.382 128.37C127.443 128.342 127.49 128.295 127.518 128.234Z"
      fill="white" fill-opacity="0.1"/>
    <path
      d="M296.674 66.0085C296.478 66.2476 296.671 66.5808 296.976 66.5314C297.042 66.5199 297.099 66.4868 297.142 66.4352C297.337 66.1961 297.145 65.8629 296.84 65.9124C296.774 65.9238 296.717 65.9569 296.674 66.0085Z"
      fill="white" fill-opacity="0.1"/>
    <path
      d="M83.4907 147.108C83.2959 147.347 83.4875 147.68 83.7915 147.631C83.8575 147.619 83.9148 147.586 83.9577 147.534C84.1571 147.296 83.9609 146.962 83.657 147.012C83.5909 147.023 83.5336 147.056 83.4907 147.108Z"
      fill="white" fill-opacity="0.1"/>
    <path
      d="M54.1999 158.61C54.0005 158.848 54.1967 159.183 54.5006 159.133C54.5666 159.121 54.624 159.088 54.6669 159.037C54.8617 158.797 54.67 158.464 54.3661 158.514C54.3001 158.526 54.2427 158.559 54.1999 158.61Z"
      fill="white" fill-opacity="0.1"/>
    <path
      d="M81.7522 6.28477C81.8789 6.00332 81.6068 5.73125 81.3254 5.8579C81.2644 5.88605 81.2175 5.93296 81.1893 5.99394C81.0627 6.27539 81.3347 6.54746 81.6162 6.42081C81.6772 6.39266 81.7241 6.34575 81.7522 6.28477Z"
      fill="white" fill-opacity="0.1"/>
    <path
      d="M372.067 148.931C372.198 148.65 371.922 148.378 371.641 148.504C371.58 148.532 371.533 148.579 371.505 148.64C371.379 148.922 371.65 149.194 371.931 149.067C371.992 149.039 372.039 148.992 372.067 148.931Z"
      fill="white" fill-opacity="0.1"/>
    <path
      d="M37.5409 57.1217C37.4142 56.8402 37.6863 56.5682 37.9678 56.6948C38.0287 56.723 38.0756 56.7699 38.1038 56.8309C38.2304 57.1123 37.9584 57.3844 37.6769 57.2577C37.6159 57.2296 37.569 57.1827 37.5409 57.1217Z"
      fill="white" fill-opacity="0.1"/>
    <path
      d="M365.18 157.986C365.229 158.29 364.896 158.483 364.657 158.287C364.605 158.245 364.572 158.187 364.561 158.121C364.511 157.816 364.844 157.624 365.083 157.819C365.135 157.862 365.168 157.919 365.18 157.986Z"
      fill="white" fill-opacity="0.1"/>
    <path
      d="M5.12821 149.654C5.1819 149.96 4.84486 150.152 4.6065 149.957C4.55504 149.914 4.52199 149.856 4.51066 149.79C4.46149 149.485 4.79401 149.293 5.03237 149.488C5.08383 149.531 5.11688 149.588 5.12821 149.654Z"
      fill="white" fill-opacity="0.8"/>
    <path
      d="M383.141 36.3917C383.191 36.6963 382.857 36.8887 382.618 36.6935C382.567 36.6505 382.534 36.5931 382.522 36.5269C382.473 36.2223 382.806 36.0299 383.045 36.2251C383.097 36.268 383.13 36.3255 383.141 36.3917Z"
      fill="white" fill-opacity="0.1"/>
    <path
      d="M277.348 169.796C277.221 169.515 277.493 169.243 277.774 169.369C277.835 169.397 277.882 169.444 277.91 169.505C278.037 169.787 277.765 170.059 277.484 169.932C277.423 169.904 277.376 169.857 277.348 169.796Z"
      fill="white" fill-opacity="0.8"/>
    <path
      d="M316.148 -0.509093C316.198 -0.204452 315.865 -0.0120705 315.625 -0.207254C315.574 -0.250223 315.541 -0.307677 315.529 -0.373865C315.48 -0.678506 315.813 -0.870888 316.052 -0.675705C316.104 -0.632735 316.137 -0.575281 316.148 -0.509093Z"
      fill="white" fill-opacity="0.8"/>
    <path
      d="M327.058 165.707C326.927 165.426 327.203 165.153 327.484 165.28C327.544 165.308 327.591 165.355 327.619 165.416C327.746 165.698 327.474 165.97 327.194 165.843C327.133 165.815 327.086 165.768 327.058 165.707Z"
      fill="white" fill-opacity="0.1"/>
    <path
      d="M3.13389 132.027C3.18339 132.332 2.85017 132.524 2.61108 132.329C2.55946 132.286 2.5263 132.229 2.51489 132.162C2.4654 131.858 2.79861 131.665 3.0377 131.861C3.08932 131.904 3.12249 131.961 3.13389 132.027Z"
      fill="white" fill-opacity="0.8"/>
    <path
      d="M37.1928 132.398C37.242 132.702 36.9095 132.895 36.6711 132.7C36.6196 132.657 36.5866 132.6 36.5753 132.534C36.5216 132.228 36.8586 132.036 37.097 132.231C37.1484 132.274 37.1815 132.332 37.1928 132.398Z"
      fill="white" fill-opacity="0.1"/>
    <path
      d="M397.593 10.6496C397.462 10.3682 397.738 10.0961 398.019 10.2228C398.08 10.2509 398.126 10.2978 398.154 10.3588C398.281 10.6403 398.009 10.9123 397.729 10.7857C397.668 10.7575 397.621 10.7106 397.593 10.6496Z"
      fill="white" fill-opacity="0.1"/>
    <path
      d="M5.36771 109.686C5.4214 109.992 5.08436 110.183 4.846 109.988C4.79454 109.945 4.76149 109.888 4.75016 109.821C4.701 109.517 5.03352 109.324 5.27187 109.519C5.32334 109.562 5.35638 109.62 5.36771 109.686Z"
      fill="white" fill-opacity="0.1"/>
    <path
      d="M346.586 17.0062C346.717 16.7248 346.441 16.4527 346.161 16.5793C346.1 16.6075 346.053 16.6544 346.025 16.7154C345.899 16.9968 346.17 17.2689 346.451 17.1422C346.511 17.1141 346.558 17.0672 346.586 17.0062Z"
      fill="white" fill-opacity="0.8"/>
    <path
      d="M56.2816 116.747C56.0823 116.985 56.2785 117.32 56.5824 117.27C56.6484 117.258 56.7057 117.225 56.7486 117.174C56.9435 116.934 56.7518 116.601 56.4479 116.651C56.3819 116.663 56.3245 116.696 56.2816 116.747Z"
      fill="white" fill-opacity="0.8"/>
    <path
      d="M-0.596113 35.9664C-0.791296 36.2055 -0.598913 36.5387 -0.294271 36.4892C-0.228083 36.4778 -0.170628 36.4447 -0.127659 36.393C0.0675245 36.154 -0.124859 35.8207 -0.429501 35.8702C-0.495689 35.8816 -0.553144 35.9148 -0.596113 35.9664Z"
      fill="white" fill-opacity="0.1"/>
    <path
      d="M394.464 37.6711C394.333 37.3897 394.609 37.1176 394.89 37.2443C394.951 37.2724 394.997 37.3193 395.026 37.3803C395.152 37.6617 394.88 37.9338 394.6 37.8072C394.539 37.779 394.492 37.7321 394.464 37.6711Z"
      fill="white" fill-opacity="0.8"/>
    <path
      d="M15.3838 84.3949C15.4375 84.7007 15.1005 84.892 14.8621 84.697C14.8107 84.6541 14.7776 84.5967 14.7663 84.5305C14.7171 84.226 15.0496 84.0334 15.288 84.2284C15.3394 84.2713 15.3725 84.3287 15.3838 84.3949Z"
      fill="white" fill-opacity="0.8"/>
    <path
      d="M390.222 51.4692C390.091 51.1878 390.367 50.9157 390.648 51.0424C390.708 51.0705 390.755 51.1174 390.783 51.1784C390.91 51.4598 390.638 51.7319 390.358 51.6053C390.297 51.5771 390.25 51.5302 390.222 51.4692Z"
      fill="white" fill-opacity="0.8"/>
    <path
      d="M23.0525 72.1649C23.1062 72.4707 22.7692 72.6621 22.5308 72.4671C22.4794 72.4241 22.4463 72.3667 22.435 72.3006C22.3858 71.996 22.7183 71.8034 22.9567 71.9984C23.0082 72.0413 23.0412 72.0988 23.0525 72.1649Z"
      fill="white" fill-opacity="0.8"/>
    <path
      d="M349.261 45.2386C349.135 44.9572 349.407 44.6851 349.688 44.8118C349.749 44.8399 349.796 44.8868 349.824 44.9478C349.951 45.2292 349.679 45.5013 349.397 45.3747C349.336 45.3465 349.289 45.2996 349.261 45.2386Z"
      fill="white" fill-opacity="0.1"/>
    <path
      d="M61.0047 88.7846C61.0542 89.0892 60.721 89.2816 60.4819 89.0864C60.4303 89.0435 60.3971 88.986 60.3857 88.9198C60.3362 88.6152 60.6695 88.4228 60.9086 88.618C60.9602 88.661 60.9933 88.7184 61.0047 88.7846Z"
      fill="white" fill-opacity="0.1"/>
    <path
      d="M339.666 75.4103C339.535 75.1288 339.811 74.8567 340.092 74.9834C340.153 75.0115 340.2 75.0584 340.228 75.1194C340.354 75.4009 340.083 75.673 339.802 75.5463C339.741 75.5182 339.694 75.4712 339.666 75.4103Z"
      fill="white" fill-opacity="0.8"/>
    <path
      d="M78.0821 62.1244C78.1358 62.4302 77.7987 62.6215 77.5604 62.4265C77.5089 62.3836 77.4758 62.3262 77.4645 62.26C77.4153 61.9555 77.7479 61.7629 77.9862 61.9579C78.0377 62.0008 78.0707 62.0582 78.0821 62.1244Z"
      fill="white" fill-opacity="0.8"/>
    <path
      d="M393.058 134.852C392.927 134.571 393.203 134.299 393.484 134.426C393.544 134.454 393.591 134.501 393.619 134.562C393.746 134.843 393.474 135.115 393.194 134.988C393.133 134.96 393.086 134.913 393.058 134.852Z"
      fill="white" fill-opacity="0.1"/>
    <path
      d="M297.801 40.1982C297.928 39.9168 297.656 39.6447 297.374 39.7714C297.313 39.7995 297.266 39.8464 297.238 39.9074C297.111 40.1888 297.384 40.4609 297.665 40.3343C297.726 40.3061 297.773 40.2592 297.801 40.1982Z"
      fill="white" fill-opacity="0.8"/>
    <path
      d="M110.149 106.171C109.954 106.41 110.146 106.743 110.451 106.693C110.517 106.682 110.574 106.649 110.617 106.597C110.813 106.358 110.62 106.025 110.316 106.074C110.249 106.086 110.192 106.119 110.149 106.171Z"
      fill="white" fill-opacity="0.8"/>
    <path
      d="M285.346 122.854C285.477 122.572 285.201 122.3 284.921 122.427C284.86 122.455 284.813 122.502 284.785 122.563C284.659 122.844 284.93 123.116 285.211 122.99C285.271 122.961 285.318 122.914 285.346 122.854Z"
      fill="white" fill-opacity="0.1"/>
    <path
      d="M142.83 30.3569C142.631 30.5948 142.827 30.9291 143.131 30.8794C143.197 30.8679 143.255 30.8347 143.297 30.7831C143.492 30.5439 143.301 30.2109 142.997 30.2606C142.931 30.272 142.873 30.3052 142.83 30.3569Z"
      fill="white" fill-opacity="0.1"/>
    <path
      d="M258.179 45.9837C258.305 45.7023 258.034 45.4302 257.753 45.5569C257.693 45.585 257.646 45.6319 257.618 45.6929C257.487 45.9744 257.763 46.2464 258.043 46.1198C258.104 46.0916 258.151 46.0447 258.179 45.9837Z"
      fill="white" fill-opacity="0.1"/>
    <path
      d="M149.177 111.639C148.982 111.878 149.174 112.211 149.477 112.161C149.544 112.15 149.601 112.117 149.644 112.065C149.843 111.827 149.647 111.493 149.343 111.542C149.277 111.554 149.22 111.587 149.177 111.639Z"
      fill="white" fill-opacity="0.1"/>
    <path
      d="M305.322 64.6433C305.448 64.3618 305.176 64.0898 304.895 64.2164C304.834 64.2446 304.787 64.2915 304.759 64.3525C304.632 64.6339 304.904 64.906 305.186 64.7793C305.247 64.7512 305.293 64.7043 305.322 64.6433Z"
      fill="white" fill-opacity="0.1"/>
    <path
      d="M108.47 81.4136C108.275 81.6527 108.467 81.9859 108.772 81.9364C108.838 81.925 108.896 81.8918 108.939 81.8402C109.134 81.6011 108.941 81.2679 108.637 81.3174C108.57 81.3288 108.513 81.362 108.47 81.4136Z"
      fill="white" fill-opacity="0.1"/>
    <path
      d="M149.049 101.625C149.18 101.344 148.904 101.071 148.624 101.198C148.563 101.226 148.516 101.273 148.488 101.334C148.362 101.616 148.633 101.888 148.914 101.761C148.975 101.733 149.021 101.686 149.049 101.625Z"
      fill="white" fill-opacity="0.1"/>
    <path
      d="M268.989 86.1382C268.789 86.3762 268.985 86.7104 269.289 86.6607C269.355 86.6493 269.413 86.6161 269.456 86.5645C269.651 86.3253 269.459 85.9923 269.155 86.0419C269.089 86.0534 269.032 86.0866 268.989 86.1382Z"
      fill="white" fill-opacity="0.1"/>
    <path
      d="M255.178 146.755C255.309 146.473 255.033 146.201 254.753 146.328C254.692 146.356 254.645 146.403 254.617 146.464C254.491 146.745 254.762 147.017 255.043 146.891C255.104 146.862 255.15 146.815 255.178 146.755Z"
      fill="white" fill-opacity="0.1"/>
    <path
      d="M178.156 15.0783C177.957 15.3162 178.153 15.6505 178.457 15.6008C178.523 15.5894 178.581 15.5562 178.623 15.5045C178.818 15.2653 178.627 14.9323 178.323 14.982C178.257 14.9934 178.199 15.0266 178.156 15.0783Z"
      fill="white" fill-opacity="0.1"/>
    <path
      d="M354.215 157.411C354.341 157.129 354.07 156.857 353.789 156.984C353.728 157.012 353.682 157.059 353.654 157.12C353.523 157.401 353.799 157.673 354.079 157.547C354.14 157.519 354.187 157.472 354.215 157.411Z"
      fill="white" fill-opacity="0.1"/>
    <path
      d="M119.785 41.4515C119.916 41.1701 119.64 40.898 119.359 41.0247C119.298 41.0528 119.251 41.0997 119.223 41.1607C119.097 41.4421 119.368 41.7142 119.649 41.5876C119.71 41.5594 119.757 41.5125 119.785 41.4515Z"
      fill="white" fill-opacity="0.8"/>
    <path
      d="M281.682 151.836C281.483 152.074 281.679 152.408 281.983 152.358C282.049 152.347 282.106 152.313 282.149 152.262C282.344 152.023 282.152 151.69 281.849 151.739C281.783 151.751 281.725 151.784 281.682 151.836Z"
      fill="white" fill-opacity="0.8"/>
    <path
      d="M116.643 125.458C116.769 125.177 116.498 124.905 116.217 125.031C116.156 125.06 116.11 125.107 116.082 125.168C115.951 125.449 116.227 125.721 116.507 125.594C116.568 125.566 116.615 125.519 116.643 125.458Z"
      fill="white" fill-opacity="0.1"/>
    <path
      d="M306.459 71.5044C306.265 71.7435 306.456 72.0766 306.76 72.0269C306.826 72.0154 306.884 71.9822 306.926 71.9306C307.126 71.6926 306.93 71.3584 306.626 71.4081C306.56 71.4195 306.502 71.4527 306.459 71.5044Z"
      fill="white" fill-opacity="0.1"/>
    <path
      d="M230.745 51.7527C230.872 51.472 230.6 51.2006 230.32 51.3269C230.259 51.355 230.212 51.4018 230.184 51.4626C230.053 51.7433 230.329 52.0193 230.61 51.8883C230.671 51.8603 230.717 51.8135 230.745 51.7527Z"
      fill="white" fill-opacity="0.1"/>
    <path
      d="M177.169 113.167C176.974 113.405 177.166 113.737 177.47 113.688C177.536 113.677 177.593 113.644 177.636 113.592C177.835 113.355 177.64 113.017 177.335 113.071C177.269 113.082 177.211 113.115 177.169 113.167Z"
      fill="white" fill-opacity="0.1"/>
    <path
      d="M187.545 165.864C187.672 165.583 187.4 165.311 187.12 165.437C187.059 165.465 187.012 165.512 186.984 165.573C186.853 165.855 187.129 166.127 187.41 166C187.47 165.972 187.517 165.925 187.545 165.864Z"
      fill="white" fill-opacity="0.1"/>
    <path
      d="M248.431 14.1246C248.236 14.3638 248.428 14.6968 248.732 14.6471C248.798 14.6357 248.855 14.6025 248.898 14.5508C249.097 14.3129 248.901 13.9786 248.597 14.0283C248.531 14.0398 248.474 14.073 248.431 14.1246Z"
      fill="white" fill-opacity="0.1"/>
    <path
      d="M308.318 84.9026C308.037 84.7716 307.765 85.0476 307.891 85.3283C307.92 85.3891 307.967 85.4359 308.028 85.464C308.309 85.5903 308.581 85.3189 308.454 85.0382C308.426 84.9774 308.379 84.9306 308.318 84.9026Z"
      fill="white" fill-opacity="0.1"/>
    <path
      d="M110.819 61.0691C111.057 61.2684 111.391 61.0722 111.341 60.7683C111.33 60.7023 111.297 60.645 111.245 60.6021C111.006 60.4072 110.673 60.5989 110.723 60.9028C110.734 60.9688 110.767 61.0262 110.819 61.0691Z"
      fill="white" fill-opacity="0.1"/>
    <path
      d="M81.9828 78.7138C82.1091 78.4324 81.8378 78.1603 81.5571 78.287C81.4962 78.3151 81.4494 78.362 81.4214 78.423C81.2904 78.7045 81.5664 78.9765 81.8471 78.8499C81.9079 78.8217 81.9547 78.7748 81.9828 78.7138Z"
      fill="white" fill-opacity="0.1"/>
    <path
      d="M327.84 125.627C327.645 125.866 327.837 126.199 328.141 126.149C328.207 126.138 328.264 126.105 328.307 126.053C328.507 125.815 328.311 125.481 328.007 125.531C327.941 125.542 327.883 125.575 327.84 125.627Z"
      fill="white" fill-opacity="0.1"/>
    <path
      d="M107.299 60.0227C107.43 59.7412 107.154 59.4692 106.874 59.5958C106.813 59.624 106.766 59.6709 106.738 59.7319C106.612 60.0133 106.883 60.2854 107.164 60.1587C107.225 60.1306 107.271 60.0837 107.299 60.0227Z"
      fill="white" fill-opacity="0.1"/>
    <path
      d="M298.549 137.129C298.349 137.367 298.546 137.701 298.849 137.651C298.916 137.64 298.973 137.607 299.016 137.555C299.211 137.316 299.019 136.983 298.715 137.032C298.649 137.044 298.592 137.077 298.549 137.129Z"
      fill="white" fill-opacity="0.1"/>
    <path
      d="M284.056 163.372C284.183 163.091 283.911 162.819 283.629 162.945C283.568 162.973 283.521 163.02 283.493 163.081C283.366 163.363 283.638 163.635 283.92 163.508C283.981 163.48 284.028 163.433 284.056 163.372Z"
      fill="white" fill-opacity="0.1"/>
    <path
      d="M157.014 55.9729C156.883 55.6914 157.159 55.4194 157.44 55.546C157.501 55.5742 157.547 55.6211 157.576 55.6821C157.702 55.9635 157.431 56.2356 157.15 56.1089C157.089 56.0808 157.042 56.0339 157.014 55.9729Z"
      fill="white" fill-opacity="0.8"/>
    <path
      d="M249.48 128.173C249.533 128.479 249.196 128.67 248.958 128.475C248.907 128.433 248.874 128.375 248.862 128.309C248.813 128.004 249.146 127.812 249.384 128.007C249.435 128.05 249.468 128.107 249.48 128.173Z"
      fill="white" fill-opacity="0.8"/>
    <path
      d="M309.147 115.414C309.021 115.133 309.292 114.861 309.573 114.988C309.634 115.016 309.681 115.063 309.709 115.124C309.84 115.405 309.564 115.677 309.283 115.55C309.222 115.522 309.175 115.475 309.147 115.414Z"
      fill="white" fill-opacity="0.1"/>
    <path
      d="M117.915 31.3823C117.964 31.6868 117.632 31.8794 117.394 31.6844C117.342 31.6415 117.309 31.5841 117.298 31.5179C117.244 31.2121 117.581 31.0208 117.819 31.2158C117.871 31.2587 117.904 31.3161 117.915 31.3823Z"
      fill="white" fill-opacity="0.1"/>
    <path
      d="M294.376 97.6578C294.245 97.3764 294.521 97.1043 294.802 97.2309C294.863 97.2591 294.91 97.306 294.938 97.367C295.064 97.6484 294.793 97.9205 294.512 97.7939C294.451 97.7657 294.405 97.7188 294.376 97.6578Z"
      fill="white" fill-opacity="0.8"/>
    <path
      d="M127.587 52.3568C127.641 52.6626 127.304 52.854 127.065 52.659C127.014 52.616 126.981 52.5586 126.969 52.4924C126.92 52.1879 127.253 51.9953 127.491 52.1903C127.543 52.2332 127.576 52.2907 127.587 52.3568Z"
      fill="white" fill-opacity="0.8"/>
    <path
      d="M321.641 142.966C321.515 142.684 321.786 142.412 322.067 142.539C322.128 142.567 322.174 142.614 322.203 142.675C322.334 142.957 322.058 143.229 321.777 143.102C321.716 143.074 321.669 143.027 321.641 142.966Z"
      fill="white" fill-opacity="0.1"/>
    <path
      d="M112.977 1.53585C113.027 1.8404 112.694 2.03297 112.456 1.83799C112.404 1.79506 112.371 1.73764 112.36 1.67147C112.306 1.3657 112.643 1.17434 112.882 1.36933C112.933 1.41226 112.966 1.46968 112.977 1.53585Z"
      fill="white" fill-opacity="0.1"/>
    <path
      d="M349.903 121.338C349.622 121.464 349.35 121.192 349.476 120.911C349.504 120.85 349.551 120.803 349.612 120.775C349.894 120.648 350.166 120.92 350.039 121.202C350.011 121.263 349.964 121.31 349.903 121.338Z"
      fill="white" fill-opacity="0.8"/>
    <path
      d="M80.0809 15.1124C80.3855 15.063 80.5779 15.3962 80.3827 15.6353C80.3397 15.6869 80.2823 15.72 80.2161 15.7314C79.9115 15.7809 79.7191 15.4477 79.9143 15.2086C79.9572 15.157 80.0147 15.1238 80.0809 15.1124Z"
      fill="white" fill-opacity="0.8"/>
    <path
      d="M334.65 101.132C334.369 101.263 334.097 100.987 334.223 100.706C334.251 100.646 334.298 100.599 334.359 100.571C334.641 100.444 334.913 100.716 334.786 100.997C334.758 101.057 334.711 101.104 334.65 101.132Z"
      fill="white" fill-opacity="0.1"/>
    <path
      d="M89.5846 38.5771C89.8904 38.5234 90.0817 38.8605 89.8867 39.0988C89.8438 39.1503 89.7864 39.1833 89.7202 39.1947C89.4157 39.2438 89.2231 38.9113 89.4181 38.673C89.461 38.6215 89.5184 38.5884 89.5846 38.5771Z"
      fill="white" fill-opacity="0.1"/>
    <path
      d="M89.0311 47.9892C88.9045 47.7078 89.1765 47.4357 89.458 47.5624C89.519 47.5905 89.5659 47.6374 89.594 47.6984C89.7207 47.9799 89.4486 48.2519 89.1672 48.1253C89.1062 48.0971 89.0593 48.0502 89.0311 47.9892Z"
      fill="white" fill-opacity="0.1"/>
    <path
      d="M313.08 153.48C313.13 153.785 312.796 153.977 312.557 153.782C312.506 153.739 312.473 153.682 312.461 153.616C312.412 153.311 312.745 153.118 312.984 153.314C313.036 153.357 313.069 153.414 313.08 153.48Z"
      fill="white" fill-opacity="0.1"/>
    <path
      d="M206.353 136.726C206.222 136.446 206.498 136.17 206.779 136.301C206.84 136.329 206.886 136.375 206.914 136.436C207.041 136.717 206.769 136.988 206.489 136.862C206.428 136.834 206.381 136.787 206.353 136.726Z"
      fill="white" fill-opacity="0.1"/>
    <path
      d="M222.723 37.4018C222.776 37.7068 222.438 37.902 222.201 37.7028C222.15 37.66 222.117 37.6027 222.105 37.5367C222.056 37.2328 222.388 37.041 222.627 37.2356C222.678 37.2785 222.711 37.3358 222.723 37.4018Z"
      fill="white" fill-opacity="0.1"/>
    <path
      d="M163.503 72.4834C163.376 72.2019 163.648 71.9299 163.93 72.0565C163.991 72.0847 164.038 72.1316 164.066 72.1925C164.192 72.474 163.92 72.7461 163.639 72.6194C163.578 72.5913 163.531 72.5444 163.503 72.4834Z"
      fill="white" fill-opacity="0.8"/>
    <path
      d="M247.485 110.546C247.535 110.851 247.202 111.043 246.963 110.848C246.911 110.805 246.878 110.747 246.866 110.681C246.817 110.377 247.15 110.184 247.389 110.379C247.441 110.422 247.474 110.48 247.485 110.546Z"
      fill="white" fill-opacity="0.8"/>
    <path
      d="M130.508 80.94C130.381 80.6586 130.653 80.3865 130.933 80.5132C130.994 80.5413 131.041 80.5882 131.069 80.6492C131.2 80.9307 130.924 81.2027 130.643 81.0761C130.582 81.0479 130.536 81.001 130.508 80.94Z"
      fill="white" fill-opacity="0.1"/>
    <path
      d="M281.545 110.917C281.594 111.222 281.262 111.414 281.023 111.219C280.972 111.177 280.939 111.119 280.928 111.053C280.874 110.747 281.211 110.556 281.449 110.751C281.501 110.794 281.534 110.851 281.545 110.917Z"
      fill="white" fill-opacity="0.1"/>
    <path
      d="M167.125 94.641C166.994 94.3595 167.27 94.0875 167.55 94.2141C167.611 94.2422 167.658 94.2892 167.686 94.3501C167.812 94.6316 167.541 94.9037 167.26 94.777C167.199 94.7489 167.153 94.702 167.125 94.641Z"
      fill="white" fill-opacity="0.1"/>
    <path
      d="M249.722 88.2062C249.776 88.512 249.439 88.7033 249.2 88.5083C249.149 88.4654 249.116 88.408 249.104 88.3418C249.055 88.0373 249.388 87.8447 249.626 88.0397C249.678 88.0826 249.711 88.14 249.722 88.2062Z"
      fill="white" fill-opacity="0.1"/>
    <path
      d="M99.0332 92.4571C98.9069 92.1764 99.1783 91.9051 99.459 92.0314C99.5198 92.0595 99.5666 92.1063 99.5946 92.1671C99.7256 92.4478 99.4496 92.7238 99.1689 92.5928C99.1081 92.5647 99.0613 92.518 99.0332 92.4571Z"
      fill="white" fill-opacity="0.1"/>
    <path
      d="M316.14 108.508C316.19 108.812 315.858 109.004 315.619 108.809C315.568 108.766 315.535 108.709 315.523 108.643C315.469 108.338 315.807 108.143 316.045 108.342C316.096 108.385 316.129 108.442 316.14 108.508Z"
      fill="white" fill-opacity="0.1"/>
    <path
      d="M215.602 158.991C215.476 158.709 215.748 158.437 216.029 158.564C216.09 158.592 216.137 158.639 216.165 158.7C216.292 158.981 216.02 159.254 215.738 159.127C215.677 159.099 215.631 159.052 215.602 158.991Z"
      fill="white" fill-opacity="0.1"/>
    <path
      d="M219.551 13.5019C219.6 13.8065 219.267 13.9989 219.028 13.8037C218.976 13.7608 218.943 13.7033 218.932 13.6371C218.882 13.3325 219.216 13.1401 219.455 13.3353C219.506 13.3783 219.539 13.4357 219.551 13.5019Z"
      fill="white" fill-opacity="0.1"/>
    <path
      d="M374.139 84.2089C373.858 84.3399 373.586 84.0638 373.713 83.7831C373.741 83.7223 373.788 83.6755 373.849 83.6475C374.13 83.5211 374.402 83.7925 374.275 84.0732C374.247 84.134 374.2 84.1808 374.139 84.2089Z"
      fill="white" fill-opacity="0.1"/>
    <path
      d="M47.0607 44.7033C47.3665 44.6496 47.5578 44.9867 47.3628 45.225C47.3199 45.2765 47.2625 45.3096 47.1963 45.3209C46.8918 45.3701 46.6992 45.0375 46.8942 44.7992C46.9371 44.7477 46.9945 44.7147 47.0607 44.7033Z"
      fill="white" fill-opacity="0.1"/>
    <path
      d="M357.762 11.2898C357.816 11.5956 357.479 11.7869 357.24 11.5919C357.189 11.549 357.156 11.4916 357.144 11.4254C357.095 11.1209 357.428 10.9283 357.666 11.1233C357.718 11.1662 357.751 11.2236 357.762 11.2898Z"
      fill="white" fill-opacity="0.1"/>
    <path
      d="M415.679 30.0534C415.733 30.3591 415.396 30.5505 415.157 30.3555C415.106 30.3126 415.073 30.2552 415.061 30.189C415.012 29.8844 415.345 29.6919 415.583 29.8868C415.635 29.9298 415.668 29.9872 415.679 30.0534Z"
      fill="white" fill-opacity="0.8"/>
    <path
      d="M354.179 34.3397C354.233 34.6455 353.896 34.8369 353.657 34.6419C353.606 34.5989 353.573 34.5415 353.561 34.4754C353.512 34.1708 353.845 33.9782 354.083 34.1732C354.135 34.2161 354.168 34.2736 354.179 34.3397Z"
      fill="white" fill-opacity="0.1"/>
    <path
      d="M6.93017 123.657C6.79917 123.376 7.0752 123.104 7.3559 123.23C7.41672 123.259 7.4635 123.306 7.49157 123.366C7.61789 123.648 7.34654 123.92 7.06584 123.793C7.00502 123.765 6.95824 123.718 6.93017 123.657Z"
      fill="white" fill-opacity="0.1"/>
    <path
      d="M411.968 101.64C412.021 101.946 411.684 102.137 411.446 101.942C411.395 101.899 411.362 101.842 411.35 101.775C411.301 101.471 411.634 101.278 411.872 101.473C411.923 101.516 411.956 101.574 411.968 101.64Z"
      fill="white" fill-opacity="0.1"/>
    <path
      d="M79.4604 122.352C79.3294 122.07 79.6055 121.798 79.8862 121.925C79.947 121.953 79.9938 122 80.0218 122.061C80.1482 122.343 79.8768 122.615 79.5961 122.488C79.5353 122.46 79.4885 122.413 79.4604 122.352Z"
      fill="white" fill-opacity="0.1"/>
    <path
      d="M341.571 84.1286C341.625 84.4343 341.288 84.6257 341.049 84.4307C340.998 84.3878 340.965 84.3303 340.954 84.2642C340.904 83.9596 341.237 83.7671 341.475 83.962C341.527 84.005 341.56 84.0624 341.571 84.1286Z"
      fill="white" fill-opacity="0.1"/>
    <path
      d="M37.2508 160.165C37.1242 159.883 37.3963 159.611 37.6777 159.738C37.7387 159.766 37.7856 159.813 37.8138 159.874C37.9404 160.155 37.6683 160.427 37.3869 160.301C37.3259 160.273 37.279 160.226 37.2508 160.165Z"
      fill="white" fill-opacity="0.1"/>
    <path
      d="M392.129 58.5289C392.179 58.8335 391.845 59.0259 391.606 58.8307C391.555 58.7877 391.521 58.7303 391.51 58.6641C391.461 58.3595 391.794 58.1671 392.033 58.3623C392.084 58.4052 392.118 58.4627 392.129 58.5289Z"
      fill="white" fill-opacity="0.1"/>
    <path
      d="M245.578 34.5566C245.705 34.2752 245.433 34.0031 245.153 34.1298C245.092 34.1579 245.045 34.2048 245.017 34.2658C244.886 34.5472 245.162 34.8193 245.443 34.6927C245.504 34.6645 245.55 34.6176 245.578 34.5566Z"
      fill="white" fill-opacity="0.8"/>
    <path
      d="M158.39 125.938C158.196 126.177 158.387 126.51 158.691 126.46C158.757 126.449 158.814 126.416 158.857 126.364C159.057 126.126 158.861 125.792 158.557 125.841C158.491 125.853 158.433 125.886 158.39 125.938Z"
      fill="white" fill-opacity="0.8"/>
    <path
      d="M186.096 5.08226C185.97 4.8008 186.241 4.52873 186.522 4.65539C186.583 4.68353 186.63 4.73044 186.658 4.79143C186.789 5.07288 186.513 5.34495 186.232 5.21829C186.171 5.19015 186.125 5.14324 186.096 5.08226Z"
      fill="white" fill-opacity="0.1"/>
    <path
      d="M208.217 169.803C208.266 170.107 207.934 170.3 207.695 170.105C207.644 170.062 207.611 170.005 207.599 169.939C207.546 169.633 207.883 169.441 208.121 169.636C208.173 169.679 208.206 169.737 208.217 169.803Z"
      fill="white" fill-opacity="0.1"/>
    <path
      d="M237.195 7.47679C237.069 7.19534 237.341 6.92327 237.622 7.04992C237.683 7.07806 237.73 7.12497 237.758 7.18596C237.885 7.46741 237.613 7.73948 237.331 7.61283C237.27 7.58468 237.223 7.53777 237.195 7.47679Z"
      fill="white" fill-opacity="0.1"/>
    <path
      d="M159.479 154.265C159.529 154.569 159.195 154.762 158.956 154.566C158.905 154.523 158.872 154.466 158.86 154.4C158.811 154.095 159.144 153.903 159.383 154.098C159.435 154.141 159.468 154.198 159.479 154.265Z"
      fill="white" fill-opacity="0.1"/>
    <path
      d="M268.209 25.1548C268.078 24.8733 268.354 24.6012 268.635 24.7279C268.696 24.756 268.743 24.8029 268.771 24.8639C268.897 25.1454 268.626 25.4175 268.345 25.2908C268.284 25.2627 268.238 25.2157 268.209 25.1548Z"
      fill="white" fill-opacity="0.1"/>
    <path
      d="M134.097 129.162C134.151 129.468 133.814 129.659 133.575 129.464C133.524 129.421 133.491 129.364 133.48 129.298C133.43 128.993 133.763 128.8 134.001 128.995C134.053 129.038 134.086 129.096 134.097 129.162Z"
      fill="white" fill-opacity="0.1"/>
    <path
      d="M207.408 22.0206C207.277 21.7392 207.553 21.4671 207.833 21.5937C207.894 21.6219 207.941 21.6688 207.969 21.7298C208.095 22.0112 207.824 22.2833 207.543 22.1566C207.483 22.1285 207.436 22.0816 207.408 22.0206Z"
      fill="white" fill-opacity="0.8"/>
    <path
      d="M192.016 147.926C192.07 148.232 191.733 148.423 191.494 148.228C191.443 148.185 191.41 148.128 191.398 148.062C191.349 147.757 191.682 147.564 191.92 147.759C191.972 147.802 192.005 147.86 192.016 147.926Z"
      fill="white" fill-opacity="0.8"/>
    <path
      d="M265.702 1.963C265.571 1.68154 265.847 1.40947 266.127 1.53613C266.188 1.56427 266.235 1.61118 266.263 1.67216C266.389 1.95361 266.118 2.22569 265.837 2.09903C265.777 2.07089 265.73 2.02398 265.702 1.963Z"
      fill="white" fill-opacity="0.1"/>
    <path
      d="M130.517 152.213C130.571 152.518 130.234 152.71 129.995 152.515C129.944 152.472 129.911 152.414 129.899 152.348C129.85 152.044 130.183 151.851 130.421 152.046C130.472 152.089 130.506 152.146 130.517 152.213Z"
      fill="white" fill-opacity="0.1"/>
    <path
      d="M239.812 88.8962C252.342 94.25 259.524 94.25 266.5 94.25C273.511 94.25 280.154 94.25 293.188 100.343V122.104C280.658 116.75 273.476 116.75 266.5 116.75C259.489 116.75 252.846 116.75 239.812 110.658V88.8962ZM236 83V113C266.5 128 266.5 113 297 128V98C266.5 83 266.5 98 236 83Z"
      fill="#776BFF"/>
    <path
      d="M294 123V100.064C280.57 93.6427 273.725 93.6427 266.5 93.6427C259.312 93.6427 251.911 93.6427 239 88V110.936C252.43 117.357 259.275 117.357 266.5 117.357C273.688 117.357 281.089 117.357 294 123Z"
      fill="#564FAC"/>
    <path
      d="M266.5 113C270.642 113 274 109.642 274 105.5C274 101.358 270.642 98 266.5 98C262.358 98 259 101.358 259 105.5C259 109.642 262.358 113 266.5 113Z"
      fill="#A79FFF"/>
    <path
      d="M214.812 55.8962C227.342 61.25 234.524 61.25 241.5 61.25C248.511 61.25 255.154 61.25 268.188 67.3425V89.1038C255.658 83.75 248.476 83.75 241.5 83.75C234.489 83.75 227.846 83.75 214.812 77.6575V55.8962ZM211 50V80C241.5 95 241.5 80 272 95V65C241.5 50 241.5 65 211 50Z"
      fill="#3E369E"/>
    <path
      d="M269 90V67.0641C255.57 60.6427 248.725 60.6427 241.5 60.6427C234.312 60.6427 226.911 60.6427 214 55V77.9359C227.43 84.3573 234.275 84.3573 241.5 84.3573C248.688 84.3573 256.089 84.3573 269 90Z"
      fill="#574EBB"/>
    <path
      d="M241.5 80C245.642 80 249 76.6421 249 72.5C249 68.3579 245.642 65 241.5 65C237.358 65 234 68.3579 234 72.5C234 76.6421 237.358 80 241.5 80Z"
      fill="#776BFF"/>
    <rect x="179.5" y="58.5" width="63" height="63" rx="15.5" stroke="black"/>
    <rect opacity="0.6" x="177.5" y="56.5" width="67" height="67" rx="17.5" stroke="black"/>
    <rect opacity="0.3" x="175.5" y="54.5" width="71" height="71" rx="19.5" stroke="black"/>
    <g filter="url(#filter0_f_2016_23187)">
      <path
        d="M218 89C218 121.033 215.09 147 211.5 147C207.91 147 211.5 120.033 211.5 88C211.5 55.9675 207.91 31 211.5 31C215.09 31 218 56.9675 218 89Z"
        fill="url(#paint4_radial_2016_23187)"/>
      <path
        d="M218 89C218 121.033 215.09 147 211.5 147C207.91 147 211.5 120.033 211.5 88C211.5 55.9675 207.91 31 211.5 31C215.09 31 218 56.9675 218 89Z"
        fill="url(#paint5_radial_2016_23187)"/>
    </g>
    <line x1="211.5" y1="29" x2="211.5" y2="150" stroke="url(#paint6_radial_2016_23187)"/>
    <path
      d="M124.5 83.4737C116.492 83.4737 110 81.9186 110 80V98.5263C110 100.437 116.489 102 124.5 102C132.511 102 139 100.437 139 98.5263V80C139 81.9186 132.508 83.4737 124.5 83.4737Z"
      fill="#3B2ECD"/>
    <path
      d="M124.5 84C132.508 84 139 82.433 139 80.5C139 78.5669 132.508 77 124.5 77C116.492 77 110 78.5669 110 80.5C110 82.433 116.492 84 124.5 84Z"
      fill="#776BFF"/>
    <path
      d="M110 87.4797C113.288 89.4172 120.291 90 124.5 90C128.709 90 135.712 89.4172 139 87.4797V85C139 85.9256 134.066 88.0955 124.5 88.0955C114.934 88.0955 110 85.9256 110 85V87.4797Z"
      fill="#776BFF"/>
    <path
      d="M110 94.4797C113.288 96.4172 120.291 97 124.5 97C128.709 97 135.712 96.4172 139 94.4797V92C139 92.9256 134.066 95.0955 124.5 95.0955C114.934 95.0955 110 92.9256 110 92V94.4797Z"
      fill="#776BFF"/>
    <g clip-path="url(#clip1_2016_23187)">
      <rect x="181" y="60" width="60" height="60" rx="14.4444" fill="#111111"/>
      <g clip-path="url(#clip2_2016_23187)">
        <rect width="123.379" height="52.2222" transform="translate(272.688 120) rotate(180)" fill="white"/>
        <g filter="url(#filter1_df_2016_23187)">
          <ellipse cx="262.793" cy="108.408" rx="28.2315" ry="25.3698" transform="rotate(180 262.793 108.408)"
                   fill="#651D71"/>
        </g>
        <g filter="url(#filter2_df_2016_23187)">
          <ellipse cx="234.561" cy="109.063" rx="21.2486" ry="19.0852" transform="rotate(180 234.561 109.063)"
                   fill="#B797EC"/>
        </g>
        <g filter="url(#filter3_df_2016_23187)">
          <ellipse cx="201.918" cy="108.446" rx="32.644" ry="29.4181" transform="rotate(180 201.918 108.446)"
                   fill="#B797EC"/>
        </g>
        <g filter="url(#filter4_df_2016_23187)">
          <ellipse cx="163.319" cy="95.8772" rx="42.7113" ry="38.4402" transform="rotate(180 163.319 95.8772)"
                   fill="#651D71"/>
        </g>
        <g filter="url(#filter5_df_2016_23187)">
          <ellipse cx="192.707" cy="90.0167" rx="32.6868" ry="29.4181" transform="rotate(180 192.707 90.0167)"
                   fill="#3E43B5"/>
        </g>
        <g filter="url(#filter6_f_2016_23187)">
          <path
            d="M202.733 79.436C213.265 82.1962 230.488 85.6401 241.183 87.5148C251.781 85.022 257.357 110.861 267.931 113.475C277.701 115.891 293.278 100.224 293.278 100.224L293.278 24.5102L132.114 26.6777L136.135 62.047C136.135 62.047 143.831 93.0598 149.645 94.1157C164.373 96.7911 166.21 101.881 181.136 102.293C189.169 102.515 194.921 77.3887 202.733 79.436Z"
            fill="black"/>
        </g>
      </g>
      <path fill-rule="evenodd" clip-rule="evenodd"
            d="M202.691 96.3336L214.038 80.1281C215.045 78.6906 217.026 78.3412 218.464 79.3478C219.901 80.3544 220.25 82.3357 219.244 83.7732L207.897 99.9788C206.89 101.416 204.909 101.766 203.471 100.759C202.034 99.7525 201.684 97.7712 202.691 96.3336ZM220.775 76.0466C224.036 78.3298 224.828 82.824 222.545 86.0848L211.198 102.29C208.915 105.551 204.42 106.344 201.16 104.06C197.899 101.777 197.106 97.2828 199.39 94.0221L210.737 77.8166C213.02 74.5558 217.514 73.7634 220.775 76.0466Z"
            fill="white"/>
    </g>
  </g>
  <defs>
    <filter id="filter0_f_2016_23187" x="205.905" y="27" width="16.0955" height="124" filterUnits="userSpaceOnUse"
            color-interpolation-filters="sRGB">
      <feFlood flood-opacity="0" result="BackgroundImageFix"/>
      <feBlend mode="normal" in="SourceGraphic" in2="BackgroundImageFix" result="shape"/>
      <feGaussianBlur stdDeviation="2" result="effect1_foregroundBlur_2016_23187"/>
    </filter>
    <filter id="filter1_df_2016_23187" x="216.055" y="64.5313" width="93.4765" height="87.7531"
            filterUnits="userSpaceOnUse" color-interpolation-filters="sRGB">
      <feFlood flood-opacity="0" result="BackgroundImageFix"/>
      <feColorMatrix in="SourceAlpha" type="matrix" values="0 0 0 0 0 0 0 0 0 0 0 0 0 0 0 0 0 0 127 0"
                     result="hardAlpha"/>
      <feOffset/>
      <feGaussianBlur stdDeviation="3.08447"/>
      <feComposite in2="hardAlpha" operator="out"/>
      <feColorMatrix type="matrix" values="0 0 0 0 0.788235 0 0 0 0 0.698039 0 0 0 0 0.780392 0 0 0 1 0"/>
      <feBlend mode="normal" in2="BackgroundImageFix" result="effect1_dropShadow_2016_23187"/>
      <feBlend mode="normal" in="SourceGraphic" in2="effect1_dropShadow_2016_23187" result="shape"/>
      <feGaussianBlur stdDeviation="9.25341" result="effect2_foregroundBlur_2016_23187"/>
    </filter>
    <filter id="filter2_df_2016_23187" x="194.806" y="71.4712" width="79.5107" height="75.1839"
            filterUnits="userSpaceOnUse" color-interpolation-filters="sRGB">
      <feFlood flood-opacity="0" result="BackgroundImageFix"/>
      <feColorMatrix in="SourceAlpha" type="matrix" values="0 0 0 0 0 0 0 0 0 0 0 0 0 0 0 0 0 0 127 0"
                     result="hardAlpha"/>
      <feOffset/>
      <feGaussianBlur stdDeviation="3.08447"/>
      <feComposite in2="hardAlpha" operator="out"/>
      <feColorMatrix type="matrix" values="0 0 0 0 0.788235 0 0 0 0 0.698039 0 0 0 0 0.780392 0 0 0 1 0"/>
      <feBlend mode="normal" in2="BackgroundImageFix" result="effect1_dropShadow_2016_23187"/>
      <feBlend mode="normal" in="SourceGraphic" in2="effect1_dropShadow_2016_23187" result="shape"/>
      <feGaussianBlur stdDeviation="9.25341" result="effect2_foregroundBlur_2016_23187"/>
    </filter>
    <filter id="filter3_df_2016_23187" x="150.768" y="60.5214" width="102.301" height="95.8499"
            filterUnits="userSpaceOnUse" color-interpolation-filters="sRGB">
      <feFlood flood-opacity="0" result="BackgroundImageFix"/>
      <feColorMatrix in="SourceAlpha" type="matrix" values="0 0 0 0 0 0 0 0 0 0 0 0 0 0 0 0 0 0 127 0"
                     result="hardAlpha"/>
      <feOffset/>
      <feGaussianBlur stdDeviation="3.08447"/>
      <feComposite in2="hardAlpha" operator="out"/>
      <feColorMatrix type="matrix" values="0 0 0 0 0.788235 0 0 0 0 0.698039 0 0 0 0 0.780392 0 0 0 1 0"/>
      <feBlend mode="normal" in2="BackgroundImageFix" result="effect1_dropShadow_2016_23187"/>
      <feBlend mode="normal" in="SourceGraphic" in2="effect1_dropShadow_2016_23187" result="shape"/>
      <feGaussianBlur stdDeviation="9.25341" result="effect2_foregroundBlur_2016_23187"/>
    </filter>
    <filter id="filter4_df_2016_23187" x="102.101" y="38.9302" width="122.436" height="113.894"
            filterUnits="userSpaceOnUse" color-interpolation-filters="sRGB">
      <feFlood flood-opacity="0" result="BackgroundImageFix"/>
      <feColorMatrix in="SourceAlpha" type="matrix" values="0 0 0 0 0 0 0 0 0 0 0 0 0 0 0 0 0 0 127 0"
                     result="hardAlpha"/>
      <feOffset/>
      <feGaussianBlur stdDeviation="3.08447"/>
      <feComposite in2="hardAlpha" operator="out"/>
      <feColorMatrix type="matrix" values="0 0 0 0 0.788235 0 0 0 0 0.698039 0 0 0 0 0.780392 0 0 0 1 0"/>
      <feBlend mode="normal" in2="BackgroundImageFix" result="effect1_dropShadow_2016_23187"/>
      <feBlend mode="normal" in="SourceGraphic" in2="effect1_dropShadow_2016_23187" result="shape"/>
      <feGaussianBlur stdDeviation="9.25341" result="effect2_foregroundBlur_2016_23187"/>
    </filter>
    <filter id="filter5_df_2016_23187" x="141.513" y="42.0917" width="102.387" height="95.8499"
            filterUnits="userSpaceOnUse" color-interpolation-filters="sRGB">
      <feFlood flood-opacity="0" result="BackgroundImageFix"/>
      <feColorMatrix in="SourceAlpha" type="matrix" values="0 0 0 0 0 0 0 0 0 0 0 0 0 0 0 0 0 0 127 0"
                     result="hardAlpha"/>
      <feOffset/>
      <feGaussianBlur stdDeviation="3.08447"/>
      <feComposite in2="hardAlpha" operator="out"/>
      <feColorMatrix type="matrix" values="0 0 0 0 0.788235 0 0 0 0 0.698039 0 0 0 0 0.780392 0 0 0 1 0"/>
      <feBlend mode="normal" in2="BackgroundImageFix" result="effect1_dropShadow_2016_23187"/>
      <feBlend mode="normal" in="SourceGraphic" in2="effect1_dropShadow_2016_23187" result="shape"/>
      <feGaussianBlur stdDeviation="9.25341" result="effect2_foregroundBlur_2016_23187"/>
    </filter>
    <filter id="filter6_f_2016_23187" x="113.607" y="6.00343" width="198.177" height="126.232"
            filterUnits="userSpaceOnUse" color-interpolation-filters="sRGB">
      <feFlood flood-opacity="0" result="BackgroundImageFix"/>
      <feBlend mode="normal" in="SourceGraphic" in2="BackgroundImageFix" result="shape"/>
      <feGaussianBlur stdDeviation="9.25341" result="effect1_foregroundBlur_2016_23187"/>
    </filter>
    <linearGradient id="paint0_linear_2016_23187" x1="121.364" y1="-0.560303" x2="121.364" y2="21.5637"
                    gradientUnits="userSpaceOnUse">
      <stop stop-color="white" stop-opacity="0"/>
      <stop offset="1" stop-color="white"/>
    </linearGradient>
    <linearGradient id="paint1_linear_2016_23187" x1="99.7937" y1="128.865" x2="99.7937" y2="150.989"
                    gradientUnits="userSpaceOnUse">
      <stop stop-color="white" stop-opacity="0"/>
      <stop offset="1" stop-color="white"/>
    </linearGradient>
    <linearGradient id="paint2_linear_2016_23187" x1="315.502" y1="21.0107" x2="315.502" y2="43.1348"
                    gradientUnits="userSpaceOnUse">
      <stop stop-color="white" stop-opacity="0"/>
      <stop offset="1" stop-color="white"/>
    </linearGradient>
    <radialGradient id="paint3_radial_2016_23187" cx="0" cy="0" r="1" gradientUnits="userSpaceOnUse"
                    gradientTransform="translate(207.648 92.9137) rotate(90) scale(122.235 183.629)">
      <stop stop-color="white"/>
      <stop offset="1" stop-color="white" stop-opacity="0"/>
    </radialGradient>
    <radialGradient id="paint4_radial_2016_23187" cx="0" cy="0" r="1" gradientUnits="userSpaceOnUse"
                    gradientTransform="translate(211.5 89) rotate(90) scale(59.1837 13.5155)">
      <stop stop-color="white"/>
      <stop offset="1" stop-color="white" stop-opacity="0"/>
    </radialGradient>
    <radialGradient id="paint5_radial_2016_23187" cx="0" cy="0" r="1" gradientUnits="userSpaceOnUse"
                    gradientTransform="translate(211.5 89) rotate(90) scale(59.1837 13.5155)">
      <stop stop-color="#D3BFFF"/>
      <stop offset="1" stop-color="#D3BFFF" stop-opacity="0"/>
    </radialGradient>
    <radialGradient id="paint6_radial_2016_23187" cx="0" cy="0" r="1" gradientUnits="userSpaceOnUse"
                    gradientTransform="translate(210.5 89.5) rotate(90) scale(60.5 90.9518)">
      <stop stop-color="white"/>
      <stop offset="1" stop-color="white" stop-opacity="0"/>
    </radialGradient>
    <clipPath id="clip0_2016_23187">
      <rect width="416" height="172.598" fill="white"/>
    </clipPath>
    <clipPath id="clip1_2016_23187">
      <rect x="181" y="60" width="60" height="60" rx="14.4444" fill="white"/>
    </clipPath>
    <clipPath id="clip2_2016_23187">
      <rect width="123.379" height="52.2222" fill="white" transform="translate(272.688 120) rotate(180)"/>
    </clipPath>
  </defs>
</svg>
