<svg width="448" height="214" viewBox="0 0 448 214" fill="none" xmlns="http://www.w3.org/2000/svg">
  <g clip-path="url(#clip0_1969_23453)">
    <path opacity="0.1"
          d="M224 195.028C273.5 195.028 314 155.354 314 106.864C314 58.3745 273.5 18.701 224 18.701C174.5 18.701 134 58.3745 134 106.864C134 155.354 174.5 195.028 224 195.028Z"
          fill="url(#paint0_linear_1969_23453)" stroke="white" stroke-opacity="0.6" stroke-width="0.918367"
          stroke-linecap="round" stroke-linejoin="round"/>
    <path opacity="0.2"
          d="M224.5 176.415C263.275 176.415 295 145.338 295 107.354C295 69.3703 263.275 38.2927 224.5 38.2927C185.725 38.2927 154 69.3703 154 107.354C154 145.338 185.725 176.415 224.5 176.415Z"
          fill="url(#paint1_linear_1969_23453)" stroke="white" stroke-opacity="0.6" stroke-width="0.918367"
          stroke-linecap="round" stroke-linejoin="round"/>
    <path opacity="0.25"
          d="M224.498 156.823C252.273 156.823 274.998 134.562 274.998 107.354C274.998 80.1454 252.273 57.8842 224.498 57.8842C196.723 57.8842 173.998 80.1454 173.998 107.354C173.998 134.562 196.723 156.823 224.498 156.823Z"
          fill="url(#paint2_linear_1969_23453)" stroke="white" stroke-opacity="0.6" stroke-width="0.918367"
          stroke-linecap="round" stroke-linejoin="round"/>
    <path
      d="M215.964 96.5139V101.201H232.036V96.5139C232.036 92.1975 228.44 88.7014 224 88.7014C219.56 88.7014 215.964 92.1975 215.964 96.5139ZM209.536 101.201V96.5139C209.536 88.7502 216.015 82.4514 224 82.4514C231.985 82.4514 238.464 88.7502 238.464 96.5139V101.201H240.071C243.617 101.201 246.5 104.004 246.5 107.451V126.201C246.5 129.649 243.617 132.451 240.071 132.451H207.929C204.383 132.451 201.5 129.649 201.5 126.201V107.451C201.5 104.004 204.383 101.201 207.929 101.201H209.536Z"
      fill="url(#paint3_linear_1969_23453)"/>
    <path
      d="M215.339 101.201V101.826H215.964H232.036H232.661V101.201V96.5139C232.661 91.8359 228.768 88.0764 224 88.0764C219.232 88.0764 215.339 91.8359 215.339 96.5139V101.201ZM209.536 101.826H210.161V101.201V96.5139C210.161 89.1119 216.343 83.0764 224 83.0764C231.657 83.0764 237.839 89.1119 237.839 96.5139V101.201V101.826H238.464H240.071C243.289 101.826 245.875 104.366 245.875 107.451V126.201C245.875 129.287 243.289 131.826 240.071 131.826H207.929C204.711 131.826 202.125 129.287 202.125 126.201V107.451C202.125 104.366 204.711 101.826 207.929 101.826H209.536Z"
      stroke="white" stroke-opacity="0.2" stroke-width="1.25"/>
    <path opacity="0.25"
          d="M44.6475 158.55C56.5536 158.55 66.295 149.007 66.295 137.344C66.295 125.681 56.5536 116.139 44.6475 116.139C32.7414 116.139 23 125.681 23 137.344C23 149.007 32.7414 158.55 44.6475 158.55Z"
          fill="url(#paint4_linear_1969_23453)" stroke="white" stroke-opacity="0.6" stroke-width="0.39367"
          stroke-linecap="round" stroke-linejoin="round"/>
    <path fill-rule="evenodd" clip-rule="evenodd"
          d="M38.7174 141.741L46.8864 130.044C47.611 129.006 49.0374 128.754 50.0723 129.481C51.1072 130.207 51.3587 131.637 50.6341 132.675L42.4651 144.372C41.7405 145.409 40.3141 145.661 39.2792 144.935C38.2443 144.208 37.9928 142.778 38.7174 141.741ZM51.7364 127.098C54.0838 128.746 54.6543 131.99 53.0106 134.343L44.8417 146.04C43.198 148.394 39.9625 148.965 37.6151 147.318C35.2677 145.67 34.6972 142.426 36.3409 140.072L44.5098 128.376C46.1535 126.022 49.389 125.45 51.7364 127.098Z"
          fill="white" fill-opacity="0.7"/>
    <path opacity="0.25"
          d="M44.6475 97.4275C56.5536 97.4275 66.295 87.8849 66.295 76.2218C66.295 64.5587 56.5536 55.0161 44.6475 55.0161C32.7414 55.0161 23 64.5587 23 76.2218C23 87.8849 32.7414 97.4275 44.6475 97.4275Z"
          fill="url(#paint5_linear_1969_23453)" stroke="white" stroke-opacity="0.6" stroke-width="0.39367"
          stroke-linecap="round" stroke-linejoin="round"/>
    <path
      d="M44.5923 65.3807L37.9705 76.5218L44.5923 80.4914L51.2142 76.5218L44.5923 65.3807ZM44.5923 87.2617L37.9705 77.7955L44.5923 81.7915L51.2142 77.7955L44.5923 87.2617Z"
      fill="white" fill-opacity="0.7"/>
    <path d="M69.6907 67.7499C77.7322 69.0233 93.7443 78.6161 93.4605 106.8H133" stroke="white" stroke-opacity="0.2"
          stroke-width="0.848921" stroke-linejoin="round" stroke-dasharray="3.4 3.4"/>
    <path
      d="M364.354 107.055C364.549 106.859 364.549 106.543 364.354 106.348L361.172 103.166C360.976 102.97 360.66 102.97 360.464 103.166C360.269 103.361 360.269 103.677 360.464 103.873L363.293 106.701L360.464 109.529C360.269 109.725 360.269 110.041 360.464 110.237C360.66 110.432 360.976 110.432 361.172 110.237L364.354 107.055ZM316.083 107.201C316.359 107.201 316.583 106.977 316.583 106.701C316.583 106.425 316.359 106.201 316.083 106.201L316.083 107.201ZM320.25 106.201C319.974 106.201 319.75 106.425 319.75 106.701C319.75 106.977 319.974 107.201 320.25 107.201L320.25 106.201ZM324.417 107.201C324.693 107.201 324.917 106.977 324.917 106.701C324.917 106.425 324.693 106.201 324.417 106.201L324.417 107.201ZM328.583 106.201C328.307 106.201 328.083 106.425 328.083 106.701C328.083 106.977 328.307 107.201 328.583 107.201L328.583 106.201ZM332.75 107.201C333.026 107.201 333.25 106.977 333.25 106.701C333.25 106.425 333.026 106.201 332.75 106.201L332.75 107.201ZM336.917 106.201C336.641 106.201 336.417 106.425 336.417 106.701C336.417 106.977 336.641 107.201 336.917 107.201L336.917 106.201ZM341.083 107.201C341.359 107.201 341.583 106.977 341.583 106.701C341.583 106.425 341.359 106.201 341.083 106.201L341.083 107.201ZM345.25 106.201C344.974 106.201 344.75 106.425 344.75 106.701C344.75 106.977 344.974 107.201 345.25 107.201L345.25 106.201ZM349.417 107.201C349.693 107.201 349.917 106.977 349.917 106.701C349.917 106.425 349.693 106.201 349.417 106.201L349.417 107.201ZM353.583 106.201C353.307 106.201 353.083 106.425 353.083 106.701C353.083 106.977 353.307 107.201 353.583 107.201L353.583 106.201ZM357.75 107.201C358.026 107.201 358.25 106.977 358.25 106.701C358.25 106.425 358.026 106.201 357.75 106.201L357.75 107.201ZM361.917 106.201C361.641 106.201 361.417 106.425 361.417 106.701C361.417 106.977 361.641 107.201 361.917 107.201L361.917 106.201ZM314 107.201L316.083 107.201L316.083 106.201L314 106.201L314 107.201ZM320.25 107.201L324.417 107.201L324.417 106.201L320.25 106.201L320.25 107.201ZM328.583 107.201L332.75 107.201L332.75 106.201L328.583 106.201L328.583 107.201ZM336.917 107.201L341.083 107.201L341.083 106.201L336.917 106.201L336.917 107.201ZM345.25 107.201L349.417 107.201L349.417 106.201L345.25 106.201L345.25 107.201ZM353.583 107.201L357.75 107.201L357.75 106.201L353.583 106.201L353.583 107.201ZM361.917 107.201L364 107.201L364 106.201L361.917 106.201L361.917 107.201Z"
      fill="white" fill-opacity="0.2"/>
    <path d="M69.6907 145.85C77.7309 144.577 93.7405 134.984 93.4567 106.8" stroke="white" stroke-opacity="0.2"
          stroke-width="0.848921" stroke-linejoin="round" stroke-dasharray="3.4 3.4"/>
    <g opacity="0.5" clip-path="url(#clip1_1969_23453)">
      <path
        d="M396.422 160.96C410.314 156.725 418.144 142.031 413.909 128.139C409.675 114.246 394.981 106.417 381.088 110.651C367.196 114.885 359.366 129.58 363.601 143.472C367.835 157.364 382.529 165.194 396.422 160.96Z"
        fill="#F4900C"/>
      <path
        d="M395.52 158C409.412 153.766 417.241 139.072 413.007 125.179C408.773 111.287 394.079 103.457 380.186 107.692C366.294 111.926 358.464 126.62 362.698 140.513C366.933 154.405 381.627 162.235 395.52 158Z"
        fill="#FFCC4D"/>
      <path
        d="M394.619 155.041C406.059 151.554 412.507 139.452 409.02 128.012C405.533 116.571 393.432 110.123 381.991 113.61C370.55 117.097 364.102 129.198 367.589 140.639C371.076 152.08 383.178 158.528 394.619 155.041Z"
        fill="#FFE8B6"/>
      <path
        d="M394.168 153.561C405.609 150.074 412.056 137.973 408.57 126.532C405.083 115.091 392.981 108.643 381.54 112.13C370.1 115.617 363.652 127.719 367.139 139.159C370.626 150.6 382.727 157.048 394.168 153.561Z"
        fill="#FFAC33"/>
      <g style="mix-blend-mode:color">
        <rect x="355.032" y="115.358" width="52.5937" height="55.6874" rx="26.2968"
              transform="rotate(-16.9504 355.032 115.358)" fill="#331B58"/>
      </g>
      <path
        d="M381.813 139.654L384.814 138.85C385.254 140.494 387.685 141.343 390.131 140.688C392.577 140.033 394.258 138.081 393.817 136.437C393.368 134.763 391.645 134.572 388.127 134.65C384.73 134.695 380.499 134.752 379.366 130.52C378.635 127.795 380.221 124.89 383.059 123.298L382.17 119.979L386.672 118.773L387.561 122.092C390.815 122.052 393.641 123.775 394.371 126.5L391.37 127.304C390.929 125.66 388.498 124.81 386.052 125.465C383.607 126.121 381.926 128.072 382.367 129.716C382.815 131.391 384.539 131.581 388.056 131.504C391.454 131.458 395.684 131.401 396.818 135.633C397.548 138.358 395.962 141.263 393.124 142.855L394.014 146.174L389.512 147.38L388.623 144.062C385.369 144.101 382.543 142.379 381.813 139.654Z"
        fill="#E4D3FF"/>
    </g>
    <g opacity="0.5" clip-path="url(#clip2_1969_23453)">
      <path
        d="M454.411 132.424C466.596 124.52 470.065 108.235 462.161 96.0508C454.257 83.8666 437.973 80.3969 425.788 88.3009C413.604 96.2049 410.135 112.49 418.039 124.674C425.943 136.858 442.227 140.328 454.411 132.424Z"
        fill="#F4900C"/>
      <path
        d="M452.727 129.828C464.911 121.924 468.381 105.639 460.477 93.455C452.573 81.2708 436.288 77.8011 424.104 85.7051C411.92 93.6091 408.45 109.894 416.354 122.078C424.258 134.262 440.543 137.732 452.727 129.828Z"
        fill="#FFCC4D"/>
      <path
        d="M451.043 127.232C461.077 120.723 463.934 107.312 457.425 97.2781C450.916 87.244 437.505 84.3866 427.471 90.8958C417.437 97.405 414.579 110.816 421.088 120.85C427.598 130.884 441.009 133.741 451.043 127.232Z"
        fill="#FFE8B6"/>
      <path
        d="M450.201 125.934C460.236 119.425 463.093 106.014 456.584 95.9803C450.075 85.9463 436.664 83.0889 426.63 89.5981C416.596 96.1073 413.738 109.518 420.247 119.552C426.757 129.586 440.167 132.444 450.201 125.934Z"
        fill="#FFAC33"/>
      <g style="mix-blend-mode:color">
        <rect x="402.042" y="100.017" width="52.5937" height="55.6874" rx="26.2968"
              transform="rotate(-32.972 402.042 100.017)" fill="#331B58"/>
      </g>
      <path
        d="M435.092 116.731L437.783 115.178C438.634 116.652 441.202 116.843 443.395 115.577C445.588 114.311 446.706 111.991 445.855 110.517C444.988 109.016 443.274 109.278 439.896 110.263C436.627 111.187 432.555 112.336 430.364 108.542C428.954 106.099 429.734 102.883 432.063 100.61L430.345 97.6346L434.381 95.3044L436.099 98.2797C439.232 97.3991 442.407 98.3318 443.818 100.775L441.127 102.328C440.276 100.854 437.708 100.663 435.515 101.929C433.322 103.195 432.204 105.515 433.055 106.989C433.922 108.49 435.636 108.228 439.014 107.243C442.283 106.319 446.355 105.17 448.546 108.964C449.956 111.407 449.176 114.623 446.847 116.896L448.565 119.871L444.529 122.202L442.811 119.226C439.678 120.107 436.503 119.174 435.092 116.731Z"
        fill="#E4D3FF"/>
    </g>
    <g clip-path="url(#clip3_1969_23453)">
      <path
        d="M404.144 113.768C418.589 112.255 429.071 99.3184 427.558 84.8741C426.045 70.4298 413.108 59.9472 398.664 61.4605C384.22 62.9738 373.737 75.91 375.251 90.3542C376.764 104.799 389.7 115.281 404.144 113.768Z"
        fill="#F4900C"/>
      <path
        d="M403.822 110.691C418.266 109.178 428.748 96.2416 427.235 81.7973C425.722 67.353 412.786 56.8704 398.341 58.3837C383.897 59.897 373.415 72.8332 374.928 87.2775C376.441 101.722 389.377 112.204 403.822 110.691Z"
        fill="#FFCC4D"/>
      <path
        d="M403.498 107.614C415.394 106.368 424.026 95.7146 422.78 83.8193C421.534 71.924 410.881 63.2913 398.985 64.5375C387.09 65.7838 378.457 76.4371 379.704 88.3324C380.95 100.228 391.603 108.86 403.498 107.614Z"
        fill="#FFE8B6"/>
      <path
        d="M403.337 106.075C415.233 104.829 423.865 94.1759 422.619 82.2806C421.373 70.3853 410.72 61.7526 398.824 62.9988C386.929 64.2451 378.296 74.8984 379.542 86.7937C380.789 98.689 391.442 107.322 403.337 106.075Z"
        fill="#FFAC33"/>
      <g style="mix-blend-mode:color">
        <rect x="372.188" y="61.1238" width="52.5937" height="55.6874" rx="26.2968"
              transform="rotate(-5.98096 372.188 61.1238)" fill="#331B58"/>
      </g>
      <path
        d="M393.768 90.144L396.866 89.9124C396.993 91.6097 399.223 92.8969 401.748 92.7082C404.273 92.5194 406.288 90.9149 406.161 89.2176C406.031 87.4889 404.373 86.9807 400.903 86.4025C397.557 85.8151 393.389 85.0835 393.063 80.7145C392.852 77.9014 394.951 75.3424 398.036 74.3058L397.78 70.8797L402.427 70.5323L402.683 73.9584C405.888 74.5248 408.344 76.7434 408.554 79.5565L405.456 79.7881C405.329 78.0908 403.099 76.8036 400.573 76.9924C398.048 77.1811 396.034 78.7856 396.161 80.4829C396.29 82.2117 397.948 82.7199 401.419 83.298C404.765 83.8855 408.932 84.617 409.259 88.986C409.469 91.7992 407.371 94.3582 404.286 95.3948L404.542 98.8208L399.894 99.1682L399.638 95.7422C396.434 95.1757 393.978 92.9572 393.768 90.144Z"
        fill="#E4D3FF"/>
    </g>
  </g>
  <defs>
    <linearGradient id="paint0_linear_1969_23453" x1="224" y1="18.701" x2="224" y2="195.028"
                    gradientUnits="userSpaceOnUse">
      <stop stop-color="white" stop-opacity="0.5"/>
      <stop offset="1" stop-color="white" stop-opacity="0.05"/>
    </linearGradient>
    <linearGradient id="paint1_linear_1969_23453" x1="224.5" y1="38.2927" x2="224.5" y2="176.415"
                    gradientUnits="userSpaceOnUse">
      <stop stop-color="white" stop-opacity="0.5"/>
      <stop offset="1" stop-color="white" stop-opacity="0.05"/>
    </linearGradient>
    <linearGradient id="paint2_linear_1969_23453" x1="224.498" y1="57.8842" x2="224.498" y2="156.823"
                    gradientUnits="userSpaceOnUse">
      <stop stop-color="white" stop-opacity="0.5"/>
      <stop offset="1" stop-color="white" stop-opacity="0.05"/>
    </linearGradient>
    <linearGradient id="paint3_linear_1969_23453" x1="224" y1="82.4514" x2="224" y2="132.451"
                    gradientUnits="userSpaceOnUse">
      <stop stop-color="white" stop-opacity="0.7"/>
      <stop offset="1" stop-color="white" stop-opacity="0.2"/>
    </linearGradient>
    <linearGradient id="paint4_linear_1969_23453" x1="44.6475" y1="116.139" x2="44.6475" y2="158.55"
                    gradientUnits="userSpaceOnUse">
      <stop stop-color="white" stop-opacity="0.5"/>
      <stop offset="1" stop-color="white" stop-opacity="0.05"/>
    </linearGradient>
    <linearGradient id="paint5_linear_1969_23453" x1="44.6475" y1="55.0161" x2="44.6475" y2="97.4275"
                    gradientUnits="userSpaceOnUse">
      <stop stop-color="white" stop-opacity="0.5"/>
      <stop offset="1" stop-color="white" stop-opacity="0.05"/>
    </linearGradient>
    <clipPath id="clip0_1969_23453">
      <rect width="448" height="212.598" fill="white" transform="translate(0 0.70105)"/>
    </clipPath>
    <clipPath id="clip1_1969_23453">
      <rect width="55.6874" height="55.6874" fill="white" transform="translate(353.552 115.809) rotate(-16.9504)"/>
    </clipPath>
    <clipPath id="clip2_1969_23453">
      <rect width="55.6874" height="55.6874" fill="white" transform="translate(400.744 100.858) rotate(-32.972)"/>
    </clipPath>
    <clipPath id="clip3_1969_23453">
      <rect width="55.6874" height="55.6874" fill="white" transform="translate(370.648 61.2845) rotate(-5.98096)"/>
    </clipPath>
  </defs>
</svg>
