<svg width="45" height="20" viewBox="0 0 45 20" fill="none" xmlns="http://www.w3.org/2000/svg">
  <rect x="0.5" y="0.5" width="44" height="19" rx="9.5" fill="#362D51"/>
  <rect x="0.5" y="0.5" width="44" height="19" rx="9.5" stroke="#70619E"/>
  <rect x="0.5" y="0.5" width="19" height="19" rx="9.5" fill="#534873"/>
  <rect x="0.5" y="0.5" width="19" height="19" rx="9.5" stroke="#70619E"/>
  <g clip-path="url(#clip0_1969_23445)">
    <path fill-rule="evenodd" clip-rule="evenodd"
          d="M7.29989 12.0233L11.0279 6.69916C11.3586 6.22688 12.0095 6.1121 12.4818 6.4428C12.9541 6.77349 13.0688 7.42444 12.7381 7.89672L9.01017 13.2208C8.67948 13.6931 8.02854 13.8079 7.55626 13.4772C7.08397 13.1465 6.9692 12.4955 7.29989 12.0233ZM13.2412 5.35823C14.3125 6.10834 14.5728 7.58487 13.8227 8.65614L10.0947 13.9802C9.34463 15.0515 7.86811 15.3119 6.79683 14.5617C5.72556 13.8116 5.46521 12.3351 6.21532 11.2638L9.94329 5.93974C10.6934 4.86847 12.1699 4.60812 13.2412 5.35823Z"
          fill="url(#paint0_linear_1969_23445)"/>
    <path fill-rule="evenodd" clip-rule="evenodd"
          d="M7.29989 12.0233L11.0279 6.69916C11.3586 6.22688 12.0095 6.1121 12.4818 6.4428C12.9541 6.77349 13.0688 7.42444 12.7381 7.89672L9.01017 13.2208C8.67948 13.6931 8.02854 13.8079 7.55626 13.4772C7.08397 13.1465 6.9692 12.4955 7.29989 12.0233ZM13.2412 5.35823C14.3125 6.10834 14.5728 7.58487 13.8227 8.65614L10.0947 13.9802C9.34463 15.0515 7.86811 15.3119 6.79683 14.5617C5.72556 13.8116 5.46521 12.3351 6.21532 11.2638L9.94329 5.93974C10.6934 4.86847 12.1699 4.60812 13.2412 5.35823Z"
          fill="#C6B6F7"/>
  </g>
  <path
    d="M23.7 14.993L23.707 14.055L28.264 9.939C28.656 9.58433 28.915 9.24833 29.041 8.931C29.1717 8.609 29.237 8.273 29.237 7.923C29.237 7.50767 29.139 7.132 28.943 6.796C28.747 6.46 28.4833 6.194 28.152 5.998C27.8207 5.79733 27.4497 5.697 27.039 5.697C26.6097 5.697 26.227 5.79967 25.891 6.005C25.555 6.21033 25.289 6.481 25.093 6.817C24.9017 7.153 24.8083 7.51933 24.813 7.916H23.763C23.763 7.30467 23.9077 6.75633 24.197 6.271C24.4863 5.78567 24.8783 5.40533 25.373 5.13C25.8677 4.85 26.4277 4.71 27.053 4.71C27.6643 4.71 28.2127 4.85467 28.698 5.144C29.188 5.42867 29.573 5.816 29.853 6.306C30.1377 6.79133 30.28 7.33267 30.28 7.93C30.28 8.35 30.2287 8.721 30.126 9.043C30.028 9.36033 29.8717 9.65667 29.657 9.932C29.447 10.2027 29.1787 10.4827 28.852 10.772L24.806 14.426L24.645 14.006H30.28V14.993H23.7ZM31.1244 15L34.0784 11.178L31.1874 7.44H32.4194L34.6804 10.387L36.9204 7.44H38.1524L35.2614 11.178L38.2224 15H36.9834L34.6804 11.969L32.3634 15H31.1244Z"
    fill="#C6B6F7"/>
  <defs>
    <linearGradient id="paint0_linear_1969_23445" x1="12.3756" y1="2.46612" x2="2.709" y2="16.2714"
                    gradientUnits="userSpaceOnUse">
      <stop stop-color="#6459E3"/>
      <stop offset="1" stop-color="#BAA7ED"/>
    </linearGradient>
    <clipPath id="clip0_1969_23445">
      <rect width="12" height="12" fill="white" transform="translate(4 4)"/>
    </clipPath>
  </defs>
</svg>
