<svg width="20" height="20" viewBox="0 0 20 20" fill="none" xmlns="http://www.w3.org/2000/svg">
  <path
    d="M10.7695 3.60437C10.3184 3.24125 9.67909 3.24125 9.22797 3.60437C8.0089 4.58564 6.92153 5.7291 5.9942 7.00479C5.8802 7.15956 5.8189 7.35431 5.8344 7.56102C5.86883 8.01997 6.26878 8.36412 6.72773 8.3297C8.90534 8.16638 11.0921 8.16638 13.2697 8.3297C13.7287 8.36412 14.1286 8.01997 14.1631 7.56102C14.1786 7.3543 14.1173 7.15955 14.0033 7.00478C13.0759 5.7291 11.9886 4.58564 10.7695 3.60437Z"
    fill="white" fill-opacity="0.5"/>
  <path
    d="M6.72773 11.6677C6.26878 11.6333 5.86883 11.9774 5.8344 12.4364C5.8189 12.6431 5.8802 12.8379 5.99421 12.9926C6.92154 14.2683 8.00891 15.4118 9.22797 16.393C9.67909 16.7561 10.3184 16.7561 10.7695 16.393C11.9886 15.4118 13.0759 14.2683 14.0033 12.9926C14.1173 12.8379 14.1786 12.6431 14.1631 12.4364C14.1286 11.9774 13.7287 11.6333 13.2697 11.6677C11.0921 11.831 8.90534 11.831 6.72773 11.6677Z"
    fill="white" fill-opacity="0.5"/>
</svg>
