<svg width="20" height="20" viewBox="0 0 20 20" fill="none" xmlns="http://www.w3.org/2000/svg">
  <path
    d="M10.7707 3.60437C10.3196 3.24125 9.68031 3.24125 9.2292 3.60437C8.01013 4.58564 6.92275 5.7291 5.99542 7.00479C5.88142 7.15956 5.82012 7.35431 5.83562 7.56102C5.87005 8.01997 6.27 8.36412 6.72895 8.3297C8.90656 8.16638 11.0934 8.16638 13.271 8.3297C13.7299 8.36412 14.1299 8.01997 14.1643 7.56102C14.1798 7.3543 14.1185 7.15955 14.0045 7.00478C13.0772 5.7291 11.9898 4.58564 10.7707 3.60437Z"
    fill="#6C6C89"/>
  <path
    d="M6.72895 11.6677C6.27 11.6333 5.87005 11.9774 5.83562 12.4364C5.82012 12.6431 5.88142 12.8379 5.99543 12.9926C6.92276 14.2683 8.01013 15.4118 9.2292 16.393C9.68031 16.7561 10.3196 16.7561 10.7707 16.393C11.9898 15.4118 13.0772 14.2683 14.0045 12.9926C14.1185 12.8379 14.1798 12.6431 14.1643 12.4364C14.1299 11.9774 13.7299 11.6333 13.271 11.6677C11.0934 11.831 8.90656 11.831 6.72895 11.6677Z"
    fill="#6C6C89"/>
</svg>
