<svg width="20" height="20" viewBox="0 0 20 20" fill="none" xmlns="http://www.w3.org/2000/svg">
  <path
    d="M16.0568 4.44236C14.9485 3.92569 13.7485 3.55069 12.4985 3.33402C12.4875 3.33367 12.4766 3.33573 12.4665 3.34005C12.4565 3.34437 12.4474 3.35084 12.4401 3.35902C12.2901 3.63402 12.1151 3.99236 11.9985 4.26736C10.6726 4.06736 9.32431 4.06736 7.99847 4.26736C7.8818 3.98402 7.70681 3.63402 7.54847 3.35902C7.54014 3.34236 7.51514 3.33402 7.49014 3.33402C6.24014 3.55069 5.04847 3.92569 3.9318 4.44236C3.92347 4.44236 3.91514 4.45069 3.9068 4.45902C1.64014 7.85069 1.01514 11.1507 1.32347 14.4174C1.32347 14.434 1.3318 14.4507 1.34847 14.459C2.84847 15.559 4.29014 16.2257 5.71514 16.6674C5.74014 16.6757 5.76514 16.6674 5.77347 16.6507C6.1068 16.1924 6.4068 15.709 6.66514 15.2007C6.6818 15.1674 6.66514 15.134 6.6318 15.1257C6.1568 14.9424 5.7068 14.7257 5.26514 14.4757C5.2318 14.459 5.2318 14.409 5.2568 14.384C5.34847 14.3174 5.44014 14.2424 5.5318 14.1757C5.54847 14.159 5.57347 14.159 5.59014 14.1674C8.4568 15.4757 11.5485 15.4757 14.3818 14.1674C14.3985 14.159 14.4235 14.159 14.4401 14.1757C14.5318 14.2507 14.6235 14.3174 14.7151 14.3924C14.7485 14.4174 14.7485 14.4674 14.7068 14.484C14.2735 14.7424 13.8151 14.9507 13.3401 15.134C13.3068 15.1424 13.2985 15.184 13.3068 15.209C13.5735 15.7174 13.8735 16.2007 14.1985 16.659C14.2235 16.6674 14.2485 16.6757 14.2735 16.6674C15.7068 16.2257 17.1485 15.559 18.6485 14.459C18.6651 14.4507 18.6735 14.434 18.6735 14.4174C19.0401 10.6424 18.0651 7.36736 16.0901 4.45902C16.0818 4.45069 16.0735 4.44236 16.0568 4.44236ZM7.09847 12.4257C6.24014 12.4257 5.52347 11.634 5.52347 10.659C5.52347 9.68402 6.22347 8.89236 7.09847 8.89236C7.98181 8.89236 8.6818 9.69236 8.67347 10.659C8.67347 11.634 7.97347 12.4257 7.09847 12.4257ZM12.9068 12.4257C12.0485 12.4257 11.3318 11.634 11.3318 10.659C11.3318 9.68402 12.0318 8.89236 12.9068 8.89236C13.7901 8.89236 14.4901 9.69236 14.4818 10.659C14.4818 11.634 13.7901 12.4257 12.9068 12.4257Z"
    fill="white"/>
</svg>
