<svg width="20" height="20" viewBox="0 0 20 20" fill="none" xmlns="http://www.w3.org/2000/svg">
  <path
    d="M4 17V4.5C4 3.83696 4.26339 3.20107 4.73223 2.73223C5.20107 2.26339 5.83696 2 6.5 2H11.5C12.163 2 12.7989 2.26339 13.2678 2.73223C13.7366 3.20107 14 3.83696 14 4.5V13.5C14 13.8978 14.158 14.2794 14.4393 14.5607C14.7206 14.842 15.1022 15 15.5 15C15.8978 15 16.2794 14.842 16.5607 14.5607C16.842 14.2794 17 13.8978 17 13.5V9.167C17 8.84244 16.8947 8.52664 16.7 8.267L15.6 6.8C15.5204 6.69391 15.4863 6.56056 15.505 6.42929C15.5238 6.29801 15.5939 6.17956 15.7 6.1C15.8061 6.02043 15.9394 5.98627 16.0707 6.00503C16.202 6.02378 16.3204 6.09391 16.4 6.2L17.5 7.667C17.825 8.099 18 8.626 18 9.167V13.5C18 13.9643 17.8707 14.4194 17.6266 14.8143C17.3825 15.2093 17.0333 15.5284 16.618 15.7361C16.2028 15.9437 15.7379 16.0316 15.2755 15.9899C14.8131 15.9482 14.3714 15.7786 14 15.5V17H14.5C14.6326 17 14.7598 17.0527 14.8536 17.1464C14.9473 17.2402 15 17.3674 15 17.5C15 17.6326 14.9473 17.7598 14.8536 17.8536C14.7598 17.9473 14.6326 18 14.5 18H3.5C3.36739 18 3.24021 17.9473 3.14645 17.8536C3.05268 17.7598 3 17.6326 3 17.5C3 17.3674 3.05268 17.2402 3.14645 17.1464C3.24021 17.0527 3.36739 17 3.5 17H4ZM6.5 4C6.36739 4 6.24021 4.05268 6.14645 4.14645C6.05268 4.24021 6 4.36739 6 4.5V7.5C6 7.63261 6.05268 7.75979 6.14645 7.85355C6.24021 7.94732 6.36739 8 6.5 8H11.5C11.6326 8 11.7598 7.94732 11.8536 7.85355C11.9473 7.75979 12 7.63261 12 7.5V4.5C12 4.36739 11.9473 4.24021 11.8536 4.14645C11.7598 4.05268 11.6326 4 11.5 4H6.5Z"
    fill="white"/>
</svg>
