<svg width="17" height="16" viewBox="0 0 17 16" fill="none" xmlns="http://www.w3.org/2000/svg">
  <g clip-path="url(#clip0_2808_92650)">
    <path
      d="M8.39037 11.9055L4.39037 13.4367C4.20599 13.5055 4.01224 13.3648 4.02162 13.168L4.24037 8.88984C4.24349 8.82422 4.22162 8.75859 4.18099 8.70547L1.48724 5.37422C1.36224 5.22109 1.43724 4.99297 1.62787 4.93984L5.76537 3.82734C5.831 3.80859 5.88725 3.76797 5.92162 3.71172L8.25912 0.124219C8.36537 -0.0414063 8.60912 -0.0414063 8.71537 0.124219L11.0529 3.71484C11.0904 3.77109 11.1466 3.81172 11.2091 3.83047L15.3466 4.94297C15.5372 4.99297 15.6122 5.22422 15.4872 5.37734L12.7966 8.70859C12.756 8.76172 12.7341 8.82734 12.7372 8.89297L12.956 13.1711C12.9654 13.368 12.7716 13.5086 12.5872 13.4398L8.58724 11.9086C8.52162 11.8836 8.45287 11.8836 8.39037 11.9055Z"
      fill="#8A8AA3"/>
    <path
      d="M14.7545 1.61657L13.4732 0.335324C13.4357 0.297824 13.3857 0.282199 13.3357 0.288449C13.2857 0.294699 13.2388 0.325949 13.2138 0.369699L11.892 2.97282C11.8545 3.03845 11.867 3.11657 11.9201 3.1697C11.9513 3.20095 11.9951 3.21657 12.0357 3.21657C12.0638 3.21657 12.092 3.21032 12.117 3.1947L14.717 1.87595C14.7607 1.85095 14.792 1.8072 14.7982 1.75407C14.8076 1.70407 14.7888 1.65407 14.7545 1.61657ZM5.16071 2.97595L3.83884 0.372824C3.81384 0.329074 3.77009 0.297824 3.71696 0.291574C3.66696 0.285324 3.61384 0.300949 3.57946 0.338449L2.29821 1.6197C2.26071 1.6572 2.24509 1.7072 2.25134 1.7572C2.25759 1.8072 2.28884 1.85407 2.33259 1.87907L4.93571 3.20095C4.96071 3.21657 4.98884 3.22282 5.01696 3.22282C5.06071 3.22282 5.10134 3.2072 5.13259 3.17595C5.18571 3.1197 5.19509 3.03845 5.16071 2.97595ZM9.55759 15.7884L8.65134 13.0134C8.64509 12.9853 8.62946 12.9603 8.61071 12.9416C8.57946 12.9103 8.53884 12.8947 8.49509 12.8947C8.42009 12.8947 8.35759 12.9447 8.33571 13.0166L7.42946 15.7916C7.41696 15.8416 7.42634 15.8947 7.45759 15.9353C7.48884 15.9759 7.53571 16.0009 7.58884 16.0009H9.39821C9.44822 16.0009 9.49821 15.9759 9.52946 15.9353C9.56384 15.8916 9.57321 15.8384 9.55759 15.7884Z"
      fill="#8A8AA3"/>
  </g>
  <defs>
    <clipPath id="clip0_2808_92650">
      <rect width="16" height="16" fill="white" transform="translate(0.5)"/>
    </clipPath>
  </defs>
</svg>
