<svg width="20" height="20" viewBox="0 0 20 20" fill="none" xmlns="http://www.w3.org/2000/svg">
  <path
    d="M11.7168 8.28353L10.8334 7.8752C10.7607 7.84205 10.699 7.78868 10.6558 7.72145C10.6125 7.65422 10.5895 7.57597 10.5895 7.49603C10.5895 7.41609 10.6125 7.33784 10.6558 7.27061C10.699 7.20338 10.7607 7.15001 10.8334 7.11686L11.7168 6.70853L12.1251 5.83353C12.1582 5.76078 12.2116 5.69911 12.2788 5.65586C12.3461 5.61261 12.4243 5.58962 12.5043 5.58962C12.5842 5.58962 12.6625 5.61261 12.7297 5.65586C12.7969 5.69911 12.8503 5.76078 12.8834 5.83353L13.2918 6.71686L14.1668 7.1252C14.2395 7.15834 14.3012 7.21171 14.3444 7.27894C14.3877 7.34617 14.4107 7.42442 14.4107 7.50436C14.4107 7.5843 14.3877 7.66255 14.3444 7.72978C14.3012 7.79701 14.2395 7.85039 14.1668 7.88353L13.2834 8.29186L12.8751 9.16686C12.842 9.23961 12.7886 9.30128 12.7214 9.34453C12.6541 9.38778 12.5759 9.41078 12.4959 9.41078C12.416 9.41078 12.3377 9.38778 12.2705 9.34453C12.2033 9.30128 12.1499 9.23961 12.1168 9.16686L11.7168 8.28353ZM3.70843 10.8335L4.11676 9.95019L5.0001 9.54186C5.07284 9.50872 5.13452 9.45535 5.17777 9.38812C5.22102 9.32089 5.24401 9.24263 5.24401 9.1627C5.24401 9.08276 5.22102 9.0045 5.17777 8.93727C5.13452 8.87004 5.07284 8.81667 5.0001 8.78353L4.11676 8.3752L3.70843 7.5002C3.67631 7.42753 3.62377 7.36576 3.55719 7.3224C3.49062 7.27904 3.41288 7.25595 3.33343 7.25595C3.25398 7.25595 3.17624 7.27904 3.10967 7.3224C3.04309 7.36576 2.99055 7.42753 2.95843 7.5002L2.5501 8.38353L1.66676 8.79186C1.59402 8.82501 1.53234 8.87838 1.4891 8.94561C1.44585 9.01284 1.42285 9.09109 1.42285 9.17103C1.42285 9.25097 1.44585 9.32922 1.4891 9.39645C1.53234 9.46368 1.59402 9.51705 1.66676 9.5502L2.5501 9.95853L2.95843 10.8335C3.1001 11.1585 3.56676 11.1585 3.70843 10.8335ZM7.46676 6.65853L7.99176 5.49186L9.15843 4.96686C9.23118 4.93372 9.29285 4.88035 9.3361 4.81312C9.37935 4.74589 9.40234 4.66764 9.40234 4.5877C9.40234 4.50776 9.37935 4.4295 9.3361 4.36227C9.29285 4.29504 9.23118 4.24167 9.15843 4.20853L7.99176 3.68353L7.46676 2.51686C7.43362 2.44412 7.38025 2.38244 7.31302 2.33919C7.24579 2.29594 7.16754 2.27295 7.0876 2.27295C7.00766 2.27295 6.92941 2.29594 6.86218 2.33919C6.79495 2.38244 6.74157 2.44412 6.70843 2.51686L6.18343 3.68353L5.01676 4.20853C4.94402 4.24167 4.88234 4.29504 4.8391 4.36227C4.79585 4.4295 4.77285 4.50776 4.77285 4.5877C4.77285 4.66764 4.79585 4.74589 4.8391 4.81312C4.88234 4.88035 4.94402 4.93372 5.01676 4.96686L6.18343 5.49186L6.70843 6.65853C6.8501 6.98353 7.31676 6.98353 7.46676 6.65853ZM18.6168 6.89186C18.5367 6.81202 18.4412 6.74932 18.3361 6.70756C18.231 6.66581 18.1185 6.64589 18.0054 6.64901C17.8924 6.65213 17.7812 6.67822 17.6785 6.7257C17.5759 6.77319 17.484 6.84106 17.4084 6.9252L12.0834 12.9085L9.34176 10.1669C9.26467 10.0896 9.1731 10.0283 9.07228 9.9865C8.97147 9.94468 8.8634 9.92316 8.75426 9.92316C8.64512 9.92316 8.53706 9.94468 8.43624 9.9865C8.33543 10.0283 8.24386 10.0896 8.16676 10.1669L3.13343 15.2085C2.79176 15.5502 2.79176 16.1169 3.13343 16.4585C3.4751 16.8002 4.04176 16.8002 4.38343 16.4585L8.75843 12.0752L11.4668 14.7835C11.8084 15.1252 12.3584 15.1085 12.6751 14.7502L18.6501 8.0252C18.9418 7.7002 18.9251 7.2002 18.6168 6.89186Z"
    fill="url(#paint0_linear_1417_57546)"/>
  <defs>
    <linearGradient id="paint0_linear_1417_57546" x1="18.8588" y1="-0.134022" x2="18.8588" y2="21.5287"
                    gradientUnits="userSpaceOnUse">
      <stop stop-color="#6459E3"/>
      <stop offset="1" stop-color="#BAA7ED"/>
    </linearGradient>
  </defs>
</svg>
