<svg width="16" height="17" viewBox="0 0 16 17" fill="none" xmlns="http://www.w3.org/2000/svg">
  <path
    d="M3.83366 13.3328H6.16699C6.53518 13.3328 6.83366 13.0344 6.83366 12.6662V4.33268C6.83366 3.96449 6.53518 3.66602 6.16699 3.66602H3.83366C3.46547 3.66602 3.16699 3.96449 3.16699 4.33268V12.6662C3.16699 13.0344 3.46547 13.3328 3.83366 13.3328Z"
    stroke="#8A8AA3" stroke-width="1.5" stroke-linecap="round" stroke-linejoin="round"/>
  <path
    d="M9.83366 7.33285H12.167C12.5352 7.33285 12.8337 7.03437 12.8337 6.66618V4.33268C12.8337 3.96449 12.5352 3.66602 12.167 3.66602H9.83366C9.46547 3.66602 9.16699 3.96449 9.16699 4.33268V6.66618C9.16699 7.03437 9.46547 7.33285 9.83366 7.33285Z"
    stroke="#8A8AA3" stroke-width="1.5" stroke-linecap="round" stroke-linejoin="round"/>
  <path
    d="M9.83366 13.3328H12.167C12.5352 13.3328 12.8337 13.0344 12.8337 12.6662V10.3327C12.8337 9.96449 12.5352 9.66602 12.167 9.66602H9.83366C9.46547 9.66602 9.16699 9.96449 9.16699 10.3327V12.6662C9.16699 13.0344 9.46547 13.3328 9.83366 13.3328Z"
    stroke="#8A8AA3" stroke-width="1.5" stroke-linecap="round" stroke-linejoin="round"/>
</svg>
