<svg width="16" height="17" viewBox="0 0 16 17" fill="none" xmlns="http://www.w3.org/2000/svg">
  <path
    d="M3.83317 13.3338H6.16651C6.5347 13.3338 6.83317 13.0353 6.83317 12.6672V4.33366C6.83317 3.96547 6.5347 3.66699 6.16651 3.66699H3.83317C3.46498 3.66699 3.1665 3.96547 3.1665 4.33366V12.6672C3.1665 13.0353 3.46498 13.3338 3.83317 13.3338Z"
    stroke="white" stroke-opacity="0.5" stroke-width="1.5" stroke-linecap="round" stroke-linejoin="round"/>
  <path
    d="M9.83317 7.33382H12.1665C12.5347 7.33382 12.8332 7.03535 12.8332 6.66716V4.33366C12.8332 3.96547 12.5347 3.66699 12.1665 3.66699H9.83317C9.46498 3.66699 9.1665 3.96547 9.1665 4.33366V6.66716C9.1665 7.03535 9.46498 7.33382 9.83317 7.33382Z"
    stroke="white" stroke-opacity="0.5" stroke-width="1.5" stroke-linecap="round" stroke-linejoin="round"/>
  <path
    d="M9.83317 13.3338H12.1665C12.5347 13.3338 12.8332 13.0353 12.8332 12.6672V10.3337C12.8332 9.96547 12.5347 9.66699 12.1665 9.66699H9.83317C9.46498 9.66699 9.1665 9.96547 9.1665 10.3337V12.6672C9.1665 13.0353 9.46498 13.3338 9.83317 13.3338Z"
    stroke="white" stroke-opacity="0.5" stroke-width="1.5" stroke-linecap="round" stroke-linejoin="round"/>
</svg>
