<svg width="10" height="12" viewBox="0 0 10 12" fill="none" xmlns="http://www.w3.org/2000/svg">
  <path fill-rule="evenodd" clip-rule="evenodd"
        d="M1.86993 8.40711L6.21923 2.19567C6.60504 1.64468 7.36447 1.51077 7.91547 1.89658C8.46646 2.28239 8.60037 3.04183 8.21456 3.59282L3.86526 9.80426C3.47945 10.3553 2.72002 10.4892 2.16903 10.1034C1.61803 9.71754 1.48412 8.95811 1.86993 8.40711ZM8.80146 0.631255C10.0513 1.50639 10.355 3.229 9.47989 4.47882L5.13059 10.6903C4.25546 11.9401 2.53285 12.2438 1.28303 11.3687C0.0332174 10.4935 -0.270525 8.77094 0.604605 7.52112L4.9539 1.30968C5.82903 0.0598661 7.55164 -0.243876 8.80146 0.631255Z"
        fill="url(#paint0_linear_1417_57943)"/>
  <path fill-rule="evenodd" clip-rule="evenodd"
        d="M1.86993 8.40711L6.21923 2.19567C6.60504 1.64468 7.36447 1.51077 7.91547 1.89658C8.46646 2.28239 8.60037 3.04183 8.21456 3.59282L3.86526 9.80426C3.47945 10.3553 2.72002 10.4892 2.16903 10.1034C1.61803 9.71754 1.48412 8.95811 1.86993 8.40711ZM8.80146 0.631255C10.0513 1.50639 10.355 3.229 9.47989 4.47882L5.13059 10.6903C4.25546 11.9401 2.53285 12.2438 1.28303 11.3687C0.0332174 10.4935 -0.270525 8.77094 0.604605 7.52112L4.9539 1.30968C5.82903 0.0598661 7.55164 -0.243876 8.80146 0.631255Z"
        fill="#C6B6F7"/>
  <defs>
    <linearGradient id="paint0_linear_1417_57943" x1="7.79154" y1="-2.74288" x2="-3.4861" y2="13.3633"
                    gradientUnits="userSpaceOnUse">
      <stop stop-color="#6459E3"/>
      <stop offset="1" stop-color="#BAA7ED"/>
    </linearGradient>
  </defs>
</svg>
