<svg width="16" height="16" viewBox="0 0 16 16" fill="none" xmlns="http://www.w3.org/2000/svg">
  <path
    d="M8.49967 3.83398C8.49967 3.55784 8.27582 3.33398 7.99967 3.33398C7.72353 3.33398 7.49967 3.55784 7.49967 3.83398V7.50065H3.83301C3.55687 7.50065 3.33301 7.72451 3.33301 8.00065C3.33301 8.27679 3.55687 8.50065 3.83301 8.50065H7.49967V12.1673C7.49967 12.4435 7.72353 12.6673 7.99967 12.6673C8.27582 12.6673 8.49967 12.4435 8.49967 12.1673V8.50065H12.1663C12.4425 8.50065 12.6663 8.27679 12.6663 8.00065C12.6663 7.72451 12.4425 7.50065 12.1663 7.50065H8.49967V3.83398Z"
    fill="white"/>
</svg>
