<svg width='16' height='8' fill="none" xmlns="http://www.w3.org/2000/svg">
  <path
    d="M.555 0h15.031c-2.515 0-5.03 3.583-6.418 5.953-.444.757-1.675.72-2.086-.055C5.826 3.528 3.467 0 .555 0Z"
    fill="#FFFFF"
    fillOpacity='0.05'
  />
  <path
    d="M15.586-.5H.555v1c1.25 0 2.444.761 3.52 1.903C5.143 3.534 6.022 4.964 6.64 6.132c.306.577.9.853 1.459.868.558.016 1.168-.227 1.5-.795.687-1.171 1.641-2.623 2.72-3.776C13.422 1.253 14.552.5 15.587.5v-1Z"
    stroke="#FFFFFF"
    strokeOpacity='0.2'
  />
</svg>
