<svg width="56" height="24" viewBox="0 0 56 24" fill="none" xmlns="http://www.w3.org/2000/svg">
  <g opacity="0.2">
    <path
      d="M13 8C14.4619 9.06206 15.7713 10.3071 16.8942 11.7021C17.0353 11.8774 17.0353 12.1226 16.8942 12.2979C15.7713 13.6929 14.4619 14.9379 13 16M7 8C8.46188 9.06206 9.77128 10.3071 10.8942 11.7021C11.0353 11.8774 11.0353 12.1226 10.8942 12.2979C9.77128 13.6929 8.46188 14.9379 7 16"
      stroke="white" stroke-opacity="0.6" stroke-width="2" stroke-linecap="round" stroke-linejoin="round"/>
  </g>
  <path
    d="M29 8C30.4619 9.06206 31.7713 10.3071 32.8942 11.7021C33.0353 11.8774 33.0353 12.1226 32.8942 12.2979C31.7713 13.6929 30.4619 14.9379 29 16M23 8C24.4619 9.06206 25.7713 10.3071 26.8942 11.7021C27.0353 11.8774 27.0353 12.1226 26.8942 12.2979C25.7713 13.6929 24.4619 14.9379 23 16"
    stroke="white" stroke-opacity="0.6" stroke-width="2" stroke-linecap="round" stroke-linejoin="round"/>
  <g opacity="0.2">
    <path
      d="M45 8C46.4619 9.06206 47.7713 10.3071 48.8942 11.7021C49.0353 11.8774 49.0353 12.1226 48.8942 12.2979C47.7713 13.6929 46.4619 14.9379 45 16M39 8C40.4619 9.06206 41.7713 10.3071 42.8942 11.7021C43.0353 11.8774 43.0353 12.1226 42.8942 12.2979C41.7713 13.6929 40.4619 14.9379 39 16"
      stroke="white" stroke-opacity="0.6" stroke-width="2" stroke-linecap="round" stroke-linejoin="round"/>
  </g>
</svg>
