<svg width="24" height="24" viewBox="0 0 24 24" fill="none" xmlns="http://www.w3.org/2000/svg">
  <path
    d="M21.7072 14.293C21.8947 14.4805 22 14.7348 22 15C22 15.2652 21.8947 15.5195 21.7072 15.707L17.7072 19.707C17.5197 19.8945 17.2654 19.9998 17.0002 19.9998C16.735 19.9998 16.4807 19.8945 16.2932 19.707L12.2932 15.707C12.1111 15.5184 12.0103 15.2658 12.0125 15.0036C12.0148 14.7414 12.12 14.4906 12.3054 14.3052C12.4908 14.1198 12.7416 14.0146 13.0038 14.0123C13.266 14.01 13.5186 14.1108 13.7072 14.293L16.0002 16.586L16.0002 5C16.0002 4.73478 16.1056 4.48043 16.2931 4.29289C16.4806 4.10536 16.735 4 17.0002 4C17.2654 4 17.5198 4.10536 17.7073 4.29289C17.8949 4.48043 18.0002 4.73478 18.0002 5L18.0002 16.586L20.2932 14.293C20.4807 14.1055 20.735 14.0002 21.0002 14.0002C21.2654 14.0002 21.5197 14.1055 21.7072 14.293ZM11.7072 9.707C11.5197 9.89447 11.2654 9.99979 11.0002 9.99979C10.735 9.99979 10.4807 9.89447 10.2932 9.707L8.00021 7.414L8.00021 19C8.00021 19.2652 7.89486 19.5196 7.70732 19.7071C7.51978 19.8946 7.26543 20 7.00021 20C6.735 20 6.48064 19.8946 6.29311 19.7071C6.10557 19.5196 6.00021 19.2652 6.00021 19L6.00021 7.414L3.70721 9.707C3.51861 9.88916 3.26601 9.98995 3.00381 9.98767C2.74162 9.98539 2.4908 9.88023 2.30539 9.69482C2.11999 9.50941 2.01482 9.2586 2.01254 8.9964C2.01026 8.7342 2.11106 8.4816 2.29321 8.293L6.29321 4.293C6.48074 4.10553 6.73505 4.00021 7.00021 4.00021C7.26538 4.00021 7.51969 4.10553 7.70721 4.293L11.7072 8.293C11.8947 8.48053 12 8.73484 12 9C12 9.26516 11.8947 9.51947 11.7072 9.707Z"
    fill="#949496"/>
</svg>
