<svg width="20" height="20" viewBox="0 0 20 20" fill="none" xmlns="http://www.w3.org/2000/svg">
  <path fill-rule="evenodd" clip-rule="evenodd"
        d="M1.875 10C1.875 5.51269 5.51269 1.875 10 1.875C14.4873 1.875 18.125 5.51269 18.125 10C18.125 14.4873 14.4873 18.125 10 18.125C5.51269 18.125 1.875 14.4873 1.875 10ZM10 0C4.47715 0 0 4.47715 0 10C0 15.5228 4.47715 20 10 20C15.5228 20 20 15.5228 20 10C20 4.47715 15.5228 0 10 0ZM8.75 6.25C8.75 5.55964 9.30964 5 10 5C10.6904 5 11.25 5.55964 11.25 6.25C11.25 6.94036 10.6904 7.5 10 7.5C9.30964 7.5 8.75 6.94036 8.75 6.25ZM10 10C10.6904 10 11.25 10.5596 11.25 11.25V13.75C11.25 14.4404 10.6904 15 10 15C9.30964 15 8.75 14.4404 8.75 13.75V11.25C8.75 10.5596 9.30964 10 10 10Z"
        fill="#504314"/>
</svg>
