<svg width="20" height="20" viewBox="0 0 20 20" fill="none" xmlns="http://www.w3.org/2000/svg">
  <path fill-rule="evenodd" clip-rule="evenodd"
        d="M1.87598 10C1.87598 5.51269 5.51366 1.875 10.001 1.875C14.4883 1.875 18.126 5.51269 18.126 10C18.126 14.4873 14.4883 18.125 10.001 18.125C5.51366 18.125 1.87598 14.4873 1.87598 10ZM10.001 0C4.47813 0 0.000976562 4.47715 0.000976562 10C0.000976562 15.5228 4.47813 20 10.001 20C15.5238 20 20.001 15.5228 20.001 10C20.001 4.47715 15.5238 0 10.001 0ZM8.75098 6.25C8.75098 5.55964 9.31062 5 10.001 5C10.6913 5 11.251 5.55964 11.251 6.25C11.251 6.94036 10.6913 7.5 10.001 7.5C9.31062 7.5 8.75098 6.94036 8.75098 6.25ZM10.001 10C10.6913 10 11.251 10.5596 11.251 11.25V13.75C11.251 14.4404 10.6913 15 10.001 15C9.31062 15 8.75098 14.4404 8.75098 13.75V11.25C8.75098 10.5596 9.31062 10 10.001 10Z"
        fill="#FFC400"/>
</svg>
