<svg width="21" height="20" viewBox="0 0 21 20" fill="none" xmlns="http://www.w3.org/2000/svg">
  <path
    d="M14.2501 10.8333C14.2501 11.0634 14.0635 11.25 13.8334 11.25C13.6033 11.25 13.4167 11.0634 13.4167 10.8333C13.4167 10.6032 13.6033 10.4166 13.8334 10.4166C14.0635 10.4166 14.2501 10.6032 14.2501 10.8333Z"
    stroke="#F7F7F8" stroke-linecap="round" stroke-linejoin="round"/>
  <path
    d="M4.45825 5.62504V14.375C4.45825 15.2955 5.20444 16.0417 6.12492 16.0417H14.8749C15.7954 16.0417 16.5416 15.2955 16.5416 14.375V8.54171C16.5416 7.62123 15.7954 6.87504 14.8749 6.87504V6.87504M14.8749 6.87504H5.91659C5.11117 6.87504 4.45825 6.22212 4.45825 5.41671C4.45825 4.61129 5.11117 3.95837 5.91659 3.95837H13.2083C14.1287 3.95837 14.8749 4.70457 14.8749 5.62504V6.87504Z"
    stroke="#F7F7F8" stroke-width="1.5" stroke-linecap="round" stroke-linejoin="round"/>
</svg>
