<svg width="24" height="24" viewBox="0 0 24 24" fill="none" xmlns="http://www.w3.org/2000/svg">
  <rect width="24" height="24" rx="12" fill="white"/>
  <path fill-rule="evenodd" clip-rule="evenodd"
        d="M8.23228 14.8892L13.3498 7.58054C13.8038 6.93222 14.6974 6.77466 15.3457 7.22862C15.994 7.68258 16.1516 8.57616 15.6976 9.22449L10.5801 16.5331C10.1261 17.1815 9.23253 17.339 8.5842 16.8851C7.93588 16.4311 7.77831 15.5375 8.23228 14.8892ZM16.3882 5.73978C17.8588 6.7695 18.2162 8.7964 17.1865 10.267L12.0689 17.5756C11.0392 19.0462 9.01229 19.4036 7.54171 18.3739C6.07112 17.3442 5.71372 15.3173 6.74344 13.8467L11.861 6.53805C12.8907 5.06746 14.9176 4.71006 16.3882 5.73978Z"
        fill="#121217"/>
</svg>
