<svg width="20" height="21" viewBox="0 0 20 21" fill="none" xmlns="http://www.w3.org/2000/svg">
  <path
    d="M5.63624 10.7798H2.72712C2.29075 10.7798 1.99984 11.0707 1.99984 11.5071V17.3253C1.99984 17.7617 2.29075 18.0526 2.72712 18.0526H5.63624C6.07261 18.0526 6.36352 17.7617 6.36352 17.3253V11.5071C6.36352 11.0707 6.07261 10.7798 5.63624 10.7798ZM17.2727 7.87069H14.3636C13.9272 7.87069 13.6363 8.1616 13.6363 8.59797V17.3253C13.6363 17.7617 13.9272 18.0526 14.3636 18.0526H17.2727C17.7091 18.0526 18 17.7617 18 17.3253V8.59797C18 8.1616 17.7091 7.87069 17.2727 7.87069ZM11.4545 2.05244H8.54536C8.10899 2.05244 7.81808 2.34336 7.81808 2.77972V17.3253C7.81808 17.7617 8.10899 18.0526 8.54536 18.0526H11.4545C11.8908 18.0526 12.1818 17.7617 12.1818 17.3253V2.77972C12.1818 2.34336 11.8908 2.05244 11.4545 2.05244Z"
    fill="#8A8AA3"/>
</svg>
