<svg width="20" height="21" viewBox="0 0 20 21" fill="none" xmlns="http://www.w3.org/2000/svg">
  <path
    d="M17.8508 13.886C17.5265 13.5526 17.1191 13.386 16.6451 13.386H10.9954C10.8823 13.386 10.7702 13.3668 10.6635 13.3293L9.48057 12.9132C9.2676 12.8383 9.15555 12.605 9.23019 12.392C9.30645 12.1743 9.54753 12.0626 9.7629 12.1452L10.6516 12.4863C10.766 12.5301 10.8874 12.5526 11.0099 12.5526H13.1528C13.4438 12.5526 13.6767 12.436 13.8679 12.2443C14.0591 12.0526 14.1506 11.8193 14.1506 11.561C14.1506 11.111 13.9344 10.8026 13.502 10.6276L7.45705 8.38596H6.83563C6.28334 8.38596 5.83563 8.83367 5.83563 9.38596V15.0783C5.83563 15.5495 6.16455 15.9568 6.6252 16.0559L11.3859 17.0807C11.5543 17.1169 11.7292 17.109 11.8937 17.0578L17.6441 15.2672C18.0554 15.1391 18.3695 14.742 18.183 14.3536C18.1031 14.1871 17.9919 14.031 17.8508 13.886ZM4.17263 9.38596C4.17263 8.83367 3.72492 8.38596 3.17263 8.38596H1.83334C1.28105 8.38596 0.833336 8.83367 0.833336 9.38596V16.5526C0.833336 17.1049 1.28105 17.5526 1.83334 17.5526H3.17263C3.72492 17.5526 4.17263 17.1049 4.17263 16.5526V9.38596Z"
    fill="#8A8AA3"/>
  <path
    d="M17.5 5.88595C17.5 7.72595 16.0067 9.21928 14.1667 9.21928C12.3267 9.21928 10.8333 7.72595 10.8333 5.88595C10.8333 4.04595 12.3267 2.55261 14.1667 2.55261C16.0067 2.55261 17.5 4.04595 17.5 5.88595Z"
    fill="#8A8AA3"/>
</svg>
