<svg width="20" height="21" viewBox="0 0 20 21" fill="none" xmlns="http://www.w3.org/2000/svg">
  <path
    d="M10 1.71928C5.3975 1.71928 1.66666 5.45011 1.66666 10.0526C1.66666 14.6551 5.3975 18.3859 10 18.3859C14.6025 18.3859 18.3333 14.6551 18.3333 10.0526C18.3333 5.45011 14.6025 1.71928 10 1.71928ZM14.1667 10.3859C14.1667 10.6621 13.9428 10.8859 13.6667 10.8859H11.3333C11.0572 10.8859 10.8333 11.1098 10.8333 11.3859V13.7193C10.8333 13.9954 10.6095 14.2193 10.3333 14.2193H9.66666C9.39052 14.2193 9.16666 13.9954 9.16666 13.7193V11.3859C9.16666 11.1098 8.94281 10.8859 8.66666 10.8859H6.33333C6.05719 10.8859 5.83333 10.6621 5.83333 10.3859V9.71928C5.83333 9.44313 6.05719 9.21928 6.33333 9.21928H8.66666C8.94281 9.21928 9.16666 8.99542 9.16666 8.71928V6.38594C9.16666 6.1098 9.39052 5.88594 9.66666 5.88594H10.3333C10.6095 5.88594 10.8333 6.1098 10.8333 6.38594V8.71928C10.8333 8.99542 11.0572 9.21928 11.3333 9.21928H13.6667C13.9428 9.21928 14.1667 9.44313 14.1667 9.71928V10.3859Z"
    fill="#8A8AA3"/>
</svg>
