<svg width="20" height="21" viewBox="0 0 20 21" fill="none" xmlns="http://www.w3.org/2000/svg">
  <rect x="2" y="2.05261" width="16" height="16" rx="8" fill="#8A8AA3"/>
  <path fill-rule="evenodd" clip-rule="evenodd"
        d="M7.43879 11.8056L10.8554 6.92625C11.1584 6.49342 11.755 6.38823 12.1878 6.6913C12.6207 6.99437 12.7259 7.59095 12.4228 8.02378L9.00622 12.9032C8.70314 13.336 8.10657 13.4412 7.67374 13.1381C7.24091 12.835 7.13572 12.2385 7.43879 11.8056ZM12.8838 5.69733C13.8656 6.38478 14.1042 7.73798 13.4168 8.71977L10.0002 13.5991C9.31274 14.5809 7.95954 14.8195 6.97775 14.1321C5.99596 13.4446 5.75736 12.0914 6.44482 11.1096L9.86139 6.23026C10.5489 5.24847 11.902 5.00987 12.8838 5.69733Z"
        fill="#121217"/>
</svg>
