<svg width="20" height="21" viewBox="0 0 20 21" fill="none" xmlns="http://www.w3.org/2000/svg">
  <path
    d="M3.33333 7.55261H14.1667L12.8333 8.55261C12.7458 8.61827 12.672 8.70053 12.6163 8.7947C12.5605 8.88886 12.5239 8.99309 12.5084 9.10143C12.4929 9.20976 12.4989 9.32008 12.5261 9.42609C12.5532 9.53211 12.601 9.63173 12.6667 9.71928C12.7443 9.82277 12.8449 9.90678 12.9607 9.96463C13.0764 10.0225 13.204 10.0526 13.3333 10.0526C13.5136 10.0526 13.6891 9.99413 13.8333 9.88594L17.1667 7.38594C17.2686 7.30817 17.3512 7.20794 17.4081 7.09303C17.4649 6.97812 17.4945 6.85165 17.4945 6.72344C17.4945 6.59524 17.4649 6.46876 17.4081 6.35386C17.3512 6.23895 17.2686 6.13871 17.1667 6.06094L13.95 3.56094C13.7754 3.42502 13.554 3.36402 13.3344 3.39137C13.1148 3.41872 12.9151 3.53218 12.7792 3.70678C12.6432 3.88138 12.5822 4.10282 12.6096 4.3224C12.6369 4.54197 12.7504 4.74169 12.925 4.87761L14.2333 5.88594H3.33333C3.11232 5.88594 2.90036 5.97374 2.74408 6.13002C2.5878 6.2863 2.5 6.49826 2.5 6.71928C2.5 6.94029 2.5878 7.15225 2.74408 7.30853C2.90036 7.46481 3.11232 7.55261 3.33333 7.55261ZM16.6667 13.3859H5.83333L7.16667 12.3859C7.34348 12.2533 7.46037 12.0559 7.49162 11.8371C7.52288 11.6183 7.46594 11.3961 7.33333 11.2193C7.20073 11.0425 7.00331 10.9256 6.78452 10.8943C6.56573 10.8631 6.34348 10.92 6.16667 11.0526L2.83333 13.5526C2.73141 13.6304 2.64881 13.7306 2.59195 13.8455C2.53509 13.9604 2.50551 14.0869 2.50551 14.2151C2.50551 14.3433 2.53509 14.4698 2.59195 14.5847C2.64881 14.6996 2.73141 14.7998 2.83333 14.8776L6.05 17.3776C6.19546 17.4905 6.37421 17.552 6.55833 17.5526C6.6856 17.5523 6.8111 17.5229 6.92522 17.4665C7.03934 17.4102 7.13903 17.3285 7.21667 17.2276C7.35199 17.0539 7.41306 16.8337 7.38651 16.6151C7.35997 16.3964 7.24797 16.1972 7.075 16.0609L5.76667 15.0526H16.6667C16.8877 15.0526 17.0996 14.9648 17.2559 14.8085C17.4122 14.6523 17.5 14.4403 17.5 14.2193C17.5 13.9983 17.4122 13.7863 17.2559 13.63C17.0996 13.4737 16.8877 13.3859 16.6667 13.3859Z"
    fill="#8A8AA3"/>
</svg>
