<svg width="20" height="21" viewBox="0 0 20 21" fill="none" xmlns="http://www.w3.org/2000/svg">
  <path
    d="M9.58333 15.0526H10.4167M1.66666 10.0526V7.13595C1.66666 5.96595 1.66666 5.38011 1.9475 4.96011C2.06913 4.77805 2.22544 4.62174 2.4075 4.50011C2.8275 4.21928 3.41333 4.21928 4.58333 4.21928M18.3333 10.0526V7.13595C18.3333 5.96595 18.3333 5.38011 18.0525 4.96011C17.9309 4.77805 17.7746 4.62174 17.5925 4.50011C17.1725 4.21928 16.5867 4.21928 15.4167 4.21928"
    stroke="#8A8AA3" stroke-width="1.5" stroke-linecap="round" stroke-linejoin="round"/>
  <path
    d="M4.96683 18.2454C4.77922 18.3388 4.68458 18.386 4.58333 18.386C4.48208 18.386 4.38745 18.3388 4.19983 18.2454L4.1975 18.2443L2.67666 17.4876L2.6735 17.486C2.00228 17.1513 1.66666 16.9839 1.66666 16.7193V13.386C1.66666 13.1214 2.00228 12.954 2.6735 12.6192L2.67666 12.6176L4.1975 11.861L4.19983 11.8598C4.38745 11.7664 4.48208 11.7193 4.58333 11.7193C4.6846 11.7193 4.77773 11.7656 4.96239 11.8576L4.96916 11.861L6.49 12.6176C7.16333 12.9526 7.5 13.121 7.5 13.386V16.7193C7.5 16.9839 7.16439 17.1513 6.49316 17.486L6.49 17.4876L4.96916 18.2443L4.96683 18.2454Z"
    fill="#8A8AA3"/>
  <path
    d="M15.8002 18.2455C15.6126 18.3389 15.5179 18.386 15.4167 18.386C15.3154 18.386 15.2208 18.3389 15.0332 18.2455L15.0308 18.2444L13.51 17.4877L13.5068 17.4861C12.8356 17.1513 12.5 16.9839 12.5 16.7194V13.386C12.5 13.1214 12.8356 12.9541 13.5068 12.6193L13.51 12.6177L15.0308 11.861L15.0332 11.8599C15.2208 11.7665 15.3154 11.7194 15.4167 11.7194C15.5179 11.7194 15.6111 11.7657 15.7957 11.8577L15.8025 11.861L17.3233 12.6177C17.9967 12.9527 18.3333 13.121 18.3333 13.386V16.7194C18.3333 16.9839 17.9977 17.1513 17.3265 17.4861L17.3233 17.4877L15.8025 18.2444L15.8002 18.2455Z"
    fill="#8A8AA3"/>
  <path
    d="M10.3002 7.57877C10.1126 7.67217 10.0179 7.71928 9.91667 7.71928C9.81542 7.71928 9.72078 7.67217 9.53316 7.57877L9.53083 7.57761L8.01 6.82095L8.00684 6.81937C7.33561 6.48459 7 6.3172 7 6.05261V2.71928C7 2.45469 7.33561 2.2873 8.00683 1.95252L8.01 1.95095L9.53083 1.19428L9.53316 1.19312C9.72078 1.09972 9.81542 1.05261 9.91667 1.05261C10.0179 1.05261 10.1111 1.09898 10.2957 1.19091L10.3025 1.19428L11.8233 1.95095C12.4967 2.28595 12.8333 2.45428 12.8333 2.71928V6.05261C12.8333 6.3172 12.4977 6.48459 11.8265 6.81937L11.8233 6.82095L10.3025 7.57761L10.3002 7.57877Z"
    fill="#8A8AA3"/>
</svg>
