<svg width="20" height="21" viewBox="0 0 20 21" fill="none" xmlns="http://www.w3.org/2000/svg">
  <path
    d="M18.3333 6.85429V6.91513C18.3333 7.63179 18.3333 7.99096 18.1608 8.28429C17.9883 8.57763 17.6742 8.75179 17.0475 9.10096L16.3867 9.46763C16.8417 7.92763 16.9942 6.27263 17.05 4.85763L17.0583 4.67346L17.06 4.63013C17.6025 4.81846 17.9075 4.95929 18.0975 5.22263C18.3333 5.55013 18.3333 5.98513 18.3333 6.85429ZM1.66666 6.85429V6.91513C1.66666 7.63179 1.66666 7.99096 1.83916 8.28429C2.01166 8.57763 2.32583 8.75179 2.9525 9.10096L3.61416 9.46763C3.15833 7.92763 3.00583 6.27263 2.95 4.85763L2.94166 4.67346L2.94083 4.63013C2.3975 4.81846 2.0925 4.95929 1.9025 5.22263C1.66666 5.55013 1.66666 5.98596 1.66666 6.85429Z"
    fill="#8A8AA3"/>
  <path fill-rule="evenodd" clip-rule="evenodd"
        d="M10 1.71928C11.4867 1.71928 12.7108 1.85011 13.6475 2.00845C14.5967 2.16845 15.0708 2.24845 15.4675 2.73678C15.8642 3.22511 15.8425 3.75261 15.8008 4.80761C15.6575 8.43178 14.8758 12.9576 10.625 13.3576V16.3026H11.8167C12.0092 16.3027 12.1958 16.3695 12.3447 16.4917C12.4936 16.6138 12.5956 16.7838 12.6333 16.9726L12.7917 17.7609H15C15.1658 17.7609 15.3247 17.8268 15.4419 17.944C15.5592 18.0612 15.625 18.2202 15.625 18.3859C15.625 18.5517 15.5592 18.7107 15.4419 18.8279C15.3247 18.9451 15.1658 19.0109 15 19.0109H5C4.83424 19.0109 4.67527 18.9451 4.55806 18.8279C4.44085 18.7107 4.375 18.5517 4.375 18.3859C4.375 18.2202 4.44085 18.0612 4.55806 17.944C4.67527 17.8268 4.83424 17.7609 5 17.7609H7.20834L7.36667 16.9726C7.40441 16.7838 7.5064 16.6138 7.65528 16.4917C7.80417 16.3695 7.99076 16.3027 8.18334 16.3026H9.375V13.3576C5.125 12.9576 4.34334 8.43095 4.2 4.80761C4.1575 3.75261 4.13667 3.22428 4.53334 2.73678C4.92917 2.24845 5.40334 2.16845 6.3525 2.00845C7.55819 1.81085 8.77824 1.71412 10 1.71928ZM10.7933 5.21845L10.7117 5.07178C10.395 4.50261 10.2367 4.21928 10 4.21928C9.76334 4.21928 9.605 4.50261 9.28834 5.07178L9.20667 5.21845C9.11667 5.38011 9.07167 5.46011 9.00167 5.51345C8.93084 5.56678 8.84334 5.58678 8.66834 5.62595L8.51 5.66261C7.895 5.80178 7.5875 5.87095 7.51417 6.10595C7.44084 6.34178 7.65084 6.58678 8.07 7.07678L8.17834 7.20345C8.2975 7.34261 8.3575 7.41178 8.38417 7.49845C8.41084 7.58511 8.40167 7.67761 8.38417 7.86345L8.3675 8.03261C8.30417 8.68678 8.2725 9.01428 8.46334 9.15928C8.655 9.30428 8.94334 9.17178 9.51917 8.90678L9.6675 8.83845C9.83167 8.76345 9.91334 8.72595 10 8.72595C10.0867 8.72595 10.1683 8.76345 10.3325 8.83845L10.4808 8.90678C11.0567 9.17261 11.345 9.30428 11.5367 9.15928C11.7283 9.01428 11.6958 8.68678 11.6325 8.03261L11.6158 7.86345C11.5983 7.67761 11.5892 7.58511 11.6158 7.49845C11.6425 7.41261 11.7025 7.34261 11.8217 7.20345L11.93 7.07678C12.3492 6.58678 12.5592 6.34178 12.4858 6.10595C12.4125 5.87095 12.105 5.80178 11.49 5.66261L11.3317 5.62595C11.1567 5.58678 11.0692 5.56761 10.9983 5.51345C10.9283 5.46011 10.8833 5.38011 10.7933 5.21845Z"
        fill="#8A8AA3"/>
</svg>
